<?xml version="1.0" encoding="iso-8859-1"?>
<!-- Generator: Adobe Illustrator 22.1.0, SVG Export Plug-In . SVG Version: 6.00 Build 0)  -->
<svg version="1.1" id="&#x421;&#x43B;&#x43E;&#x439;_1"
	 xmlns="http://www.w3.org/2000/svg" xmlns:xlink="http://www.w3.org/1999/xlink" x="0px" y="0px" viewBox="0 0 476 400"
	 style="enable-background:new 0 0 476 400;" xml:space="preserve">
<g>
	<g>
		<defs>
			<rect id="SVGID_1_" x="56" y="33" width="367.92" height="334"/>
		</defs>
		<clipPath id="SVGID_2_">
			<use xlink:href="#SVGID_1_"  style="overflow:visible;"/>
		</clipPath>
		<path style="clip-path:url(#SVGID_2_);fill:#FFFFFF;" d="M69.602,60.2h38.984l55.535,200.828
			c1.586,5.894,7.024,9.972,13.145,9.972h170.679c5.442,0,10.2-3.171,12.469-8.16l62.106-142.801
			c1.812-4.304,1.359-9.066-1.133-12.918c-2.496-3.855-6.801-6.121-11.336-6.121l-274.884-0.333c-7.477,0,6.667,7.352,6.667,14.833
			c0,7.477-10.977,12.833-3.5,12.833l250.866-0.133l-50.32,115.601H187.465L131.934,42.973C130.348,37.079,124.906,33,118.789,33
			H69.602C62.121,33,56,39.121,56,46.602C56,54.079,62.121,60.2,69.602,60.2L69.602,60.2z M69.602,60.2"/>
	</g>
	<path style="fill:#FFFFFF;" d="M164.348,366.653c17,0,30.824-13.824,30.824-30.824S181.348,305,164.348,305
		c-17,0-30.828,13.829-30.828,30.829S147.348,366.653,164.348,366.653L164.348,366.653z M164.348,366.653"/>
	<path style="fill:#FFFFFF;" d="M357.012,366.653h2.269c8.16-0.68,15.641-4.305,21.078-10.653
		c5.442-6.121,7.934-14.054,7.481-22.441c-1.133-16.773-15.867-29.691-32.867-28.559c-17,1.133-29.692,16.094-28.559,32.868
		C327.547,353.961,340.922,366.653,357.012,366.653L357.012,366.653z M357.012,366.653"/>
</g>
</svg>
