<?xml version="1.0" encoding="iso-8859-1"?>
<!-- Generator: Adobe Illustrator 22.1.0, SVG Export Plug-In . SVG Version: 6.00 Build 0)  -->
<svg version="1.1" id="&#x421;&#x43B;&#x43E;&#x439;_1"
	 xmlns="http://www.w3.org/2000/svg" xmlns:xlink="http://www.w3.org/1999/xlink" x="0px" y="0px" viewBox="0 0 426 400"
	 style="enable-background:new 0 0 426 400;" xml:space="preserve">
<g>
	<g>
		<defs>
			<rect id="SVGID_1_" x="20" y="14" width="389.76" height="373.92"/>
		</defs>
		<clipPath id="SVGID_2_">
			<use xlink:href="#SVGID_1_"  style="overflow:visible;"/>
		</clipPath>
		<path style="clip-path:url(#SVGID_2_);fill:#FFFFFF;" d="M409.242,155.441c-1.277-3.922-4.64-6.719-8.719-7.36L278.922,130.8
			l-54.719-110c-1.84-3.68-5.601-6-9.68-6c-4.082,0-7.839,2.32-9.679,6.078l-54,110.32L29.242,149.28
			c-4.078,0.641-7.437,3.442-8.719,7.36c-1.281,3.922-0.16,8.238,2.801,11.039l88.238,85.519L91.164,374.32
			c-0.723,4.082,0.961,8.16,4.32,10.558c1.84,1.363,4.078,2.082,6.321,2.082c1.757,0,3.437-0.398,5.039-1.281l108.558-57.52
			l108.879,56.879c1.602,0.801,3.281,1.203,4.961,1.203c5.922,0,10.801-4.882,10.801-10.8c0-0.879-0.078-1.68-0.32-2.481
			l-21.039-120.398l87.679-86C409.484,163.679,410.523,159.359,409.242,155.441L409.242,155.441z M299.645,241.12
			c-2.563,2.481-3.68,6.078-3.043,9.602l18.32,105.039l-94.559-49.359c-3.121-1.68-6.879-1.602-10.082,0l-94.238,49.918l17.68-105.2
			c0.558-3.519-0.559-7.039-3.121-9.519l-76.477-74.242l105.52-15.68c3.519-0.559,6.558-2.719,8.078-5.918l46.879-95.762
			l47.523,95.52c1.598,3.203,4.637,5.359,8.156,5.922l105.602,15.039L299.645,241.12z M299.645,241.12"/>
	</g>
</g>
</svg>
