<?xml version="1.0" encoding="iso-8859-1"?>
<!-- Generator: Adobe Illustrator 22.1.0, SVG Export Plug-In . SVG Version: 6.00 Build 0)  -->
<svg version="1.1" id="&#x421;&#x43B;&#x43E;&#x439;_1"
	 xmlns="http://www.w3.org/2000/svg" xmlns:xlink="http://www.w3.org/1999/xlink" x="0px" y="0px" viewBox="0 0 234.479 73.043"
	 style="enable-background:new 0 0 234.479 73.043;" xml:space="preserve">
<g>
	<g>
		<path style="fill:#FFFFFF;" d="M95.218,0L83.503,72.898h18.727L113.937,0H95.218z M151.699,29.695
			c-6.543-3.23-10.555-5.414-10.555-8.718c0.078-3.004,3.391-6.082,10.789-6.082c6.082-0.153,10.551,1.277,13.945,2.699l1.7,0.758
			l2.543-15.25c-3.696-1.43-9.563-3.008-16.805-3.008c-18.488,0-31.508,9.613-31.59,23.363c-0.152,10.148,9.32,15.777,16.41,19.156
			c7.246,3.465,9.711,5.711,9.711,8.789c-0.082,4.727-5.859,6.907-11.246,6.907c-7.469,0-11.484-1.121-17.574-3.754l-2.465-1.125
			l-2.617,15.851c4.398,1.953,12.488,3.676,20.883,3.762c19.648,0,32.437-9.469,32.597-24.121
			C167.488,40.883,162.492,34.727,151.699,29.695L151.699,29.695z M218.124,0.227h-14.484c-4.465,0-7.859,1.281-9.789,5.863
			l-27.812,66.808h19.648l5.414-14.464h21.984l2.805,14.523h17.332L218.124,0.227z M196.55,43.836
			c0.379,0.039,7.539-23.609,7.539-23.609l5.707,23.609H196.55z M67.859,0L49.516,49.527l-2-9.765
			c-3.391-11.27-14.027-23.52-25.894-29.602l16.8,62.664H58.23L87.671,0.008H67.859V0z M67.859,0"/>
		<path style="fill:#FFFFFF;" d="M41.343,9.402c-1.429-5.558-5.988-9.308-12.179-9.386H0.113l-0.301,1.347
			C22.477,6.949,41.5,24.141,47.668,40.313L41.343,9.402z M41.343,9.402"/>
	</g>
</g>
</svg>
