<?xml version="1.0" encoding="iso-8859-1"?>
<!-- Generator: Adobe Illustrator 22.1.0, SVG Export Plug-In . SVG Version: 6.00 Build 0)  -->
<svg version="1.1" id="Capa_1" xmlns="http://www.w3.org/2000/svg" xmlns:xlink="http://www.w3.org/1999/xlink" x="0px" y="0px"
	 viewBox="-53 309.4 504 174.4" style="enable-background:new -53 309.4 504 174.4;" xml:space="preserve">
<polygon style="fill:#FFFFFF;" points="-9.8,352.6 7.8,352.6 -1,330.2 "/>
<path style="fill:#FFFFFF;" d="M208.6,333.4c-1.6-0.8-4-0.8-6.4-0.8h-16v12.8h16c2.4,0,4.8,0,6.4-0.8c1.6-0.8,2.4-3.2,2.4-5.6
	C211.8,335.8,210.2,334.2,208.6,333.4z"/>
<path style="fill:#FFFFFF;" d="M379.8,309.4v9.6l-4.8-9.6h-37.6v9.6l-4.8-9.6h-51.2c-8.8,0-16,1.6-22.4,4.8v-4.8h-36v4.8
	c-4-3.2-8.8-4.8-15.2-4.8H79l-8.8,20l-8.8-20H20.6v9.6l-4.8-9.6h-34.4l-16,37.6L-53,388.6h18.4h22.4l4.8-12.8H3.8l4.8,12.8H55V379
	l4,9.6h23.2l4-9.6v9.6h111.2v-20.8h1.6c1.6,0,1.6,0,1.6,2.4v17.6h57.6V383c4.8,2.4,12,4.8,21.6,4.8h24l4.8-12.8h11.2l4.8,12.8H371
	v-12l7.2,12h37.6v-78.4H379.8L379.8,309.4z M109.4,376.6H95.8v-44l-19.2,44h-12l-19.2-44v44H18.2l-5.6-12h-27.2l-4.8,12.8h-15.2
	l24-56.8h20l22.4,53.6v-53.6h21.6L71,359l16-38.4h22.4V376.6z M163.8,332.6h-31.2V343H163v11.2h-30.4v11.2h31.2v12H119v-56.8h44.8
	V332.6z M223.8,355.8c1.6,3.2,2.4,5.6,2.4,10.4v11.2h-13.6v-7.2c0-3.2,0-8-2.4-11.2c-2.4-2.4-4.8-2.4-9.6-2.4h-14.4v20.8h-13.6
	v-56.8H203c7.2,0,12,0,16,2.4s6.4,6.4,6.4,12.8c0,8.8-5.6,13.6-9.6,15.2C219.8,351.8,222.2,354.2,223.8,355.8z M247.8,376.6h-13.6
	v-56.8h13.6V376.6z M405.4,376.6h-19.2l-25.6-42.4v42.4h-27.2l-4.8-12h-28l-4.8,12.8h-15.2c-6.4,0-14.4-1.6-19.2-6.4
	c-4.8-4.8-7.2-11.2-7.2-21.6c0-8,1.6-16,7.2-22.4c4-4.8,11.2-6.4,20-6.4h12.8v12h-12.8c-4.8,0-7.2,0.8-10.4,3.2
	c-2.4,2.4-4,7.2-4,12.8c0,6.4,0.8,10.4,4,13.6c2.4,2.4,5.6,3.2,9.6,3.2h5.6l18.4-44h20L347,375v-53.6h20l23.2,39.2v-39.2h13.6v55.2
	L405.4,376.6L405.4,376.6z"/>
<g>
	<polygon style="fill:#FFFFFF;" points="305.4,352.6 323.8,352.6 315,330.2 	"/>
	<polygon style="fill:#FFFFFF;" points="169.4,467.8 169.4,422.2 148.6,444.6 	"/>
</g>
<polygon style="fill:#FFFFFF;" points="83.8,427.8 83.8,438.2 113.4,438.2 113.4,449.4 83.8,449.4 83.8,461.4 116.6,461.4 
	131.8,444.6 117.4,427.8 "/>
<path id="SVGCleanerId_0" style="fill:#FFFFFF;" d="M199.8,427.8H183v14.4h17.6c4.8,0,8-2.4,8-7.2
	C207.8,430.2,204.6,427.8,199.8,427.8z"/>
<path style="fill:#FFFFFF;" d="M447,441.4v-36h-9.6h-24c-7.2,0-12.8,1.6-16.8,4.8v-4.8h-36.8c-5.6,0-12.8,1.6-16,4.8v-4.8H279v4.8
	c-4.8-4-13.6-4.8-17.6-4.8h-43.2v4.8c-4-4-13.6-4.8-18.4-4.8h-48l-11.2,12l-10.4-12h-72v78.4h70.4l11.2-12l10.4,12h43.2v-18.4h5.6
	c5.6,0,12.8,0,18.4-2.4v21.6h36v-20.8h1.6c2.4,0,2.4,0,2.4,2.4v18.4h108.8c7.2,0,14.4-1.6,18.4-4.8v4.8H419c7.2,0,14.4-0.8,19.2-4
	l0,0c8-4.8,12.8-13.6,12.8-24C451,451,449.4,445.4,447,441.4z M199,454.2h-16v19.2h-25.6l-16-18.4l-16.8,18.4H71.8v-56.8h53.6
	l16,18.4l16.8-18.4h42.4c10.4,0,22.4,3.2,22.4,18.4C222.2,451,211,454.2,199,454.2z M279,451c1.6,2.4,2.4,5.6,2.4,10.4v11.2h-13.6
	v-7.2c0-3.2,0-8.8-2.4-11.2c-1.6-2.4-4.8-2.4-9.6-2.4h-14.4v20.8h-13.6v-56.8h30.4c6.4,0,12,0,16,2.4s7.2,6.4,7.2,12.8
	c0,8.8-5.6,13.6-9.6,15.2C275.8,447.8,278.2,449.4,279,451z M334.2,427.8H303v10.4h30.4v11.2H303v11.2h31.2v12h-44.8v-56.8h44.8
	V427.8z M367.8,472.6h-25.6v-12h25.6c2.4,0,4,0,5.6-1.6c0.8-0.8,1.6-2.4,1.6-4s-0.8-3.2-1.6-4c-0.8-0.8-2.4-1.6-4.8-1.6
	c-12.8-0.8-28,0-28-17.6c0-8,4.8-16.8,19.2-16.8h26.4v13.6h-24.8c-2.4,0-4,0-5.6,0.8s-1.6,2.4-1.6,4c0,2.4,1.6,3.2,3.2,4
	s3.2,0.8,4.8,0.8h7.2c7.2,0,12,1.6,15.2,4.8c2.4,2.4,4,6.4,4,12C388.6,467,381.4,472.6,367.8,472.6z M436.6,467
	c-3.2,3.2-8.8,5.6-16.8,5.6h-25.6v-12h25.6c2.4,0,4,0,5.6-1.6c0.8-0.8,1.6-2.4,1.6-4s-0.8-3.2-1.6-4c-0.8-0.8-2.4-1.6-4.8-1.6
	c-12.8-0.8-28,0-28-17.6c0-8,4.8-16.8,19.2-16.8h26.4v13.6h-24c-2.4,0-4,0-5.6,0.8s-1.6,2.4-1.6,4c0,2.4,0.8,3.2,3.2,4
	c1.6,0.8,3.2,0.8,4.8,0.8h7.2c7.2,0,12,1.6,15.2,4.8c0.8,0,0.8,0.8,0.8,0.8c2.4,3.2,3.2,7.2,3.2,11.2
	C441.4,459.8,439.8,463.8,436.6,467z"/>
<path id="SVGCleanerId_1" style="fill:#FFFFFF;" d="M264.6,429.4c-1.6-0.8-4-0.8-6.4-0.8h-16v12.8h16c2.4,0,4.8,0,6.4-0.8
	s2.4-3.2,2.4-5.6C267.8,431.8,266.2,430.2,264.6,429.4z"/>
<g>
	<path style="fill:#FFFFFF;" d="M208.6,333.4c-1.6-0.8-4-0.8-6.4-0.8h-16v12.8h16c2.4,0,4.8,0,6.4-0.8c1.6-0.8,2.4-3.2,2.4-5.6
		C211.8,335.8,210.2,334.2,208.6,333.4z"/>
	<polygon style="fill:#FFFFFF;" points="305.4,352.6 323.8,352.6 315,330.2 	"/>
	<polygon style="fill:#FFFFFF;" points="169.4,467.8 169.4,422.2 148.6,444.6 	"/>
</g>
<g>
	<path id="SVGCleanerId_0_1_" style="fill:#FFFFFF;" d="M199.8,427.8H183v14.4h17.6c4.8,0,8-2.4,8-7.2
		C207.8,430.2,204.6,427.8,199.8,427.8z"/>
</g>
<g>
	<path id="SVGCleanerId_1_1_" style="fill:#FFFFFF;" d="M264.6,429.4c-1.6-0.8-4-0.8-6.4-0.8h-16v12.8h16c2.4,0,4.8,0,6.4-0.8
		s2.4-3.2,2.4-5.6C267.8,431.8,266.2,430.2,264.6,429.4z"/>
</g>
<g>
	<polygon style="fill:#FFFFFF;" points="194.2,471 183,459 183,472.6 156.6,472.6 140.6,454.2 123,472.6 70.2,472.6 70.2,416.6 
		123.8,416.6 140.6,435 148.6,425.4 128.6,405.4 58.2,405.4 58.2,483.8 128.6,483.8 140.6,471.8 151,483.8 194.2,483.8 	"/>
	<polygon style="fill:#FFFFFF;" points="111,387.8 100.6,376.6 95.8,376.6 95.8,371.8 83.8,359.8 75.8,376.6 64.6,376.6 45.4,332.6 
		45.4,376.6 18.2,376.6 12.6,364.6 -14.6,364.6 -20.2,376.6 -34.6,376.6 -10.6,320.6 9.4,320.6 31.8,374.2 31.8,320.6 43.8,320.6 
		32.6,309.4 20.6,309.4 20.6,319 16.6,309.4 -18.6,309.4 -34.6,347 -53,387.8 -34.6,387.8 -11.4,387.8 -6.6,375.8 4.6,375.8 
		10.2,387.8 55,387.8 55,378.2 59,387.8 82.2,387.8 86.2,378.2 86.2,387.8 	"/>
	<polygon style="fill:#FFFFFF;" points="74.2,351 61.4,338.2 71,359 	"/>
</g>
<g>
	<path style="fill:#FFFFFF;" d="M438.2,479.8c7.2-4.8,12-12.8,12.8-21.6L439.8,447c0.8,2.4,1.6,4.8,1.6,8c0,4.8-1.6,8.8-4.8,12
		c-3.2,3.2-8.8,5.6-16.8,5.6h-25.6v-12h25.6c2.4,0,4,0,5.6-1.6c0.8-0.8,1.6-2.4,1.6-4s-0.8-3.2-1.6-4c-0.8-0.8-2.4-1.6-4.8-1.6
		c-12.8-0.8-28,0-28-17.6c0-8,4.8-15.2,16.8-16.8l-8.8-8.8c-1.6,0.8-2.4,1.6-3.2,1.6V403h-36.8c-5.6,0-12.8,1.6-16,4.8V403H279v4.8
		c-4.8-4-13.6-4.8-17.6-4.8h-43.2v4.8c-4-4-13.6-4.8-18.4-4.8h-48l-11.2,12l-10.4-12h-8.8l24,24l12-12.8h42.4
		c10.4,0,22.4,3.2,22.4,18.4c0,16-11.2,19.2-23.2,19.2h-16v12l12,12v-12h4c5.6,0,12.8,0,18.4-2.4V483h36v-20.8h1.6
		c2.4,0,2.4,0,2.4,2.4V483h108.8c7.2,0,14.4-1.6,18.4-4.8v4.8H419C425.4,483.8,432.6,483,438.2,479.8L438.2,479.8z M279,451
		c1.6,2.4,2.4,5.6,2.4,10.4v11.2h-13.6v-7.2c0-3.2,0-8.8-2.4-11.2c-1.6-2.4-4.8-2.4-9.6-2.4h-14.4v20.8h-13.6v-56.8h30.4
		c6.4,0,12,0,16,2.4s7.2,6.4,7.2,12.8c0,8.8-5.6,13.6-9.6,15.2C275.8,447.8,278.2,449.4,279,451z M334.2,427.8H303v10.4h30.4v11.2
		H303v11.2h31.2v12h-44.8v-56.8h44.8V427.8z M367.8,472.6h-25.6v-12h25.6c2.4,0,4,0,5.6-1.6c0.8-0.8,1.6-2.4,1.6-4s-0.8-3.2-1.6-4
		c-0.8-0.8-2.4-1.6-4.8-1.6c-12.8-0.8-28,0-28-17.6c0-8,4.8-16.8,19.2-16.8h26.4v13.6h-24.8c-2.4,0-4,0-5.6,0.8s-1.6,2.4-1.6,4
		c0,2.4,1.6,3.2,3.2,4s3.2,0.8,4.8,0.8h7.2c7.2,0,12,1.6,15.2,4.8c2.4,2.4,4,6.4,4,12C388.6,467,381.4,472.6,367.8,472.6z"/>
	<path style="fill:#FFFFFF;" d="M406.2,433.4c0,2.4,0.8,3.2,3.2,4c1.6,0.8,3.2,0.8,4.8,0.8h7.2c4.8,0,8,0.8,11.2,2.4l-12-12h-7.2
		c-2.4,0-4,0-5.6,0.8C407,430.2,406.2,431.8,406.2,433.4z"/>
	<polygon style="fill:#FFFFFF;" points="378.2,385.4 379.8,387.8 380.6,387.8 	"/>
	<polygon style="fill:#FFFFFF;" points="334.2,341.4 347.8,374.2 347.8,355 	"/>
	<path style="fill:#FFFFFF;" d="M197.4,367.8h1.6c1.6,0,1.6,0,1.6,2.4v17.6h57.6V383c4.8,2.4,12,4.8,21.6,4.8h24l4.8-12.8h11.2
		l4.8,12.8H371v-8l-11.2-11.2v8.8h-27.2l-4-12.8h-28l-4.8,12.8h-15.2c-6.4,0-14.4-1.6-19.2-6.4c-4.8-4.8-7.2-11.2-7.2-21.6
		c0-8,1.6-16,7.2-22.4c4-4.8,11.2-6.4,20-6.4h12.8v12h-12.8c-4.8,0-7.2,0.8-10.4,3.2c-2.4,2.4-4,7.2-4,12.8c0,6.4,0.8,10.4,4,13.6
		c2.4,2.4,5.6,3.2,9.6,3.2h5.6l18.4-44h8l-11.2-11.2h-20.8c-8.8,0-16,1.6-22.4,4.8v-4.8H223v4.8c-4-3.2-8.8-4.8-15.2-4.8H79l-8.8,20
		l-8.8-20H26.2l11.2,11.2h16L67,351l4.8,4.8l14.4-35.2h22.4v56.8H95v-44l-13.6,32l23.2,23.2h92L197.4,367.8z M234.2,320.6h13.6v56.8
		h-13.6V320.6z M163.8,332.6h-31.2V343H163v11.2h-30.4v11.2h31.2v12H119v-56.8h44.8V332.6z M186.2,376.6h-13.6v-56.8H203
		c7.2,0,12,0,16,2.4c4,2.4,6.4,6.4,6.4,12.8c0,8.8-5.6,13.6-9.6,15.2c3.2,0.8,5.6,3.2,6.4,4.8c1.6,3.2,2.4,5.6,2.4,10.4v11.2H211
		v-7.2c0-3.2,0-8-2.4-11.2c-0.8-1.6-3.2-1.6-8-1.6h-14.4L186.2,376.6L186.2,376.6z"/>
</g>
</svg>
