<?xml version="1.0" encoding="iso-8859-1"?>
<!-- Generator: Adobe Illustrator 22.1.0, SVG Export Plug-In . SVG Version: 6.00 Build 0)  -->
<svg version="1.1" id="&#x421;&#x43B;&#x43E;&#x439;_1"
	 xmlns="http://www.w3.org/2000/svg" xmlns:xlink="http://www.w3.org/1999/xlink" x="0px" y="0px" viewBox="0 0 2279.59 1353.387"
	 style="enable-background:new 0 0 2279.59 1353.387;" xml:space="preserve">
<g>
	<path style="fill:#FFFFFF;" d="M1604.736,4.013c-161.694,0-308.823,56.587-425.019,151.435
		c88.635,85.574,156.299,192.718,192.601,313.829h-56.055c-35.135-107.675-96.845-202.678-177.063-278.915
		c-80.754,76.903-141.192,172.619-175.909,278.591h-56.068c35.803-118.892,101.416-226.652,190.604-313.038
		C981.915,62.04,835.486,4,674.7,4C302.092,4,0,306.079,0,678.7c0,372.608,302.079,674.687,674.7,674.687
		c160.773,0,307.215-58.04,423.126-151.915c-87.948-85.315-154.457-192.601-190.604-313.025h56.068
		c34.72,105.97,95.157,201.686,175.909,278.591c80.231-76.249,141.928-171.24,177.063-278.928h56.055
		c-36.302,121.112-103.966,228.268-192.601,313.829c116.196,94.835,263.325,151.435,425.019,151.435
		c372.608,0.013,674.687-302.066,674.687-674.661C2279.423,306.092,1977.344,4.013,1604.736,4.013z M376.045,836.957h-70.504
		l40.038-212.341l-94.874,212.341h-64.395l-18.287-217.568l-41.776,217.568H58.377l58.312-301.119h108.777l13.061,182.77
		l82.695-182.77h111.384L376.045,836.957L376.045,836.957z M544.873,836.957l-8.703-13.929
		c-12.192,8.716-21.763,13.073-56.574,14.824c-34.811,1.725-79.18-24.37-71.347-75.743c19.13-104.42,140.968-85.263,158.374-87.014
		c7.834-37.418-18.261-33.942-41.776-34.811c-23.488-0.856-67.871,6.109-84.42,7.834l10.441-53.954l0,0
		c44.408-8.716,67.897-7.834,88.778-8.716c113.991,0,102.695,81.813,95.73,115.755l-26.99,135.755H544.873z M820.766,766.467
		c-11.297,74.862-92.241,70.504-108.764,70.504c-23.527,0-48.74,0-80.075-8.716l9.572-51.347
		c33.942,11.323,79.18,6.109,89.634,6.109c22.775,0,25.94-28.806,8.716-37.418c-13.93-6.965-28.728-17.405-54.849-28.728
		c-16.186-7.017-33.073-26.095-23.501-72.229c12.49-60.18,93.979-59.181,103.564-59.181s34.811-2.62,67.015,9.559l-15.654,50.491
		c0,0,0,0,0,0h0l0,0c-19.169-5.227-51.36-5.227-67.015-3.476c-25.239,6.965-14.799,30.453-0.869,36.536
		c13.917,6.109,35.68,18.287,48.727,27.003C810.325,713.368,826.291,729.97,820.766,766.467z M938.233,825.648
		c-14.798,9.572-34.811,12.204-50.491,12.204c-15.654,0-67.015-9.598-53.941-77.468l47.002-236.724h67.884l-13.929,66.146h36.536
		l-12.166,53.954h-34.811L905.16,744.703c-3.489,19.156-1.738,36.575,37.431,30.479L938.233,825.648z M1174.97,725.573
		L1174.97,725.573l-147.946,0c-7.821,56.574,35.693,54.823,62.657,54.823c26.99,0,66.172-3.502,76.612-6.083l-10.441,51.321
		c-16.549,8.716-58.325,12.205-87.053,11.323c-117.48,0-115.742-110.515-113.135-126.196
		c2.607-15.655,16.523-124.432,126.196-124.432C1201.091,586.329,1182.803,685.522,1174.97,725.573z M1550.937,605.46
		L1550.937,605.46c-17.431-10.453-29.584-12.179-52.229-12.179c-22.619,0-73.111,21.621-82.656,82.682
		c-11.323,72.229,38.274,107.895,107.908,84.42l20.012,60.919c-22.619,10.441-45.264,15.655-82.682,15.655
		c-70.504,0-147.077-62.644-112.266-189.722c25.667-93.629,106.196-127.921,153.186-126.183
		c55.679,2.075,75.718,20.881,93.123,40.038L1550.937,605.46C1550.937,605.46,1550.937,605.46,1550.937,605.46L1550.937,605.46z
		 M1693.682,836.957l-8.716-13.929c-12.205,8.716-21.75,13.073-56.587,14.824c-34.811,1.725-79.18-24.37-71.334-75.743
		c19.13-104.42,140.968-85.263,158.374-87.014c7.847-37.418-18.274-33.942-41.776-34.811c-23.514-0.856-67.871,6.109-84.433,7.834
		l10.467-53.954l0,0c44.383-8.716,67.884-7.834,88.752-8.716c114.017,0,102.72,81.813,95.756,115.755l-27.003,135.755H1693.682z
		 M1873.249,722.473l-21.102,114.277h-68.584l0,0l46.587-249.642h58.896l6.161,24.604c10.557-12.321,30.777-24.604,65.057-24.604
		l-18.443,65.031C1925.102,652.138,1893.456,647.767,1873.249,722.473z M2087.043,836.97l-8.742-20.012
		c-13.903,9.572-36.523,19.156-59.168,20.012c-48.714,0-93.447-68.856-71.334-144.47c33.06-113.135,91.372-106.17,128.79-106.17
		c32.23,0,40.025,20.012,53.098,29.571v0l18.248-95.704h71.385l-59.194,316.774H2087.043z"/>
	<path style="fill:#FFFFFF;" d="M1031.369,680.321h84.42c4.358-24.37-3.476-45.264-30.453-45.264
		C1058.346,635.057,1039.203,648.986,1031.369,680.321z M555.326,725.573c-11.323-1.777-36.562-8.716-58.325,6.083
		c-21.763,14.799-27.846,40.881-5.214,49.622c21.776,8.365,53.928-6.083,58.312-28.754L555.326,725.573L555.326,725.573z
		 M2105.317,717.726c6.965-22.619,3.165-50.867-4.358-60.893c-20.868-27.846-68.895-5.836-83.538,48.74
		c-9.572,35.667,11.323,62.644,34.811,62.644C2077.484,768.205,2093.139,748.192,2105.317,717.726L2105.317,717.726z
		 M1704.123,725.573c-11.323-1.777-36.549-8.716-58.312,6.083c-21.763,14.799-27.859,40.881-5.214,49.622
		c21.789,8.365,53.928-6.083,58.286-28.754L1704.123,725.573L1704.123,725.573z"/>
	<path style="fill:#FFFFFF;" d="M1176.915,836.957l46.133-247.152h58.312l6.083,24.37c10.467-12.192,30.479-24.37,64.395-24.37
		l-17.406,65.277c-16.51,0-48.74-5.214-68.753,68.727l-20.868,113.161h-67.897L1176.915,836.957L1176.915,836.957z"/>
</g>
</svg>
