<?xml version="1.0" encoding="iso-8859-1"?>
<!-- Generator: Adobe Illustrator 22.1.0, SVG Export Plug-In . SVG Version: 6.00 Build 0)  -->
<svg version="1.1" id="Capa_1" xmlns="http://www.w3.org/2000/svg" xmlns:xlink="http://www.w3.org/1999/xlink" x="0px" y="0px"
	 viewBox="-57 318.104 496 157.696" style="enable-background:new -57 318.104 496 157.696;" xml:space="preserve">
<circle style="fill:#FFFFFF;" cx="206.2" cy="360.6" r="41.6"/>
<path style="fill:#FFFFFF;" d="M164.6,360.6c0-23.2,18.4-41.6,41.6-41.6s41.6,18.4,41.6,41.6s-18.4,41.6-41.6,41.6"/>
<path style="fill:#FFFFFF;" d="M177.4,331c16-16,42.4-16,58.4,0s16,42.4,0,58.4"/>
<path style="fill:#FFFFFF;" d="M-34.6,321.4H-57v78.4h22.4c12,0,20.8-3.2,28-8.8c8.8-7.2,14.4-18.4,14.4-30.4
	C7.8,337.4-9,321.4-34.6,321.4z M-16.2,380.6c-4.8,4-11.2,6.4-20.8,6.4h-4.8v-52h4c9.6,0,16,1.6,20.8,6.4c5.6,4.8,8.8,12,8.8,19.2
	C-7.4,367.8-10.6,375.8-16.2,380.6z"/>
<rect id="SVGCleanerId_0" x="15" y="321.4" style="fill:#FFFFFF;" width="15.2" height="78.4"/>
<path style="fill:#FFFFFF;" d="M68.6,351.8c-9.6-3.2-12-5.6-12-9.6c0-4.8,4.8-8.8,11.2-8.8c4.8,0,8.8,1.6,12.8,6.4l8-10.4
	c-6.4-5.6-14.4-8.8-23.2-8.8c-13.6,0-24.8,9.6-24.8,22.4c0,11.2,4.8,16,19.2,21.6c6.4,2.4,8.8,3.2,10.4,4.8c3.2,1.6,4.8,4.8,4.8,8
	c0,6.4-4.8,11.2-12,11.2s-13.6-4-16.8-10.4l-9.6,9.6c7.2,10.4,16,15.2,27.2,15.2c16,0,27.2-10.4,27.2-25.6
	C91,363.8,86.2,358.2,68.6,351.8z"/>
<path style="fill:#FFFFFF;" d="M95.8,360.6c0,23.2,18.4,40.8,41.6,40.8c6.4,0,12-1.6,19.2-4.8v-18.4c-6.4,6.4-12,8.8-18.4,8.8
	c-15.2,0-26.4-11.2-26.4-27.2c0-15.2,11.2-27.2,25.6-27.2c7.2,0,12.8,2.4,19.2,8.8V323c-6.4-3.2-12-4.8-19.2-4.8
	C115,319.8,95.8,338.2,95.8,360.6z"/>
<polygon style="fill:#FFFFFF;" points="282.2,374.2 261.4,321.4 244.6,321.4 277.4,402.2 286.2,402.2 320.6,321.4 303.8,321.4 "/>
<polygon style="fill:#FFFFFF;" points="327,399.8 371,399.8 371,387 343,387 343,365.4 370.2,365.4 370.2,351.8 343,351.8 343,335 
	371,335 371,321.4 327,321.4 "/>
<g>
	<path style="fill:#FFFFFF;" d="M414.2,367c12-2.4,18.4-10.4,18.4-22.4c0-14.4-10.4-23.2-28-23.2h-23.2v78.4h15.2v-31.2h2.4
		l21.6,31.2H439L414.2,367z M401.4,357.4h-4.8v-24h4.8c9.6,0,15.2,4,15.2,12S411,357.4,401.4,357.4z"/>
	<path style="fill:#FFFFFF;" d="M-34.6,321.4H-57v78.4h22.4c12,0,20.8-3.2,28-8.8c8.8-7.2,14.4-18.4,14.4-30.4
		C7.8,337.4-9,321.4-34.6,321.4z M-16.2,380.6c-4.8,4-11.2,6.4-20.8,6.4h-4.8v-52h4c9.6,0,16,1.6,20.8,6.4c5.6,4.8,8.8,12,8.8,19.2
		C-7.4,367.8-10.6,375.8-16.2,380.6z"/>
</g>
<g>
	<rect id="SVGCleanerId_0_1_" x="15" y="321.4" style="fill:#FFFFFF;" width="15.2" height="78.4"/>
</g>
<g>
	<path style="fill:#FFFFFF;" d="M68.6,351.8c-9.6-3.2-12-5.6-12-9.6c0-4.8,4.8-8.8,11.2-8.8c4.8,0,8.8,1.6,12.8,6.4l8-10.4
		c-6.4-5.6-14.4-8.8-23.2-8.8c-13.6,0-24.8,9.6-24.8,22.4c0,11.2,4.8,16,19.2,21.6c6.4,2.4,8.8,3.2,10.4,4.8c3.2,1.6,4.8,4.8,4.8,8
		c0,6.4-4.8,11.2-12,11.2s-13.6-4-16.8-10.4l-9.6,9.6c7.2,10.4,16,15.2,27.2,15.2c16,0,27.2-10.4,27.2-25.6
		C91,363.8,86.2,358.2,68.6,351.8z"/>
	<path style="fill:#FFFFFF;" d="M138.2,401.4c6.4,0,12-1.6,19.2-4.8v-18.4c-6.4,6.4-12,8.8-18.4,8.8c-15.2,0-26.4-11.2-26.4-27.2
		c0-8,3.2-14.4,8-20l-10.4-10.4c-8,7.2-13.6,18.4-13.6,30.4C95.8,383.8,114.2,401.4,138.2,401.4z"/>
</g>
<path style="fill:#FFFFFF;" d="M414.2,367c12-2.4,18.4-10.4,18.4-22.4c0-14.4-10.4-23.2-28-23.2h-23.2v78.4h15.2v-31.2h2.4
	l21.6,31.2H439L414.2,367z M401.4,357.4h-4.8v-24h4.8c9.6,0,15.2,4,15.2,12S411,357.4,401.4,357.4z"/>
<g>
	<path style="fill:#FFFFFF;" d="M55.8,472.6v-44l30.4,31.2V431h6.4v44l-30.4-31.2v28.8L55.8,472.6L55.8,472.6z"/>
	<path style="fill:#FFFFFF;" d="M124.6,437.4h-16.8v9.6h16v6.4h-16V467h16.8v5.6h-23.2V431h23.2V437.4z"/>
	<path style="fill:#FFFFFF;" d="M144.6,437.4v35.2h-6.4v-35.2h-9.6v-5.6h25.6v5.6H144.6z"/>
	<path style="fill:#FFFFFF;" d="M163.8,431.8l10.4,28l11.2-29.6l10.4,29.6l11.2-28h8l-18.4,44l-10.4-29.6L175,475.8l-17.6-44H163.8z
		"/>
	<path style="fill:#FFFFFF;" d="M215.8,451.8c0-5.6,2.4-11.2,6.4-15.2s9.6-6.4,15.2-6.4s11.2,2.4,15.2,6.4s6.4,9.6,6.4,15.2
		s-2.4,11.2-6.4,15.2s-9.6,6.4-15.2,6.4s-10.4-1.6-14.4-5.6C218.2,463.8,215.8,459,215.8,451.8z M222.2,451.8c0,4.8,1.6,8,4.8,11.2
		c3.2,3.2,6.4,4.8,10.4,4.8s8-1.6,11.2-4.8c3.2-3.2,4.8-6.4,4.8-11.2c0-4.8-1.6-8-4.8-11.2c-3.2-3.2-6.4-4.8-11.2-4.8
		c-4,0-8,1.6-11.2,4.8C223.8,443.8,222.2,447.8,222.2,451.8z"/>
	<path style="fill:#FFFFFF;" d="M281.4,455l12.8,17.6h-8l-12-16.8h-0.8v16.8H267V431h7.2c5.6,0,9.6,0.8,12,3.2c2.4,2.4,4,5.6,4,8.8
		c0,3.2-0.8,5.6-2.4,7.2C286.2,453.4,283.8,455,281.4,455z M273.4,450.2h1.6c5.6,0,8.8-2.4,8.8-6.4s-3.2-6.4-8.8-6.4h-2.4v12.8
		H273.4z"/>
	<path style="fill:#FFFFFF;" d="M306.2,447.8l16-16.8h8l-18.4,18.4l18.4,22.4h-8L307,453.4l-1.6,1.6v16.8H299v-41.6h6.4v17.6H306.2z
		"/>
</g>
<g>
	<polygon style="fill:#FFFFFF;" points="357.4,387 343,387 343,372.6 327,356.6 327,399.8 370.2,399.8 	"/>
	<polygon style="fill:#FFFFFF;" points="299.8,329.4 282.2,374.2 261.4,321.4 244.6,321.4 277.4,402.2 286.2,402.2 311.8,341.4 	"/>
</g>
</svg>
