<?xml version="1.0" encoding="iso-8859-1"?>
<!-- Generator: Adobe Illustrator 22.1.0, SVG Export Plug-In . SVG Version: 6.00 Build 0)  -->
<svg version="1.1" id="Capa_1" xmlns="http://www.w3.org/2000/svg" xmlns:xlink="http://www.w3.org/1999/xlink" x="0px" y="0px"
	 viewBox="-53 332.6 504 128.8" style="enable-background:new -53 332.6 504 128.8;" xml:space="preserve">
<path style="fill:#FFFFFF;" d="M336.6,366.2h-27.2c-1.6,0-3.2,1.6-4,3.2l-11.2,70.4c0,1.6,0.8,2.4,2.4,2.4H311
	c1.6,0,2.4-0.8,2.4-2.4l3.2-20c0-1.6,1.6-3.2,4-3.2h8.8c18.4,0,28.8-8.8,31.2-26.4c1.6-7.2,0-13.6-3.2-17.6
	C352.6,368.6,345.4,366.2,336.6,366.2 M339.8,392.6c-1.6,9.6-8.8,9.6-16,9.6H319l3.2-18.4c0-0.8,0.8-1.6,2.4-1.6h1.6
	c4.8,0,9.6,0,12,3.2C339.8,386.2,339.8,388.6,339.8,392.6"/>
<g>
	<path style="fill:#FFFFFF;" d="M140.6,366.2h-27.2c-1.6,0-3.2,1.6-4,3.2l-11.2,70.4c0,1.6,0.8,2.4,2.4,2.4h12.8
		c1.6,0,3.2-1.6,4-3.2l3.2-19.2c0-1.6,1.6-3.2,4-3.2h8.8c18.4,0,28.8-8.8,31.2-26.4c1.6-7.2,0-13.6-3.2-17.6
		C156.6,368.6,150.2,366.2,140.6,366.2 M143.8,392.6c-1.6,9.6-8.8,9.6-16,9.6h-4l3.2-18.4c0-0.8,0.8-1.6,2.4-1.6h1.6
		c4.8,0,9.6,0,12,3.2C143.8,386.2,144.6,388.6,143.8,392.6"/>
	<path style="fill:#FFFFFF;" d="M223,391.8h-12.8c-0.8,0-2.4,0.8-2.4,1.6l-0.8,4l-0.8-1.6c-3.2-4-8.8-5.6-15.2-5.6
		c-14.4,0-27.2,11.2-29.6,26.4c-1.6,8,0.8,15.2,4.8,20s9.6,6.4,16.8,6.4c12,0,18.4-7.2,18.4-7.2l-0.8,4c0,1.6,0.8,2.4,2.4,2.4h12
		c1.6,0,3.2-1.6,4-3.2l7.2-44.8C225.4,393.4,223.8,391.8,223,391.8 M204.6,417.4c-1.6,7.2-7.2,12.8-15.2,12.8c-4,0-7.2-1.6-8.8-3.2
		c-1.6-2.4-2.4-5.6-2.4-9.6c0.8-7.2,7.2-12.8,14.4-12.8c4,0,6.4,1.6,8.8,3.2C203.8,410.2,204.6,414.2,204.6,417.4"/>
</g>
<path style="fill:#FFFFFF;" d="M418.2,391.8h-12.8c-0.8,0-2.4,0.8-2.4,1.6l-0.8,4l-0.8-1.6c-3.2-4-8.8-5.6-15.2-5.6
	c-14.4,0-27.2,11.2-29.6,26.4c-1.6,8,0.8,15.2,4.8,20s9.6,6.4,16.8,6.4c12,0,18.4-7.2,18.4-7.2l-0.8,4c0,1.6,0.8,2.4,2.4,2.4h12
	c1.6,0,3.2-1.6,4-3.2l7.2-44.8C420.6,393.4,419.8,391.8,418.2,391.8 M399.8,417.4c-1.6,7.2-7.2,12.8-15.2,12.8c-4,0-7.2-1.6-8.8-3.2
	c-1.6-2.4-2.4-5.6-2.4-9.6c0.8-7.2,7.2-12.8,14.4-12.8c4,0,6.4,1.6,8.8,3.2C399.8,410.2,400.6,414.2,399.8,417.4"/>
<path style="fill:#FFFFFF;" d="M292.6,391.8H279c-1.6,0-2.4,0.8-3.2,1.6l-17.6,27.2l-8-25.6c-0.8-1.6-1.6-2.4-4-2.4h-12.8
	c-1.6,0-2.4,1.6-2.4,3.2l14.4,42.4l-13.6,19.2c-0.8,1.6,0,4,1.6,4h12.8c1.6,0,2.4-0.8,3.2-1.6l44-63.2
	C295.8,394.2,294.2,391.8,292.6,391.8"/>
<path style="fill:#FFFFFF;" d="M433.4,368.6l-11.2,72c0,1.6,0.8,2.4,2.4,2.4h11.2c1.6,0,3.2-1.6,4-3.2l11.2-70.4
	c0-1.6-0.8-2.4-2.4-2.4h-12.8C435,366.2,434.2,367,433.4,368.6"/>
<path style="fill:#FFFFFF;" d="M39,342.2c-5.6-6.4-16-9.6-30.4-9.6h-40c-2.4,0-4.8,2.4-5.6,4.8l-16,104.8c0,2.4,1.6,4,3.2,4H-25
	l6.4-39.2v1.6c0.8-2.4,3.2-4.8,5.6-4.8h12c23.2,0,40.8-9.6,46.4-36c0-0.8,0-1.6,0-2.4c-0.8,0-0.8,0,0,0
	C46.2,355,44.6,348.6,39,342.2"/>
<path style="fill:#FFFFFF;" d="M44.6,365.4L44.6,365.4c0,0.8,0,1.6,0,2.4c-5.6,27.2-23.2,36-46.4,36h-12c-2.4,0-4.8,2.4-5.6,4.8
	l-8,48.8c0,1.6,0.8,3.2,3.2,3.2h20.8c2.4,0,4.8-1.6,4.8-4v-0.8l4-24.8v-1.6c0-2.4,2.4-4,4.8-4h3.2c20,0,36-8,40-32
	c1.6-9.6,0.8-18.4-4-24C48.6,367.8,47,366.2,44.6,365.4"/>
<path style="fill:#FFFFFF;" d="M39,363c-0.8,0-1.6-0.8-2.4-0.8s-1.6,0-2.4-0.8c-3.2-0.8-6.4-0.8-10.4-0.8H-7.4c-0.8,0-1.6,0-2.4,0.8
	c-1.6,0.8-2.4,2.4-2.4,4l-6.4,41.6v1.6c0.8-2.4,3.2-4.8,5.6-4.8h12c23.2,0,40.8-9.6,46.4-36c0-0.8,0-1.6,0.8-2.4
	c-1.6-0.8-2.4-1.6-4-1.6C39.8,363,39.8,363,39,363"/>
</svg>
