<?xml version="1.0" encoding="utf-8"?>
<!-- Generator: Adobe Illustrator 22.1.0, SVG Export Plug-In . SVG Version: 6.00 Build 0)  -->
<svg version="1.1" id="Слой_1" xmlns="http://www.w3.org/2000/svg" xmlns:xlink="http://www.w3.org/1999/xlink" x="0px" y="0px"
	 viewBox="0 0 60 42.8" style="enable-background:new 0 0 60 42.8;" xml:space="preserve">
<style type="text/css">
	.st0{fill:#BEA67C;}
</style>
<g>
	<g>
		<path class="st0" d="M38.7,22.6c-0.1-0.4-0.4-0.6-0.8-0.7L33,21.2l-2.1-4.4c-0.2-0.3-0.5-0.5-0.9-0.5s-0.7,0.2-0.9,0.5l-2.2,4.4
			L22,21.9c-0.4,0.1-0.7,0.3-0.8,0.7c-0.1,0.4,0,0.7,0.2,1l3.5,3.4l-0.8,4.9c-0.1,0.4,0.1,0.7,0.4,0.9c0.3,0.2,0.7,0.2,1,0.1
			l4.4-2.3l4.4,2.3c0.1,0.1,0.3,0.1,0.5,0.1s0.4-0.1,0.6-0.2c0.3-0.2,0.4-0.6,0.4-0.9L35,27l3.5-3.4C38.7,23.3,38.8,22.9,38.7,22.6
			L38.7,22.6z M33.2,26c-0.2,0.2-0.3,0.5-0.3,0.9l0.6,3.4l-3.1-1.6c-0.3-0.1-0.6-0.1-0.9,0l-3.1,1.6l0.6-3.4
			c0.1-0.3-0.1-0.6-0.3-0.9l-2.5-2.4l3.4-0.5c0.3,0,0.6-0.2,0.7-0.5l1.5-3.1l1.5,3.1c0.1,0.3,0.4,0.5,0.7,0.5l3.4,0.5L33.2,26z"/>
		<path d="M13.7,16.9c3.9,0,7.7-2.5,9.1-6.4c0.2-0.5-0.1-1.1-0.6-1.2c-2.4-0.9-5-0.7-7.3,0.4c0.6-0.8,1.2-1.5,1.9-2.2
			c0.4-0.4,0.4-1,0-1.4s-1-0.4-1.4,0c-0.5,0.5-1,1-1.4,1.5c-0.1-2.9-1.5-5.7-4-7.5C9.6-0.1,9,0,8.7,0.4C7.2,2.5,6.6,5,7.1,7.6
			c0.4,2.3,1.6,4.4,3.4,5.9c-0.3,0.7-0.6,1.5-0.8,2.2c-0.2-0.4-0.4-0.8-0.7-1.2c-1.4-2.2-3.5-3.7-6-4.2c-0.3-0.1-0.5,0-0.7,0.1
			S1.9,10.8,1.9,11c-1.1,5,1.9,9.9,6.7,11.3c0,1,0,2.1,0.1,3.1C8.4,25.2,8.2,25,8,24.8c-2.1-1.5-4.6-2.1-7.1-1.8
			c-0.5,0.1-0.9,0.6-0.8,1.1c0.4,2.5,1.7,4.8,3.8,6.3c1.7,1.2,3.6,1.9,5.7,1.9c0.3,0,0.7,0,1-0.1c0.4,0.9,0.9,1.8,1.4,2.7
			c-3-1-6.4-0.4-9,1.7c-0.4,0.3-0.5,0.9-0.1,1.4c1.6,2,3.9,3.2,6.5,3.5c0.3,0,0.6,0,1,0c2,0,3.9-0.6,5.5-1.8c1.1,1.1,2.3,2,3.5,2.9
			c0.2,0.1,0.3,0.2,0.5,0.2c0.3,0,0.6-0.2,0.8-0.4c0.3-0.4,0.2-1-0.3-1.3c-1.2-0.8-2.4-1.7-3.4-2.8c-2.3-2.3-4-5.1-5.1-8
			c4.6-1.8,7.2-6.8,5.8-11.6c-0.2-0.5-0.7-0.8-1.2-0.7c-2.5,0.7-4.5,2.4-5.7,4.6c0,0.1-0.1,0.1-0.1,0.2c0-2.1,0.3-4.1,0.9-6.1
			C12.1,16.9,12.9,16.9,13.7,16.9L13.7,16.9z M8.5,20.2c-3.2-1.2-5.2-4.4-5-7.8C5.1,13,6.4,14,7.3,15.5C8.2,16.9,8.6,18.6,8.5,20.2
			L8.5,20.2z M5,28.9c-1.4-1-2.3-2.4-2.8-4h0.1c3.4,0,6.4,2.2,7.3,5.5C7.9,30.4,6.3,29.9,5,28.9L5,28.9z M9.3,39.5
			c-1.7-0.2-3.2-0.9-4.5-2c2.9-1.8,6.7-1.4,9.2,0.9C12.7,39.3,11,39.7,9.3,39.5L9.3,39.5z M12.3,23.5c0.8-1.5,2.1-2.6,3.6-3.3
			c0.5,3.4-1.3,6.7-4.4,8.1C11.2,26.6,11.5,25,12.3,23.5L12.3,23.5z M15.7,11.5c1.5-0.7,3.2-0.9,4.8-0.6c-1.6,3-5,4.7-8.4,4
			C12.9,13.4,14.2,12.2,15.7,11.5L15.7,11.5z M8.9,7.3C8.6,5.6,8.9,4,9.7,2.5c2.5,2.3,3.1,6.1,1.5,9.1C10,10.4,9.2,8.9,8.9,7.3
			L8.9,7.3z"/>
		<path d="M50.5,32.3c2,0,4-0.6,5.7-1.9c2.1-1.5,3.4-3.7,3.8-6.3c0.1-0.5-0.3-1-0.8-1.1c-2.9-0.4-5.8,0.5-7.8,2.3
			c0.1-1,0.2-2.1,0.1-3.1c2.3-0.6,4.2-2.1,5.5-4.1c1.4-2.2,1.8-4.7,1.3-7.2c-0.1-0.5-0.6-0.9-1.2-0.7c-2.5,0.6-4.6,2.1-6,4.2
			c-0.3,0.4-0.5,0.8-0.7,1.2c-0.2-0.8-0.5-1.5-0.8-2.2c3.9-3.2,4.8-8.9,1.8-13C51.3,0.2,51,0,50.8,0c-0.3,0-0.5,0-0.7,0.2
			c-2.1,1.5-3.5,3.7-3.9,6.2C46,6.8,46,7.2,46,7.7c-0.4-0.5-0.9-1-1.4-1.5c-0.4-0.4-1-0.4-1.4,0s-0.4,1,0,1.4
			c0.7,0.7,1.3,1.4,1.9,2.2c-2.3-1.1-4.9-1.2-7.3-0.4c-0.5,0.2-0.8,0.7-0.6,1.2c1.4,3.9,5.1,6.4,9,6.4c0.8,0,1.6-0.1,2.4-0.3
			c0.6,2,0.9,4.1,0.9,6.1c-1.2-2.3-3.2-4.1-5.8-4.8c-0.5-0.2-1.1,0.1-1.2,0.7c-0.7,2.5-0.4,5.1,0.8,7.3c1.1,2,2.8,3.5,5,4.3
			c-1,2.9-2.7,5.7-5.1,8c-1,1-2.2,2-3.4,2.8c-0.4,0.3-0.6,0.9-0.3,1.3c0.2,0.3,0.5,0.4,0.8,0.4c0.2,0,0.4-0.1,0.5-0.2
			c1.3-0.8,2.5-1.8,3.5-2.9c1.7,1.2,3.6,1.8,5.5,1.8c2.8,0,5.5-1.2,7.4-3.5c0.2-0.2,0.2-0.5,0.2-0.7c0-0.3-0.2-0.5-0.4-0.7
			c-2-1.6-4.5-2.4-7-2.1c-0.7,0.1-1.3,0.2-2,0.4c0.5-0.9,1-1.8,1.4-2.7C49.9,32.3,50.2,32.3,50.5,32.3L50.5,32.3z M56.5,12.4
			c0.1,1.7-0.3,3.3-1.2,4.7s-2.2,2.5-3.8,3.1C51.2,16.8,53.3,13.6,56.5,12.4L56.5,12.4z M57.8,24.9c-1,3.3-4,5.5-7.5,5.5
			C51.4,27.1,54.4,24.8,57.8,24.9L57.8,24.9z M39.5,10.9c1.6-0.3,3.3-0.1,4.8,0.6s2.7,1.9,3.5,3.4C44.5,15.5,41,13.9,39.5,10.9
			L39.5,10.9z M48.8,11.6c-0.8-1.5-1-3.2-0.8-4.8c0.3-1.7,1.1-3.2,2.3-4.3C51.9,5.5,51.3,9.2,48.8,11.6L48.8,11.6z M50.4,36.4
			c1.7-0.2,3.3,0.2,4.8,1.1c-2.5,2.3-6.3,2.7-9.2,0.9C47.1,37.3,48.7,36.6,50.4,36.4L50.4,36.4z M48.6,28.3
			c-1.5-0.7-2.8-1.8-3.6-3.3s-1.1-3.2-0.9-4.8C47.3,21.6,49.1,24.9,48.6,28.3L48.6,28.3z"/>
	</g>
</g>
</svg>
