<?xml version="1.0" encoding="iso-8859-1"?>
<!-- Generator: Adobe Illustrator 22.1.0, SVG Export Plug-In . SVG Version: 6.00 Build 0)  -->
<svg version="1.1" id="&#x421;&#x43B;&#x43E;&#x439;_1"
	 xmlns="http://www.w3.org/2000/svg" xmlns:xlink="http://www.w3.org/1999/xlink" x="0px" y="0px" viewBox="0 0 60 30"
	 style="enable-background:new 0 0 60 30;" xml:space="preserve">
<path style="fill:#F3F3F3;" d="M55,30H5c-2.75,0-5-2.25-5-5V3.043C0,1.369,1.369,0,3.043,0H55c2.75,0,5,2.25,5,5v20
	C60,27.75,57.75,30,55,30z"/>
<polygon style="fill:#2FABF7;" points="13.452,11.452 14.858,11.452 14.155,9.662 "/>
<path style="fill:#228FE0;" d="M30.904,9.918c-0.128-0.064-0.32-0.064-0.511-0.064h-1.279v1.023h1.279c0.192,0,0.384,0,0.511-0.064
	c0.128-0.064,0.192-0.256,0.192-0.447C31.16,10.11,31.032,9.982,30.904,9.918z"/>
<path style="fill:#0571C1;" d="M44.584,8v0.767L44.201,8h-3.005v0.767L40.813,8h-4.091c-0.703,0-1.279,0.128-1.79,0.384V8h-2.877
	v0.384C31.735,8.128,31.352,8,30.84,8H20.548l-0.703,1.598L19.142,8h-3.26v0.767L15.498,8h-2.749l-1.279,3.005L10,14.329h1.47h1.79
	l0.384-1.023h0.895l0.384,1.023h3.708v-0.767l0.32,0.767h1.854l0.32-0.767v0.767h8.886v-1.662h0.128c0.128,0,0.128,0,0.128,0.192
	v1.406h4.603v-0.384c0.384,0.192,0.959,0.384,1.726,0.384h1.918l0.384-1.023h0.895l0.384,1.023h3.708v-0.959l0.575,0.959h3.005V8
	H44.584L44.584,8z M22.977,13.37H21.89V9.854l-1.534,3.516h-0.959l-1.534-3.516v3.516h-2.174l-0.447-0.959h-2.174l-0.384,1.023
	H11.47l1.918-4.539h1.598l1.79,4.283V8.895h1.726l1.406,3.068l1.279-3.068h1.79V13.37z M27.324,9.854h-2.493v0.831h2.429v0.895
	h-2.429v0.895h2.493v0.959h-3.58V8.895h3.58V9.854z M32.119,11.708c0.128,0.256,0.192,0.447,0.192,0.831v0.895h-1.087v-0.575
	c0-0.256,0-0.639-0.192-0.895c-0.192-0.192-0.384-0.192-0.767-0.192h-1.151v1.662h-1.087V8.895h2.429c0.575,0,0.959,0,1.279,0.192
	s0.511,0.511,0.511,1.023c0,0.703-0.447,1.087-0.767,1.215C31.799,11.388,31.991,11.58,32.119,11.708z M34.037,13.37H32.95V8.831
	h1.087V13.37z M46.63,13.37h-1.534L43.05,9.982v3.388h-2.174l-0.384-0.959h-2.237l-0.384,1.023h-1.215
	c-0.511,0-1.151-0.128-1.534-0.511c-0.384-0.384-0.575-0.895-0.575-1.726c0-0.639,0.128-1.279,0.575-1.79
	c0.32-0.384,0.895-0.511,1.598-0.511h1.023v0.959h-1.023c-0.384,0-0.575,0.064-0.831,0.256c-0.192,0.192-0.32,0.575-0.32,1.023
	c0,0.511,0.064,0.831,0.32,1.087c0.192,0.192,0.447,0.256,0.767,0.256h0.447l1.47-3.516h1.598l1.79,4.283V8.959h1.598l1.854,3.132
	V8.959h1.087v4.411L46.63,13.37L46.63,13.37z"/>
<g>
	<polygon style="fill:#228FE0;" points="38.639,11.452 40.11,11.452 39.406,9.662 	"/>
	<polygon style="fill:#228FE0;" points="27.772,20.658 27.772,17.014 26.11,18.804 	"/>
</g>
<polygon style="fill:#2FABF7;" points="20.932,17.461 20.932,18.292 23.297,18.292 23.297,19.187 20.932,19.187 20.932,20.146 
	23.553,20.146 24.767,18.804 23.616,17.461 "/>
<path id="SVGCleanerId_0" style="fill:#228FE0;" d="M30.201,17.461h-1.342v1.151h1.406c0.384,0,0.639-0.192,0.639-0.575
	C30.84,17.653,30.584,17.461,30.201,17.461z"/>
<path style="fill:#0571C1;" d="M49.954,18.548v-2.877h-0.767h-1.918c-0.575,0-1.023,0.128-1.342,0.384v-0.384h-2.941
	c-0.447,0-1.023,0.128-1.279,0.384v-0.384H36.53v0.384c-0.384-0.32-1.087-0.384-1.406-0.384h-3.452v0.384
	c-0.32-0.32-1.087-0.384-1.47-0.384h-3.836L25.47,16.63l-0.831-0.959h-5.753v6.265h5.626l0.895-0.959l0.831,0.959h3.452v-1.47h0.447
	c0.447,0,1.023,0,1.47-0.192V22h2.877v-1.662h0.128c0.192,0,0.192,0,0.192,0.192V22h8.694c0.575,0,1.151-0.128,1.47-0.384V22h2.749
	c0.575,0,1.151-0.064,1.534-0.32l0,0c0.639-0.384,1.023-1.087,1.023-1.918C50.274,19.315,50.146,18.868,49.954,18.548z
	 M30.137,19.571h-1.279v1.534h-2.046l-1.279-1.47l-1.342,1.47h-4.219v-4.539h4.283l1.279,1.47l1.342-1.47h3.388
	c0.831,0,1.79,0.256,1.79,1.47C31.991,19.315,31.096,19.571,30.137,19.571z M36.53,19.315c0.128,0.192,0.192,0.447,0.192,0.831
	v0.895h-1.087v-0.575c0-0.256,0-0.703-0.192-0.895c-0.128-0.192-0.384-0.192-0.767-0.192h-1.151v1.662h-1.087v-4.539h2.429
	c0.511,0,0.959,0,1.279,0.192c0.32,0.192,0.575,0.511,0.575,1.023c0,0.703-0.447,1.087-0.767,1.215
	C36.274,19.059,36.466,19.187,36.53,19.315z M40.941,17.461h-2.493v0.831h2.429v0.895h-2.429v0.895h2.493v0.959h-3.58v-4.539h3.58
	V17.461z M43.626,21.041H41.58v-0.959h2.046c0.192,0,0.32,0,0.447-0.128c0.064-0.064,0.128-0.192,0.128-0.32
	c0-0.128-0.064-0.256-0.128-0.32c-0.064-0.064-0.192-0.128-0.384-0.128c-1.023-0.064-2.237,0-2.237-1.406
	c0-0.639,0.384-1.342,1.534-1.342h2.11v1.087h-1.982c-0.192,0-0.32,0-0.447,0.064c-0.128,0.064-0.128,0.192-0.128,0.32
	c0,0.192,0.128,0.256,0.256,0.32c0.128,0.064,0.256,0.064,0.384,0.064h0.575c0.575,0,0.959,0.128,1.215,0.384
	c0.192,0.192,0.32,0.511,0.32,0.959C45.288,20.594,44.712,21.041,43.626,21.041z M49.123,20.594
	c-0.256,0.256-0.703,0.447-1.342,0.447h-2.046v-0.959h2.046c0.192,0,0.32,0,0.447-0.128c0.064-0.064,0.128-0.192,0.128-0.32
	c0-0.128-0.064-0.256-0.128-0.32c-0.064-0.064-0.192-0.128-0.384-0.128c-1.023-0.064-2.237,0-2.237-1.406
	c0-0.639,0.384-1.342,1.534-1.342h2.11v1.087h-1.918c-0.192,0-0.32,0-0.447,0.064c-0.128,0.064-0.128,0.192-0.128,0.32
	c0,0.192,0.064,0.256,0.256,0.32c0.128,0.064,0.256,0.064,0.384,0.064h0.575c0.575,0,0.959,0.128,1.215,0.384
	c0.064,0,0.064,0.064,0.064,0.064c0.192,0.256,0.256,0.575,0.256,0.895C49.507,20.018,49.379,20.338,49.123,20.594z"/>
<path id="SVGCleanerId_1" style="fill:#228FE0;" d="M35.379,17.589c-0.128-0.064-0.32-0.064-0.511-0.064h-1.279v1.023h1.279
	c0.192,0,0.384,0,0.511-0.064s0.192-0.256,0.192-0.447C35.635,17.781,35.507,17.653,35.379,17.589z"/>
<g>
	<path style="fill:#228FE0;" d="M30.904,9.918c-0.128-0.064-0.32-0.064-0.511-0.064h-1.279v1.023h1.279c0.192,0,0.384,0,0.511-0.064
		c0.128-0.064,0.192-0.256,0.192-0.447C31.16,10.11,31.032,9.982,30.904,9.918z"/>
	<polygon style="fill:#228FE0;" points="38.639,11.452 40.11,11.452 39.406,9.662 	"/>
	<polygon style="fill:#228FE0;" points="27.772,20.658 27.772,17.014 26.11,18.804 	"/>
</g>
<g>
	<path id="SVGCleanerId_0_1_" style="fill:#228FE0;" d="M30.201,17.461h-1.342v1.151h1.406c0.384,0,0.639-0.192,0.639-0.575
		C30.84,17.653,30.584,17.461,30.201,17.461z"/>
</g>
<g>
	<path id="SVGCleanerId_1_1_" style="fill:#228FE0;" d="M35.379,17.589c-0.128-0.064-0.32-0.064-0.511-0.064h-1.279v1.023h1.279
		c0.192,0,0.384,0,0.511-0.064s0.192-0.256,0.192-0.447C35.635,17.781,35.507,17.653,35.379,17.589z"/>
</g>
<g>
	<polygon style="fill:#2FABF7;" points="29.753,20.913 28.858,19.954 28.858,21.041 26.749,21.041 25.47,19.571 24.064,21.041 
		19.845,21.041 19.845,16.566 24.128,16.566 25.47,18.037 26.11,17.269 24.511,15.671 18.886,15.671 18.886,21.936 24.511,21.936 
		25.47,20.977 26.301,21.936 29.753,21.936 	"/>
	<polygon style="fill:#2FABF7;" points="23.105,14.265 22.274,13.37 21.89,13.37 21.89,12.986 20.932,12.027 20.292,13.37 
		19.397,13.37 17.863,9.854 17.863,13.37 15.689,13.37 15.242,12.411 13.068,12.411 12.621,13.37 11.47,13.37 13.388,8.895 
		14.986,8.895 16.776,13.178 16.776,8.895 17.735,8.895 16.84,8 15.881,8 15.881,8.767 15.562,8 12.749,8 11.47,11.005 10,14.265 
		11.47,14.265 13.324,14.265 13.708,13.306 14.603,13.306 15.05,14.265 18.63,14.265 18.63,13.498 18.95,14.265 20.804,14.265 
		21.123,13.498 21.123,14.265 	"/>
	<polygon style="fill:#2FABF7;" points="20.164,11.324 19.142,10.301 19.909,11.963 	"/>
</g>
<g>
	<path style="fill:#228FE0;" d="M49.251,21.616c0.575-0.384,0.959-1.023,1.023-1.726l-0.895-0.895
		c0.064,0.192,0.128,0.384,0.128,0.639c0,0.384-0.128,0.703-0.384,0.959c-0.256,0.256-0.703,0.447-1.342,0.447h-2.046v-0.959h2.046
		c0.192,0,0.32,0,0.447-0.128c0.064-0.064,0.128-0.192,0.128-0.32c0-0.128-0.064-0.256-0.128-0.32
		c-0.064-0.064-0.192-0.128-0.384-0.128c-1.023-0.064-2.237,0-2.237-1.406c0-0.639,0.384-1.215,1.342-1.342l-0.703-0.703
		c-0.128,0.064-0.192,0.128-0.256,0.128v-0.384H43.05c-0.447,0-1.023,0.128-1.279,0.384v-0.384H36.53v0.384
		c-0.384-0.32-1.087-0.384-1.406-0.384h-3.452v0.384c-0.32-0.32-1.087-0.384-1.47-0.384h-3.836l-0.895,0.959l-0.831-0.959h-0.703
		l1.918,1.918l0.959-1.023h3.388c0.831,0,1.79,0.256,1.79,1.47c0,1.279-0.895,1.534-1.854,1.534h-1.279v0.959l0.959,0.959v-0.959
		h0.32c0.447,0,1.023,0,1.47-0.192v1.726h2.877V20.21h0.128c0.192,0,0.192,0,0.192,0.192v1.47h8.694c0.575,0,1.151-0.128,1.47-0.384
		v0.384h2.749C48.228,21.936,48.804,21.872,49.251,21.616L49.251,21.616z M36.53,19.315c0.128,0.192,0.192,0.447,0.192,0.831v0.895
		h-1.087v-0.575c0-0.256,0-0.703-0.192-0.895c-0.128-0.192-0.384-0.192-0.767-0.192h-1.151v1.662h-1.087v-4.539h2.429
		c0.511,0,0.959,0,1.279,0.192c0.32,0.192,0.575,0.511,0.575,1.023c0,0.703-0.447,1.087-0.767,1.215
		C36.274,19.059,36.466,19.187,36.53,19.315z M40.941,17.461h-2.493v0.831h2.429v0.895h-2.429v0.895h2.493v0.959h-3.58v-4.539h3.58
		V17.461z M43.626,21.041H41.58v-0.959h2.046c0.192,0,0.32,0,0.447-0.128c0.064-0.064,0.128-0.192,0.128-0.32
		c0-0.128-0.064-0.256-0.128-0.32c-0.064-0.064-0.192-0.128-0.384-0.128c-1.023-0.064-2.237,0-2.237-1.406
		c0-0.639,0.384-1.342,1.534-1.342h2.11v1.087h-1.982c-0.192,0-0.32,0-0.447,0.064c-0.128,0.064-0.128,0.192-0.128,0.32
		c0,0.192,0.128,0.256,0.256,0.32c0.128,0.064,0.256,0.064,0.384,0.064h0.575c0.575,0,0.959,0.128,1.215,0.384
		c0.192,0.192,0.32,0.511,0.32,0.959C45.288,20.594,44.712,21.041,43.626,21.041z"/>
	<path style="fill:#228FE0;" d="M46.694,17.909c0,0.192,0.064,0.256,0.256,0.32c0.128,0.064,0.256,0.064,0.384,0.064h0.575
		c0.384,0,0.639,0.064,0.895,0.192l-0.959-0.959h-0.575c-0.192,0-0.32,0-0.447,0.064C46.758,17.653,46.694,17.781,46.694,17.909z"/>
	<polygon style="fill:#228FE0;" points="44.457,14.073 44.584,14.265 44.648,14.265 	"/>
	<polygon style="fill:#228FE0;" points="40.941,10.557 42.027,13.178 42.027,11.644 	"/>
	<path style="fill:#228FE0;" d="M30.009,12.667h0.128c0.128,0,0.128,0,0.128,0.192v1.406h4.603v-0.384
		c0.384,0.192,0.959,0.384,1.726,0.384h1.918l0.384-1.023h0.895l0.384,1.023h3.708v-0.639l-0.895-0.895v0.703h-2.174l-0.32-1.023
		h-2.237l-0.384,1.023h-1.215c-0.511,0-1.151-0.128-1.534-0.511c-0.384-0.384-0.575-0.895-0.575-1.726
		c0-0.639,0.128-1.279,0.575-1.79c0.32-0.384,0.895-0.511,1.598-0.511h1.023v0.959h-1.023c-0.384,0-0.575,0.064-0.831,0.256
		c-0.192,0.192-0.32,0.575-0.32,1.023c0,0.511,0.064,0.831,0.32,1.087c0.192,0.192,0.447,0.256,0.767,0.256h0.447l1.47-3.516h0.639
		L38.32,8.064h-1.662c-0.703,0-1.279,0.128-1.79,0.384V8.064h-2.813v0.384c-0.32-0.256-0.703-0.384-1.215-0.384H20.548l-0.703,1.598
		l-0.703-1.598h-2.813l0.895,0.895h1.279l1.087,2.365l0.384,0.384l1.151-2.813h1.79v4.539h-1.087V9.918l-1.087,2.557l1.854,1.854
		h7.352L30.009,12.667z M32.95,8.895h1.087v4.539H32.95V8.895z M27.324,9.854h-2.493v0.831h2.429v0.895h-2.429v0.895h2.493v0.959
		h-3.58V8.895h3.58V9.854z M29.114,13.37h-1.087V8.831h2.429c0.575,0,0.959,0,1.279,0.192c0.32,0.192,0.511,0.511,0.511,1.023
		c0,0.703-0.447,1.087-0.767,1.215c0.256,0.064,0.447,0.256,0.511,0.384c0.128,0.256,0.192,0.447,0.192,0.831v0.895h-1.087v-0.575
		c0-0.256,0-0.639-0.192-0.895c-0.064-0.128-0.256-0.128-0.639-0.128h-1.151L29.114,13.37L29.114,13.37z"/>
</g>
<g>
</g>
<g>
</g>
<g>
</g>
<g>
</g>
<g>
</g>
<g>
</g>
<g>
</g>
<g>
</g>
<g>
</g>
<g>
</g>
<g>
</g>
</svg>
