<?xml version="1.0" encoding="utf-8"?>
<!-- Generator: Adobe Illustrator 22.1.0, SVG Export Plug-In . SVG Version: 6.00 Build 0)  -->
<svg version="1.1" id="Слой_1" xmlns="http://www.w3.org/2000/svg" xmlns:xlink="http://www.w3.org/1999/xlink" x="0px" y="0px"
	 viewBox="0 0 13.1 19.7" style="enable-background:new 0 0 13.1 19.7;" xml:space="preserve">
<style type="text/css">
	.st0{fill:#FFFFFF;}
</style>
<g>
	<path class="st0" d="M6.6,0C2.9,0,0,2.9,0,6.6v6.6c0,3.6,2.9,6.6,6.6,6.6s6.6-2.9,6.6-6.6V6.6C13.1,2.9,10.2,0,6.6,0L6.6,0z
		 M12.4,13.1c0,3.2-2.6,5.8-5.8,5.8s-5.8-2.6-5.8-5.8V6.6c0-3.2,2.6-5.8,5.8-5.8c3.2,0,5.8,2.6,5.8,5.8V13.1z"/>
	<path class="st0" d="M6.6,2.2c-0.2,0-0.4,0.2-0.4,0.4v3.3c0,0.2,0.2,0.4,0.4,0.4S6.9,6,6.9,5.8V2.6C6.9,2.4,6.8,2.2,6.6,2.2
		L6.6,2.2z"/>
</g>
</svg>
