<?xml version="1.0" encoding="UTF-8"?>
<svg width="512pt" height="512pt" viewBox="0 -20 512.004 512" xmlns="http://www.w3.org/2000/svg">
<path style="fill: white" d="m256 472c-105.91 0-198.3-71.539-224.69-173.98-1.1016-4.2734 1.4805-8.6406 5.7617-9.7461 4.2383-1.0703 8.6406 1.4805 9.7422 5.7617 24.555 95.359 110.58 161.96 209.19 161.96 119.1 0 216-96.898 216-216 0-4.4258 3.5742-8 8-8 4.4219 0 8 3.5742 8 8 0 127.92-104.08 232-232 232z"/>
<path style="fill: white" d="m32.004 240c-4.4258 0-8-3.5781-8-8 0-127.92 104.08-232 232-232 105.91 0 198.3 71.535 224.69 173.97 1.1016 4.2734-1.4805 8.6406-5.7617 9.7461-4.2148 1.1133-8.6328-1.4805-9.7422-5.7617-24.555-95.359-110.58-161.96-209.18-161.96-119.11 0-216 96.895-216 216 0 4.4219-3.5781 8-8 8z"/>
<path style="fill: white" d="m32.004 240c-2.0508 0-4.0977-0.78516-5.6562-2.3477l-24-24c-3.1289-3.125-3.1289-8.1836 0-11.309 3.125-3.1289 8.1836-3.1289 11.309 0l24 24c3.1289 3.125 3.1289 8.1836 0 11.309-1.5586 1.5625-3.6055 2.3477-5.6523 2.3477z"/>
<path style="fill: white" d="m32.004 240c-2.0508 0-4.0977-0.78516-5.6562-2.3477-3.1289-3.125-3.1289-8.1836 0-11.309l24-24c3.125-3.1289 8.1836-3.1289 11.309 0 3.1289 3.125 3.1289 8.1836 0 11.309l-24 24c-1.5586 1.5625-3.6055 2.3477-5.6523 2.3477z"/>
<path style="fill: white" d="m504 264c-2.0508 0-4.0977-0.78516-5.6562-2.3477l-24-24c-3.1289-3.125-3.1289-8.1836 0-11.309 3.125-3.1289 8.1836-3.1289 11.309 0l24 24c3.1289 3.125 3.1289 8.1836 0 11.309-1.5586 1.5625-3.6055 2.3477-5.6523 2.3477z"/>
<path style="fill: white" d="m456 264c-2.0508 0-4.0977-0.78516-5.6562-2.3477-3.1289-3.125-3.1289-8.1836 0-11.309l24-24c3.125-3.1289 8.1836-3.1289 11.309 0 3.1289 3.125 3.1289 8.1836 0 11.309l-24 24c-1.5586 1.5625-3.6055 2.3477-5.6523 2.3477z"/>
<path style="fill: white" d="m111.98 419.56c-4.4219 0-8-3.5781-8-8v-203.64c0-4.4258 3.5781-8 8-8 4.4258 0 8 3.5742 8 8v203.64c0 4.4219-3.5742 8-8 8z"/>
<path style="fill: white" d="m400.02 419.58c-4.4258 0-8-3.5742-8-8v-203.66c0-4.4258 3.5742-8 8-8 4.4219 0 8 3.5742 8 8v203.66c0 4.4258-3.5781 8-8 8z"/>
<path style="fill: white" d="m400.02 215.92h-288.04c-4.4219 0-8-3.5742-8-8s3.5781-8 8-8h288.04c4.4219 0 8 3.5742 8 8s-3.5781 8-8 8z"/>
<path style="fill: white" d="m111.98 215.92c-1.3984 0-2.8242-0.36719-4.1094-1.1445-3.793-2.2695-5.0156-7.1836-2.7461-10.977l24-40.016c2.2656-3.7812 7.1758-5.0156 10.977-2.7422 3.793 2.2695 5.0156 7.1836 2.7461 10.977l-24 40.016c-1.4961 2.5039-4.1445 3.8867-6.8672 3.8867z"/>
<path style="fill: white" d="m400.03 215.92c-2.7227 0-5.3711-1.3828-6.8672-3.8789l-24-40.016c-2.2695-3.793-1.0469-8.707 2.7461-10.977 3.793-2.2734 8.7031-1.0391 10.977 2.7422l24 40.016c2.2695 3.793 1.0469 8.707-2.7461 10.977-1.293 0.76953-2.7109 1.1367-4.1094 1.1367z"/>
<path style="fill: white" d="m376.02 175.91h-240.04c-4.4219 0-8-3.5781-8-8 0-4.4258 3.5781-8 8-8h240.04c4.4219 0 8 3.5742 8 8 0 4.4219-3.5781 8-8 8z"/>
<path style="fill: white" d="m223.99 215.92c-0.51172 0-1.0469-0.046875-1.5742-0.16016-4.3281-0.86328-7.1445-5.0781-6.2734-9.4141l8-40.02c0.85938-4.3242 5.0352-7.1758 9.418-6.2695 4.3281 0.86328 7.1445 5.0781 6.2734 9.4141l-8 40.016c-0.76172 3.8086-4.1055 6.4336-7.8438 6.4336z"/>
<path style="fill: white" d="m287.99 215.92c-3.7344 0-7.0781-2.625-7.832-6.4336l-8-40.016c-0.86328-4.3359 1.9453-8.543 6.2734-9.4141 4.3906-0.89844 8.5508 1.9453 9.418 6.2695l8 40.02c0.86328 4.3359-1.9453 8.543-6.2734 9.4141-0.53516 0.11328-1.0703 0.16016-1.5859 0.16016z"/>
<path style="fill: white" d="m223.98 263.92c-4.4219 0-8-3.5742-8-8v-48c0-4.4258 3.5781-8 8-8 4.4258 0 8 3.5742 8 8v48c0 4.4258-3.5742 8-8 8z"/>
<path style="fill: white" d="m288 263.92c-4.4258 0-8-3.5742-8-8v-48c0-4.4258 3.5742-8 8-8 4.4219 0 8 3.5742 8 8v48c0 4.4258-3.5781 8-8 8z"/>
<path style="fill: white" d="m288.01 263.92c-0.64062 0-1.2969-0.078125-1.9453-0.23828l-32-8c-4.2891-1.0742-6.8945-5.418-5.8242-9.6992 1.0625-4.293 5.3984-6.9102 9.6953-5.8242l32 8c4.2891 1.0742 6.8984 5.418 5.8242 9.6992-0.91016 3.6484-4.168 6.0625-7.75 6.0625z"/>
<path style="fill: white" d="m223.98 263.92c-3.582 0-6.8398-2.4258-7.75-6.0625-1.082-4.2812 1.5273-8.625 5.8242-9.6992l32.016-8c4.2734-1.0938 8.625 1.5312 9.6953 5.8242 1.082 4.2812-1.5273 8.625-5.8242 9.6992l-32.016 8c-0.64844 0.16016-1.3047 0.23828-1.9453 0.23828z"/>
<path style="fill: white" d="m328.04 359.94h-144.07c-4.4219 0-8-3.5742-8-8 0-4.4219 3.5781-8 8-8h144.07c4.4219 0 8 3.5781 8 8 0 4.4258-3.5781 8-8 8z"/>
<path style="fill: white" d="m328.04 328h-144.07c-4.4219 0-8-3.5781-8-8 0-4.4258 3.5781-8 8-8h144.07c4.4219 0 8 3.5742 8 8 0 4.4219-3.5781 8-8 8z"/>
<path style="fill: white" d="m288.02 391.95h-64.035c-4.4219 0-8-3.5742-8-8 0-4.4219 3.5781-8 8-8h64.035c4.4219 0 8 3.5781 8 8 0 4.4258-3.5781 8-8 8z"/>
</svg>
