<?xml version="1.0" encoding="UTF-8" ?>
<!DOCTYPE svg PUBLIC "-//W3C//DTD SVG 1.1//EN" "http://www.w3.org/Graphics/SVG/1.1/DTD/svg11.dtd">
<svg width="651pt" height="617pt" viewBox="0 0 651 617" version="1.1" xmlns="http://www.w3.org/2000/svg">
<g id="#ffffffff">
</g>
<g id="#efce4aff">
<path fill="#efce4a" opacity="1.00" d=" M 324.32 0.00 L 326.38 0.00 C 339.69 25.99 352.45 52.28 365.57 78.37 C 367.41 81.96 368.74 85.80 370.66 89.35 C 381.80 111.55 392.80 133.82 403.90 156.03 C 409.00 167.70 415.10 178.89 420.65 190.34 C 422.77 194.24 424.21 198.54 427.05 202.00 C 428.92 201.90 430.80 202.02 432.63 202.46 C 505.43 212.95 578.25 223.39 651.00 234.14 L 651.00 234.45 C 645.43 240.06 639.77 245.60 634.10 251.11 C 629.05 255.01 624.82 259.79 620.27 264.23 C 611.64 272.92 602.88 281.51 594.16 290.12 C 584.73 298.02 576.56 307.27 567.70 315.78 C 561.24 321.97 555.19 328.60 548.24 334.25 C 537.27 345.25 526.28 356.24 515.18 367.13 C 512.91 369.57 510.28 371.61 507.76 373.77 C 501.43 379.91 495.38 386.34 488.97 392.38 C 488.84 394.65 489.10 396.92 489.60 399.14 C 501.25 467.48 512.97 535.82 524.65 604.15 C 525.46 608.44 525.85 612.85 527.26 617.00 L 526.80 617.00 C 516.29 611.62 506.01 605.83 495.42 600.59 C 487.83 596.00 479.58 592.65 471.99 588.05 C 466.94 585.35 461.74 582.95 456.71 580.22 C 448.47 575.27 439.51 571.67 431.30 566.67 C 413.38 557.72 395.91 547.93 378.01 538.94 C 360.63 529.48 342.94 520.63 325.54 511.21 C 278.31 536.12 231.07 561.02 183.75 585.78 C 176.53 590.02 168.76 593.23 161.60 597.58 C 149.06 603.83 136.80 610.61 124.33 617.00 L 123.77 617.00 C 124.00 616.66 124.47 615.99 124.71 615.65 C 132.01 571.13 139.94 526.70 147.37 482.20 C 152.63 452.54 157.39 422.78 162.82 393.16 C 154.07 384.61 145.42 375.95 136.80 367.26 C 123.50 355.60 111.35 342.67 98.77 330.23 C 84.41 317.65 71.43 303.54 57.69 290.28 C 56.27 289.04 54.75 287.92 53.37 286.64 C 42.42 275.94 31.58 265.11 20.77 254.26 C 13.37 248.22 6.95 241.11 0.00 234.56 L 0.00 234.20 C 73.01 223.32 146.13 213.09 219.16 202.31 C 220.74 201.92 222.38 201.95 224.00 201.98 C 226.92 198.27 228.46 193.75 230.70 189.64 C 237.44 175.75 244.82 162.15 251.10 148.04 C 263.19 123.82 275.17 99.55 287.33 75.36 C 299.10 49.98 312.27 25.25 324.32 0.00 Z" />
</g>
</svg>
