<svg xmlns="http://www.w3.org/2000/svg" viewBox="0 0 512.001 335.449"><path d="M503.172 335.449H8.828A8.829 8.829 0 0 1 0 326.621V8.828A8.829 8.829 0 0 1 8.828 0h494.345a8.829 8.829 0 0 1 8.828 8.828v317.793a8.83 8.83 0 0 1-8.829 8.828z" fill="#41479b"/><path d="M259.59 38.41l3.54 10.613 11.187.087c1.449.011 2.049 1.859.884 2.72l-9 6.646 3.374 10.666c.437 1.38-1.135 2.524-2.314 1.681l-9.101-6.506-9.101 6.506c-1.178.842-2.751-.3-2.314-1.681l3.374-10.666-9-6.646c-1.165-.861-.565-2.709.884-2.72l11.187-.087 3.54-10.613c.457-1.374 2.402-1.374 2.86 0zm0 227.862l3.54 10.613 11.187.087c1.449.011 2.049 1.859.884 2.72l-9 6.646 3.374 10.666c.437 1.38-1.135 2.524-2.314 1.681l-9.101-6.506-9.101 6.506c-1.178.842-2.751-.3-2.314-1.681l3.374-10.666-9-6.646c-1.165-.861-.565-2.709.884-2.72l11.187-.087 3.54-10.613c.457-1.374 2.402-1.374 2.86 0zm113.931-113.931l3.54 10.613 11.187.087c1.449.011 2.049 1.859.884 2.72l-9 6.646 3.374 10.666c.437 1.38-1.135 2.524-2.314 1.681l-9.101-6.506-9.101 6.506c-1.178.842-2.751-.3-2.314-1.681l3.374-10.666-9-6.646c-1.165-.861-.565-2.709.884-2.72l11.187-.087 3.54-10.613c.457-1.374 2.402-1.374 2.86 0zm-227.863 0l3.54 10.613 11.187.087c1.449.011 2.049 1.859.884 2.72l-9 6.646 3.374 10.666c.437 1.38-1.135 2.524-2.314 1.681l-9.101-6.506-9.101 6.506c-1.178.842-2.751-.3-2.314-1.681l3.374-10.666-9-6.646c-1.165-.861-.565-2.709.884-2.72l11.187-.087 3.54-10.613c.458-1.374 2.403-1.374 2.86 0zm17.104-59.496l3.54 10.613 11.187.087c1.449.011 2.049 1.859.884 2.72l-9 6.646 3.374 10.666c.437 1.38-1.135 2.524-2.314 1.681l-9.101-6.506-9.101 6.506c-1.178.842-2.751-.3-2.314-1.681l3.374-10.666-9-6.646c-1.165-.861-.565-2.709.884-2.72l11.187-.087 3.54-10.613c.458-1.374 2.401-1.374 2.86 0zm197.334 113.931l3.54 10.613 11.187.087c1.449.011 2.049 1.859.884 2.72l-9 6.646 3.374 10.666c.437 1.38-1.135 2.524-2.314 1.681l-9.101-6.506-9.101 6.506c-1.178.842-2.751-.3-2.314-1.681l3.374-10.666-9-6.646c-1.165-.861-.565-2.709.884-2.72l11.187-.087 3.54-10.613c.458-1.374 2.402-1.374 2.86 0zM318.395 51.143l3.54 10.613 11.187.087c1.449.011 2.049 1.859.884 2.72l-9 6.646 3.374 10.666c.437 1.38-1.135 2.524-2.314 1.681l-9.101-6.506-9.101 6.506c-1.178.842-2.751-.3-2.314-1.681l3.374-10.666-9-6.646c-1.165-.861-.565-2.709.884-2.72l11.187-.087 3.54-10.613c.457-1.374 2.4-1.374 2.86 0zM204.463 248.478l3.54 10.613 11.187.087c1.449.011 2.049 1.859.884 2.72l-9 6.646 3.374 10.666c.437 1.38-1.135 2.524-2.314 1.681l-9.101-6.506-9.101 6.506c-1.178.842-2.751-.3-2.314-1.681l3.374-10.666-9-6.646c-1.165-.861-.565-2.709.884-2.72l11.187-.087 3.54-10.613c.458-1.374 2.401-1.374 2.86 0zM357.236 92.845l-3.54 10.613-11.187.087c-1.449.011-2.049 1.859-.884 2.72l9 6.646-3.374 10.666c-.437 1.38 1.135 2.524 2.314 1.681l9.101-6.506 9.101 6.506c1.178.842 2.751-.3 2.314-1.681l-3.374-10.666 9-6.646c1.165-.861.565-2.709-.884-2.72l-11.187-.087-3.54-10.613c-.458-1.374-2.402-1.374-2.86 0zM159.902 206.776l-3.54 10.613-11.187.087c-1.449.011-2.049 1.859-.884 2.72l9 6.646-3.374 10.666c-.437 1.38 1.135 2.524 2.314 1.681l9.101-6.506 9.101 6.506c1.178.842 2.751-.3 2.314-1.681l-3.374-10.666 9-6.646c1.165-.861.565-2.709-.884-2.72l-11.187-.087-3.54-10.613c-.459-1.374-2.402-1.374-2.86 0zm41.701-155.633l-3.54 10.613-11.187.087c-1.449.011-2.049 1.859-.884 2.72l9 6.646-3.374 10.666c-.437 1.38 1.135 2.524 2.314 1.681l9.101-6.506 9.101 6.506c1.178.842 2.751-.3 2.314-1.681l-3.374-10.666 9-6.646c1.165-.861.565-2.709-.884-2.72l-11.187-.087-3.54-10.613c-.459-1.374-2.402-1.374-2.86 0zm113.931 197.335l-3.54 10.613-11.187.087c-1.449.011-2.049 1.859-.884 2.72l9 6.646-3.374 10.666c-.437 1.38 1.135 2.524 2.314 1.681l9.101-6.506 9.101 6.506c1.178.842 2.751-.3 2.314-1.681l-3.374-10.666 9-6.646c1.165-.861.565-2.709-.884-2.72l-11.187-.087-3.54-10.613c-.459-1.374-2.402-1.374-2.86 0z" fill="#ffe15a"/></svg>