<svg xmlns="http://www.w3.org/2000/svg" xmlns:xlink="http://www.w3.org/1999/xlink" viewBox="0 0 476 400"><defs><path id="a" d="M56 33h367.92v334H56z"/></defs><clipPath id="b"><use xlink:href="#a" overflow="visible"/></clipPath><path d="M69.602 60.2h38.984l55.535 200.828c1.586 5.894 7.024 9.972 13.145 9.972h170.679c5.442 0 10.2-3.171 12.469-8.16l62.106-142.801c1.812-4.304 1.359-9.066-1.133-12.918-2.496-3.855-6.801-6.121-11.336-6.121l-274.884-.333c-7.477 0 6.667 7.352 6.667 14.833 0 7.477-10.977 12.833-3.5 12.833L389.2 128.2l-50.32 115.601H187.465L131.934 42.973C130.348 37.079 124.906 33 118.789 33H69.602C62.121 33 56 39.121 56 46.602 56 54.079 62.121 60.2 69.602 60.2zm0 0" clip-path="url(#b)" fill="#fff"/><path d="M164.348 366.653c17 0 30.824-13.824 30.824-30.824S181.348 305 164.348 305s-30.828 13.829-30.828 30.829 13.828 30.824 30.828 30.824zm192.664 0h2.269c8.16-.68 15.641-4.305 21.078-10.653 5.442-6.121 7.934-14.054 7.481-22.441-1.133-16.773-15.867-29.691-32.867-28.559-17 1.133-29.692 16.094-28.559 32.868 1.133 16.093 14.508 28.785 30.598 28.785zm0 0" fill="#fff"/></svg>