<svg xmlns="http://www.w3.org/2000/svg" xmlns:xlink="http://www.w3.org/1999/xlink" viewBox="0 0 426 400"><defs><path id="a" d="M20 14h389.76v373.92H20z"/></defs><clipPath id="b"><use xlink:href="#a" overflow="visible"/></clipPath><path d="M409.242 155.441c-1.277-3.922-4.64-6.719-8.719-7.36L278.922 130.8l-54.719-110c-1.84-3.68-5.601-6-9.68-6-4.082 0-7.839 2.32-9.679 6.078l-54 110.32L29.242 149.28c-4.078.641-7.437 3.442-8.719 7.36a10.677 10.677 0 0 0 2.801 11.039l88.238 85.519L91.164 374.32a10.652 10.652 0 0 0 4.32 10.558 10.658 10.658 0 0 0 6.321 2.082c1.757 0 3.437-.398 5.039-1.281l108.558-57.52 108.879 56.879c1.602.801 3.281 1.203 4.961 1.203 5.922 0 10.801-4.882 10.801-10.8 0-.879-.078-1.68-.32-2.481l-21.039-120.398 87.679-86c3.121-2.883 4.16-7.203 2.879-11.121zM299.645 241.12c-2.563 2.481-3.68 6.078-3.043 9.602l18.32 105.039-94.559-49.359c-3.121-1.68-6.879-1.602-10.082 0l-94.238 49.918 17.68-105.2c.558-3.519-.559-7.039-3.121-9.519l-76.477-74.242 105.52-15.68c3.519-.559 6.558-2.719 8.078-5.918l46.879-95.762 47.523 95.52c1.598 3.203 4.637 5.359 8.156 5.922l105.602 15.039-76.238 74.64zm0 0" clip-path="url(#b)" fill="#fff"/></svg>