<?xml version="1.0" encoding="iso-8859-1"?>
<!-- Generator: Adobe Illustrator 22.1.0, SVG Export Plug-In . SVG Version: 6.00 Build 0)  -->
<svg version="1.1" id="Layer_1" xmlns="http://www.w3.org/2000/svg" xmlns:xlink="http://www.w3.org/1999/xlink" x="0px" y="0px"
	 viewBox="0 0 512.001 335.449" style="enable-background:new 0 0 512.001 335.449;" xml:space="preserve">
<path style="fill:#41479B;" d="M503.172,335.449H8.828c-4.875,0-8.828-3.953-8.828-8.828V8.828C0,3.953,3.953,0,8.828,0h494.345
	c4.875,0,8.828,3.953,8.828,8.828v317.793C512,331.497,508.047,335.449,503.172,335.449z"/>
<g>
	<path style="fill:#FFE15A;" d="M259.59,38.41l3.54,10.613l11.187,0.087c1.449,0.011,2.049,1.859,0.884,2.72l-9,6.646l3.374,10.666
		c0.437,1.38-1.135,2.524-2.314,1.681l-9.101-6.506l-9.101,6.506c-1.178,0.842-2.751-0.3-2.314-1.681l3.374-10.666l-9-6.646
		c-1.165-0.861-0.565-2.709,0.884-2.72l11.187-0.087l3.54-10.613C257.187,37.036,259.132,37.036,259.59,38.41z"/>
	<path style="fill:#FFE15A;" d="M259.59,266.272l3.54,10.613l11.187,0.087c1.449,0.011,2.049,1.859,0.884,2.72l-9,6.646
		l3.374,10.666c0.437,1.38-1.135,2.524-2.314,1.681l-9.101-6.506l-9.101,6.506c-1.178,0.842-2.751-0.3-2.314-1.681l3.374-10.666
		l-9-6.646c-1.165-0.861-0.565-2.709,0.884-2.72l11.187-0.087l3.54-10.613C257.187,264.898,259.132,264.898,259.59,266.272z"/>
	<path style="fill:#FFE15A;" d="M373.521,152.341l3.54,10.613l11.187,0.087c1.449,0.011,2.049,1.859,0.884,2.72l-9,6.646
		l3.374,10.666c0.437,1.38-1.135,2.524-2.314,1.681l-9.101-6.506l-9.101,6.506c-1.178,0.842-2.751-0.3-2.314-1.681l3.374-10.666
		l-9-6.646c-1.165-0.861-0.565-2.709,0.884-2.72l11.187-0.087l3.54-10.613C371.118,150.967,373.063,150.967,373.521,152.341z"/>
	<path style="fill:#FFE15A;" d="M145.658,152.341l3.54,10.613l11.187,0.087c1.449,0.011,2.049,1.859,0.884,2.72l-9,6.646
		l3.374,10.666c0.437,1.38-1.135,2.524-2.314,1.681l-9.101-6.506l-9.101,6.506c-1.178,0.842-2.751-0.3-2.314-1.681l3.374-10.666
		l-9-6.646c-1.165-0.861-0.565-2.709,0.884-2.72l11.187-0.087l3.54-10.613C143.256,150.967,145.201,150.967,145.658,152.341z"/>
	<path style="fill:#FFE15A;" d="M162.762,92.845l3.54,10.613l11.187,0.087c1.449,0.011,2.049,1.859,0.884,2.72l-9,6.646
		l3.374,10.666c0.437,1.38-1.135,2.524-2.314,1.681l-9.101-6.506l-9.101,6.506c-1.178,0.842-2.751-0.3-2.314-1.681l3.374-10.666
		l-9-6.646c-1.165-0.861-0.565-2.709,0.884-2.72l11.187-0.087l3.54-10.613C160.36,91.471,162.303,91.471,162.762,92.845z"/>
	<path style="fill:#FFE15A;" d="M360.096,206.776l3.54,10.613l11.187,0.087c1.449,0.011,2.049,1.859,0.884,2.72l-9,6.646
		l3.374,10.666c0.437,1.38-1.135,2.524-2.314,1.681l-9.101-6.506l-9.101,6.506c-1.178,0.842-2.751-0.3-2.314-1.681l3.374-10.666
		l-9-6.646c-1.165-0.861-0.565-2.709,0.884-2.72l11.187-0.087l3.54-10.613C357.694,205.402,359.638,205.402,360.096,206.776z"/>
	<path style="fill:#FFE15A;" d="M318.395,51.143l3.54,10.613l11.187,0.087c1.449,0.011,2.049,1.859,0.884,2.72l-9,6.646
		l3.374,10.666c0.437,1.38-1.135,2.524-2.314,1.681l-9.101-6.506l-9.101,6.506c-1.178,0.842-2.751-0.3-2.314-1.681l3.374-10.666
		l-9-6.646c-1.165-0.861-0.565-2.709,0.884-2.72l11.187-0.087l3.54-10.613C315.992,49.769,317.935,49.769,318.395,51.143z"/>
	<path style="fill:#FFE15A;" d="M204.463,248.478l3.54,10.613l11.187,0.087c1.449,0.011,2.049,1.859,0.884,2.72l-9,6.646
		l3.374,10.666c0.437,1.38-1.135,2.524-2.314,1.681l-9.101-6.506l-9.101,6.506c-1.178,0.842-2.751-0.3-2.314-1.681l3.374-10.666
		l-9-6.646c-1.165-0.861-0.565-2.709,0.884-2.72l11.187-0.087l3.54-10.613C202.061,247.104,204.004,247.104,204.463,248.478z"/>
	<path style="fill:#FFE15A;" d="M357.236,92.845l-3.54,10.613l-11.187,0.087c-1.449,0.011-2.049,1.859-0.884,2.72l9,6.646
		l-3.374,10.666c-0.437,1.38,1.135,2.524,2.314,1.681l9.101-6.506l9.101,6.506c1.178,0.842,2.751-0.3,2.314-1.681l-3.374-10.666
		l9-6.646c1.165-0.861,0.565-2.709-0.884-2.72l-11.187-0.087l-3.54-10.613C359.638,91.471,357.694,91.471,357.236,92.845z"/>
	<path style="fill:#FFE15A;" d="M159.902,206.776l-3.54,10.613l-11.187,0.087c-1.449,0.011-2.049,1.859-0.884,2.72l9,6.646
		l-3.374,10.666c-0.437,1.38,1.135,2.524,2.314,1.681l9.101-6.506l9.101,6.506c1.178,0.842,2.751-0.3,2.314-1.681l-3.374-10.666
		l9-6.646c1.165-0.861,0.565-2.709-0.884-2.72l-11.187-0.087l-3.54-10.613C162.303,205.402,160.36,205.402,159.902,206.776z"/>
	<path style="fill:#FFE15A;" d="M201.603,51.143l-3.54,10.613l-11.187,0.087c-1.449,0.011-2.049,1.859-0.884,2.72l9,6.646
		l-3.374,10.666c-0.437,1.38,1.135,2.524,2.314,1.681l9.101-6.506l9.101,6.506c1.178,0.842,2.751-0.3,2.314-1.681l-3.374-10.666
		l9-6.646c1.165-0.861,0.565-2.709-0.884-2.72l-11.187-0.087l-3.54-10.613C204.004,49.769,202.061,49.769,201.603,51.143z"/>
	<path style="fill:#FFE15A;" d="M315.534,248.478l-3.54,10.613l-11.187,0.087c-1.449,0.011-2.049,1.859-0.884,2.72l9,6.646
		l-3.374,10.666c-0.437,1.38,1.135,2.524,2.314,1.681l9.101-6.506l9.101,6.506c1.178,0.842,2.751-0.3,2.314-1.681l-3.374-10.666
		l9-6.646c1.165-0.861,0.565-2.709-0.884-2.72l-11.187-0.087l-3.54-10.613C317.935,247.104,315.992,247.104,315.534,248.478z"/>
</g>
</svg>
