<svg xmlns="http://www.w3.org/2000/svg" viewBox="0 0 2279.59 1353.387"><g fill="#fff"><path d="M1604.736 4.013c-161.694 0-308.823 56.587-425.019 151.435 88.635 85.574 156.299 192.718 192.601 313.829h-56.055c-35.135-107.675-96.845-202.678-177.063-278.915a674.819 674.819 0 0 0-175.909 278.591h-56.068a728.075 728.075 0 0 1 190.604-313.038C981.915 62.04 835.486 4 674.7 4 302.092 4 0 306.079 0 678.7c0 372.608 302.079 674.687 674.7 674.687 160.773 0 307.215-58.04 423.126-151.915-87.948-85.315-154.457-192.601-190.604-313.025h56.068a674.895 674.895 0 0 0 175.909 278.591c80.231-76.249 141.928-171.24 177.063-278.928h56.055c-36.302 121.112-103.966 228.268-192.601 313.829 116.196 94.835 263.325 151.435 425.019 151.435 372.608.013 674.687-302.066 674.687-674.661.001-372.621-302.078-674.7-674.686-674.7zM376.045 836.957h-70.504l40.038-212.341-94.874 212.341H186.31l-18.287-217.568-41.776 217.568h-67.87l58.312-301.119h108.777l13.061 182.77 82.695-182.77h111.384l-56.561 301.119zm168.828 0l-8.703-13.929c-12.192 8.716-21.763 13.073-56.574 14.824-34.811 1.725-79.18-24.37-71.347-75.743 19.13-104.42 140.968-85.263 158.374-87.014 7.834-37.418-18.261-33.942-41.776-34.811-23.488-.856-67.871 6.109-84.42 7.834l10.441-53.954c44.408-8.716 67.897-7.834 88.778-8.716 113.991 0 102.695 81.813 95.73 115.755l-26.99 135.755h-63.513zm275.893-70.49c-11.297 74.862-92.241 70.504-108.764 70.504-23.527 0-48.74 0-80.075-8.716l9.572-51.347c33.942 11.323 79.18 6.109 89.634 6.109 22.775 0 25.94-28.806 8.716-37.418-13.93-6.965-28.728-17.405-54.849-28.728-16.186-7.017-33.073-26.095-23.501-72.229 12.49-60.18 93.979-59.181 103.564-59.181s34.811-2.62 67.015 9.559l-15.654 50.491c-19.169-5.227-51.36-5.227-67.015-3.476-25.239 6.965-14.799 30.453-.869 36.536 13.917 6.109 35.68 18.287 48.727 27.003 13.058 7.794 29.024 24.396 23.499 60.893zm117.467 59.181c-14.798 9.572-34.811 12.204-50.491 12.204-15.654 0-67.015-9.598-53.941-77.468l47.002-236.724h67.884l-13.929 66.146h36.536l-12.166 53.954h-34.811L905.16 744.703c-3.489 19.156-1.738 36.575 37.431 30.479l-4.358 50.466zm236.737-100.075h-147.946c-7.821 56.574 35.693 54.823 62.657 54.823 26.99 0 66.172-3.502 76.612-6.083l-10.441 51.321c-16.549 8.716-58.325 12.205-87.053 11.323-117.48 0-115.742-110.515-113.135-126.196 2.607-15.655 16.523-124.432 126.196-124.432 119.231 0 100.943 99.193 93.11 139.244zm375.967-120.113c-17.431-10.453-29.584-12.179-52.229-12.179-22.619 0-73.111 21.621-82.656 82.682-11.323 72.229 38.274 107.895 107.908 84.42l20.012 60.919c-22.619 10.441-45.264 15.655-82.682 15.655-70.504 0-147.077-62.644-112.266-189.722 25.667-93.629 106.196-127.921 153.186-126.183 55.679 2.075 75.718 20.881 93.123 40.038l-44.396 44.37zm142.745 231.497l-8.716-13.929c-12.205 8.716-21.75 13.073-56.587 14.824-34.811 1.725-79.18-24.37-71.334-75.743 19.13-104.42 140.968-85.263 158.374-87.014 7.847-37.418-18.274-33.942-41.776-34.811-23.514-.856-67.871 6.109-84.433 7.834l10.467-53.954c44.383-8.716 67.884-7.834 88.752-8.716 114.017 0 102.72 81.813 95.756 115.755l-27.003 135.755h-63.5zm179.567-114.484l-21.102 114.277h-68.584l46.587-249.642h58.896l6.161 24.604c10.557-12.321 30.777-24.604 65.057-24.604l-18.443 65.031c-16.719-.001-48.365-4.372-68.572 70.334zm213.794 114.497l-8.742-20.012c-13.903 9.572-36.523 19.156-59.168 20.012-48.714 0-93.447-68.856-71.334-144.47 33.06-113.135 91.372-106.17 128.79-106.17 32.23 0 40.025 20.012 53.098 29.571l18.248-95.704h71.385l-59.194 316.774h-73.083z"/><path d="M1031.369 680.321h84.42c4.358-24.37-3.476-45.264-30.453-45.264-26.99 0-46.133 13.929-53.967 45.264zm-476.043 45.252c-11.323-1.777-36.562-8.716-58.325 6.083-21.763 14.799-27.846 40.881-5.214 49.622 21.776 8.365 53.928-6.083 58.312-28.754l5.227-26.951zm1549.991-7.847c6.965-22.619 3.165-50.867-4.358-60.893-20.868-27.846-68.895-5.836-83.538 48.74-9.572 35.667 11.323 62.644 34.811 62.644 25.252-.012 40.907-20.025 53.085-50.491zm-401.194 7.847c-11.323-1.777-36.549-8.716-58.312 6.083-21.763 14.799-27.859 40.881-5.214 49.622 21.789 8.365 53.928-6.083 58.286-28.754l5.24-26.951zm-527.208 111.384l46.133-247.152h58.312l6.083 24.37c10.467-12.192 30.479-24.37 64.395-24.37l-17.406 65.277c-16.51 0-48.74-5.214-68.753 68.727l-20.868 113.161h-67.897l.001-.013z"/></g></svg>