<svg xmlns="http://www.w3.org/2000/svg" viewBox="-49 141 512 512"><path d="M430.731 185.707h-48.14a7.588 7.588 0 0 0 0 15.176h48.14c9.426 0 17.094 7.668 17.094 17.094v115.804c0 9.426-7.668 17.094-17.094 17.094H253.313a7.604 7.604 0 0 0-5.367 2.223l-43.699 43.699v-38.332a7.586 7.586 0 0 0-7.586-7.59h-14.449c-9.426 0-17.094-7.668-17.094-17.094V217.977c0-9.426 7.668-17.094 17.094-17.094h175.086a7.591 7.591 0 0 0 7.59-7.59 7.59 7.59 0 0 0-7.59-7.586H182.212c-17.793 0-32.27 14.477-32.27 32.27v115.804c0 17.793 14.477 32.27 32.27 32.27h6.863v49.062a7.589 7.589 0 0 0 12.953 5.367l54.426-54.429h174.277c17.793 0 32.27-14.477 32.27-32.27V217.977c0-17.793-14.477-32.27-32.27-32.27zm0 0"/><path d="M225.286 283.031c8.996-6.156 20.195-13.824 20.195-26.933 0-6.219-2.519-11.52-7.281-15.329-4.211-3.371-10.015-5.304-15.926-5.304-10.914 0-22.511 6.711-22.511 19.144 0 5.485 2.308 8.153 7.058 8.153 5.36 0 8.25-2.977 8.25-5.774 0-4.64 2.66-7.304 7.301-7.304 5.465 0 7.402 3.722 7.402 6.906 0 5.894-6.949 10.996-14.308 16.398-8.305 6.094-16.891 12.399-16.891 20.649v9.609c0 2.981 4.063 4.883 6.86 4.883H240.7c2.547 0 4.781-3.254 4.781-6.965 0-3.602-2.234-6.762-4.781-6.762h-25.828v-.765c0-3.477 4.828-6.778 10.414-10.606zm62.168 25.094c5.395 0 7.852-2.527 7.852-4.879v-10.375h4.133c2.464 0 4.882-3.594 4.882-7.258 0-4.988-2.531-7.258-4.882-7.258h-4.133v-6.808c0-2.203-2.055-4.781-7.852-4.781-5.797 0-7.851 2.574-7.851 4.781v6.808h-8.188l17.441-34.988c.266-.613.508-1.269.508-1.933 0-1.618-1.035-3.168-2.918-4.368-1.535-.972-3.468-1.601-4.933-1.601-2.883 0-5.207 1.43-6.551 4.031l-22.883 44.867c-.703 1.289-.808 2.453-.808 3.032 0 3.277 2.125 5.476 5.281 5.476h23.051v10.371c0 2.356 2.457 4.883 7.851 4.883zm59.219-74.172l-34.766 71.414c-.324.649-.511 1.352-.511 1.938 0 2.597 2.281 5.379 5.675 5.379 1.992 0 3.871-1.051 4.571-2.547l34.867-71.418c.34-.68.41-1.43.41-1.938 0-3.219-3.086-5.379-5.973-5.379-1.953 0-3.511.93-4.273 2.551zm26.562 26.629c4.313 0 7.954-2.234 7.954-4.883v-6.512h17.476v6.774l-24.352 42.172c-.488.883-.707 1.695-.707 2.636 0 4.684 5.235 7.95 9.934 7.95 2.234 0 3.699-.7 4.469-2.149l23.18-44.375c.746-1.398 3.183-6.222 3.183-9.468v-12.383c0-2.129-3.328-4.879-6.863-4.879h-35.164c-3.461 0-6.864 2.418-6.864 4.879v15.355c0 2.692 3.481 4.883 7.754 4.883zm0 0" fill="#bea67c"/><path d="M264.771 449.141a20.763 20.763 0 0 0-14.778-6.118 20.76 20.76 0 0 0-14.777 6.118l-46.379 46.378c-18.469-9.652-34.535-18.855-52.488-33.996a7.59 7.59 0 0 0-10.692.911 7.59 7.59 0 0 0 .91 10.691c20.735 17.48 38.782 27.348 60.219 38.43a7.589 7.589 0 0 0 8.848-1.375l24.953-24.95 82.262 82.262c-26.571 22.809-64.2 30.75-106.922 22.352-48.047-9.449-98.891-39.032-143.164-83.305-44.274-44.273-73.86-95.121-83.309-143.168-8.398-42.726-.457-80.355 22.348-106.922l82.273 82.27-24.961 24.957a7.586 7.586 0 0 0-1.371 8.851c15.11 29.215 27.301 50.653 57.84 81.196 2.965 2.961 7.77 2.961 10.73 0a7.585 7.585 0 0 0 0-10.731c-27.378-27.379-38.851-46.34-52.535-72.515l46.383-46.387c3.949-3.945 6.121-9.195 6.121-14.778a20.75 20.75 0 0 0-6.121-14.777l-74.383-74.383c-3.945-3.949-9.195-6.125-14.777-6.125s-10.832 2.176-14.777 6.121l-19.996 19.997c-30.43 30.429-41.676 75.234-31.665 126.152 10.024 50.972 41.086 104.59 87.469 150.972 46.379 46.379 99.996 77.442 150.969 87.461 12.133 2.387 23.914 3.567 35.242 3.563 36.207 0 67.731-12.047 90.91-35.227l19.993-19.992c3.949-3.949 6.121-9.195 6.121-14.777s-2.172-10.832-6.121-14.778l-74.375-74.378zM16.954 230.879a5.689 5.689 0 0 1 4.047-1.676c1.531 0 2.969.594 4.047 1.676l74.387 74.387a5.686 5.686 0 0 1 1.675 4.046 5.686 5.686 0 0 1-1.675 4.047l-14.629 14.629-82.481-82.48 14.629-14.629zm311.465 311.465l-14.633 14.629-82.469-82.473 14.629-14.629a5.68 5.68 0 0 1 4.047-1.676c1.528 0 2.965.594 4.047 1.676l74.379 74.375a5.737 5.737 0 0 1 0 8.098zm0 0"/></svg>