<svg width="436" height="64pt" viewBox="0 0 327 64" xmlns="http://www.w3.org/2000/svg"><path d="M0 1.5c4.61-.25 9.22-.1 13.83-.14.02 16.61 0 33.21.01 49.82 8.63.01 17.26-.01 25.9.01v11.8c-13.24-.11-26.51.28-39.74-.2V1.5zm79.97 7.46c9.43-9.05 24.29-10.7 36.18-6.02 9.74 4 17.3 13.34 18.5 23.89.42 6.26.56 12.81-2.01 18.68-4.2 10.04-14.11 17.33-24.93 18.49H97.35c-6.36-.9-12.48-3.62-17.18-8.02-13.14-11.86-13.26-35.06-.2-47.02m17.19 4.14c-10.69 3.02-14.88 15.91-11.95 25.81 1.52 5.78 5.93 10.95 11.76 12.65 6.53 1.82 14.24.49 18.91-4.7 6.97-8.11 7.01-21.6-.47-29.39-4.6-4.83-11.97-6.06-18.25-4.37zm76.58.52C182.9.87 201.53-3.09 215.47 3.61c4.82 2.33 8.45 6.39 11.52 10.68-3.71 2.07-7.48 4.05-11.21 6.09-1.81-1.94-3.5-4.07-5.81-5.45-7.28-4.62-17.84-2.78-23.16 4-4.47 4.87-5.16 11.97-4.16 18.24 1.44 8.19 8.93 15.1 17.38 15.1 4.92.39 9.76-1.34 13.72-4.2-.02-2.49-.01-4.98 0-7.47-5.37.05-10.75.07-16.12-.01.01-3.85.01-7.7-.01-11.54 10-.1 20-.04 30-.03-.01 7.87-.02 15.75.01 23.63-5.27 5.9-12.43 9.98-20.23 11.35h-12.1c-12.19-1.69-23.39-10.81-26.19-23.01-1.91-9.21-1.12-19.61 4.63-27.37zm96.95-3.89c12.65-12.95 36.4-12.43 48.3 1.3 10.89 12.42 10.18 33.65-2.15 44.86-4.73 4.44-10.88 7.16-17.26 8.11h-10.95c-6.16-1.02-12.22-3.5-16.75-7.9-13.14-11.49-13.52-34.16-1.19-46.37m17.55 3.5c-12.47 4.04-15.81 21.12-8.99 31.33 5.04 8.36 17.37 10.09 25.2 4.79 10.86-7.68 10.86-26.3-.04-33.96-4.65-3.23-10.82-3.69-16.17-2.16z" fill="#292929"/></svg>