<svg viewBox="-77 166 497 523" xmlns="http://www.w3.org/2000/svg"><path d="M72.403 614.76l-.036-.022c-11.939-7.381-16.684-22.635-11.008-35.497l43.017-113.237c.195-.511.434-.995.717-1.452l140.304-226.949c14.411-23.602 34.49-43.821 58.02-58.418 14.43-8.974 33.391-6.595 45.154 5.739 7.746 8.909 11.038 20.318 9.319 31.596-2.649 26.112-11.468 52.149-25.447 74.876L192.131 518.36a7.903 7.903 0 0 1-.985 1.286l-82.359 89.436c-8.667 10.482-24.431 13.068-36.384 5.678zm8.946-14.519s.008.004 0 0c4.773 2.951 11.049 1.928 14.612-2.375l82.098-89.177 139.869-226.246c12.63-20.543 20.607-44.083 23.053-68.085 1.026-6.734-.832-13.136-5.018-17.959-5.887-6.176-15.922-7.457-23.54-2.723-21.287 13.206-39.437 31.489-52.491 52.863L120.037 472.828 77.136 585.716c-2.436 5.512-.552 11.579 4.213 14.525-.007-.005-.007-.005 0 0z" fill="#fff"/><path d="M-61.723 361.413a8.57 8.57 0 0 1-3.336-3.847 8.53 8.53 0 0 1 .567-7.89l26.904-43.519a8.523 8.523 0 0 1 7.742-4.026l232.366 13.326a8.512 8.512 0 0 1 7.076 4.575 8.532 8.532 0 0 1-.312 8.419l-44.84 72.531a8.542 8.542 0 0 1-8.909 3.886l-214.43-42.338a8.491 8.491 0 0 1-2.828-1.117zm35.969-41.965l-17.761 28.729 196.561 38.81 34.199-55.319-212.999-12.22zm384.71 302.037a8.752 8.752 0 0 1-2.271-2.035L222.967 446.556a8.527 8.527 0 0 1-.498-9.702l44.84-72.531a8.528 8.528 0 0 1 7.391-4.042 8.533 8.533 0 0 1 7.256 4.285l115.782 201.906a8.53 8.53 0 0 1-.148 8.721l-26.904 43.519a8.524 8.524 0 0 1-6.812 4.029 8.425 8.425 0 0 1-4.918-1.256zm-118.874-180.69l122.575 158.486 17.761-28.729-106.132-185.083-34.204 55.326z" fill="#fff"/><path d="M102.592 322.653l-14.506-8.968 13.452-21.759c7.417-11.997 23.215-15.724 35.211-8.307 11.997 7.417 15.724 23.215 8.307 35.211l-4.484 7.253-14.506-8.968 4.484-7.253c2.471-3.996 1.227-9.266-2.769-11.737-3.996-2.471-9.266-1.227-11.737 2.769l-13.452 21.759zm-87.694-4.098L.392 309.587l13.452-21.759c7.417-11.997 23.215-15.724 35.211-8.307 11.997 7.417 15.724 23.215 8.307 35.211l-14.506-8.968c2.471-3.996 1.223-9.259-2.774-11.73-3.996-2.471-9.262-1.235-11.733 2.762l-13.451 21.759zM334.69 466.141l-14.506-8.968 13.452-21.759c2.471-3.996 1.235-9.262-2.769-11.737s-9.266-1.227-11.737 2.769l-4.484 7.253-14.506-8.968 4.484-7.253c7.417-11.997 23.215-15.724 35.211-8.307 11.997 7.417 15.724 23.215 8.307 35.211l-13.452 21.759zm42.863 76.614l-14.506-8.968 13.452-21.759c2.471-3.996 1.23-9.255-2.774-11.73s-9.262-1.235-11.733 2.762l-14.506-8.968c7.417-11.997 23.215-15.724 35.211-8.307 11.997 7.417 15.724 23.215 8.307 35.211l-13.451 21.759zm-406.708 9.22a8.532 8.532 0 0 1-2.769-11.737l17.936-29.012a8.505 8.505 0 0 1 7.361-4.041l99.435 1.321-.227 17.053-94.612-1.257-10.102 16.341 86.685 35.485-6.461 15.786-96.005-39.302a9.546 9.546 0 0 1-1.241-.637zm203.087 125.552a8.654 8.654 0 0 1-1.127-.837l-78.069-68.314 11.226-12.84 70.496 61.688 10.098-16.334-43.414-84.073 15.153-7.825 45.627 88.359a8.525 8.525 0 0 1-.325 8.391l-17.936 29.012a8.51 8.51 0 0 1-5.989 3.947 8.484 8.484 0 0 1-5.74-1.174zM287.5 249.706l-10.85-13.164 13.9-11.457c6.441-5.813 16.154-6.735 23.894-2.05 7.272 4.746 11.218 13.492 9.2 22.059l-4.262 17.937-16.587-3.948 4.26-17.918a3.316 3.316 0 0 0-1.493-3.569c-1.201-.733-2.781-.577-3.881.408L287.5 249.706z" fill="#fff"/></svg>