<svg width="868" height="617pt" viewBox="0 0 651 617" xmlns="http://www.w3.org/2000/svg"><path fill="#efce4a" d="M324.32 0h2.06c13.31 25.99 26.07 52.28 39.19 78.37 1.84 3.59 3.17 7.43 5.09 10.98 11.14 22.2 22.14 44.47 33.24 66.68 5.1 11.67 11.2 22.86 16.75 34.31 2.12 3.9 3.56 8.2 6.4 11.66 1.87-.1 3.75.02 5.58.46 72.8 10.49 145.62 20.93 218.37 31.68v.31c-5.57 5.61-11.23 11.15-16.9 16.66-5.05 3.9-9.28 8.68-13.83 13.12-8.63 8.69-17.39 17.28-26.11 25.89-9.43 7.9-17.6 17.15-26.46 25.66-6.46 6.19-12.51 12.82-19.46 18.47-10.97 11-21.96 21.99-33.06 32.88-2.27 2.44-4.9 4.48-7.42 6.64-6.33 6.14-12.38 12.57-18.79 18.61-.13 2.27.13 4.54.63 6.76 11.65 68.34 23.37 136.68 35.05 205.01.81 4.29 1.2 8.7 2.61 12.85h-.46c-10.51-5.38-20.79-11.17-31.38-16.41-7.59-4.59-15.84-7.94-23.43-12.54-5.05-2.7-10.25-5.1-15.28-7.83-8.24-4.95-17.2-8.55-25.41-13.55-17.92-8.95-35.39-18.74-53.29-27.73-17.38-9.46-35.07-18.31-52.47-27.73-47.23 24.91-94.47 49.81-141.79 74.57-7.22 4.24-14.99 7.45-22.15 11.8-12.54 6.25-24.8 13.03-37.27 19.42h-.56c.23-.34.7-1.01.94-1.35 7.3-44.52 15.23-88.95 22.66-133.45 5.26-29.66 10.02-59.42 15.45-89.04-8.75-8.55-17.4-17.21-26.02-25.9-13.3-11.66-25.45-24.59-38.03-37.03-14.36-12.58-27.34-26.69-41.08-39.95-1.42-1.24-2.94-2.36-4.32-3.64-10.95-10.7-21.79-21.53-32.6-32.38-7.4-6.04-13.82-13.15-20.77-19.7v-.36c73.01-10.88 146.13-21.11 219.16-31.89 1.58-.39 3.22-.36 4.84-.33 2.92-3.71 4.46-8.23 6.7-12.34 6.74-13.89 14.12-27.49 20.4-41.6 12.09-24.22 24.07-48.49 36.23-72.68C299.1 49.98 312.27 25.25 324.32 0z"/></svg>