<svg width="943pt" height="901pt" viewBox="0 0 943 901" xmlns="http://www.w3.org/2000/svg"><path fill="#efce4a" d="M465.61 0h9.77c5.37 2.03 11.11 4.18 14.77 8.84 5.48 7.06 8.56 15.55 12.52 23.48 36.86 73.79 73.79 147.55 110.51 221.41 4.04 9.19 8.82 18.03 13.16 27.08 97.91 14.18 195.87 27.99 293.8 42.03 5.57.74 11.03 2.98 15.15 6.86 3.54 3.28 5.52 7.78 7.71 11.98v13.8c-1.88 4.6-4.57 8.9-8.22 12.3-15.71 15.29-30.67 31.37-47.04 45.97-13.17 13.16-26.28 26.38-39.59 39.4-16.47 14.83-31.51 31.17-47.5 46.5-18.01 16.27-34.38 34.26-52.1 50.85-7.89 6.76-14.79 14.57-22.35 21.69-1.41 1.6-3.77 3.21-3.1 5.67 16.83 95.6 33.41 191.25 50.18 286.86 1.27 7.08 1.95 15.05-2.18 21.38-6.66 12.8-24.48 16.99-36.51 9.32-82.16-42.86-164.28-85.79-246.46-128.59-4.57-2.5-9.1-5.06-13.85-7.18-2.39-1.38-4.61.94-6.7 1.86-86.69 46.01-173.52 91.79-260.24 137.75-1.29.61-2.6 1.18-3.91 1.74h-10.89c-7.41-2.48-14.97-6.88-18.09-14.42-2.94-5.33-2.87-11.58-2.21-17.45 12.34-72.69 24.44-145.42 36.8-218.11 3.72-21.96 7.21-43.95 11.19-65.86.44-2.62 1.02-5.27.76-7.94-1.09-2.46-3.37-4.13-5.25-5.97-13.85-11.76-25.63-25.72-39.35-37.61-9.09-8.58-17.71-17.65-26.68-26.36-11.18-9.44-20.91-20.43-31.53-30.48-8.69-7.26-16.36-15.63-24.42-23.56-5.34-5.69-11.64-10.34-17.01-16-8.29-8.03-16.01-16.67-24.88-24.08-8.63-8.05-16.62-16.77-25.22-24.85-6.52-5.43-12.38-11.59-18.42-17.53-3.81-3.7-6.28-8.49-8.23-13.37v-11.85c1.18-2.9 2.48-5.76 4.19-8.39 3.83-6.19 10.7-10.09 17.79-11.18 98.21-14.86 196.51-29.13 294.69-44.16 4.54-9.45 9.39-18.75 13.97-28.18 8.39-18.68 18.35-36.61 26.8-55.26 6.44-13.16 13-26.27 19.55-39.38 7.75-17.01 16.43-33.58 24.65-50.36 3.63-8.23 7.75-16.23 11.71-24.31 9.92-19.54 18.99-39.5 28.99-59 3.3-5.96 5.17-12.94 10.34-17.67 3.52-3.71 8.27-5.8 12.93-7.67m-15.96 127.66c-7.92 17.19-16.57 34.04-24.99 51-8.48 18.31-17.7 36.26-26.67 54.33-9.69 21.37-21 41.95-30.75 63.29-3.98 7.73-7.53 15.67-11.66 23.32-3.69 6.97-11.53 10.54-18.98 11.88-64.76 9.54-129.51 19.18-194.24 28.9-20.21 2.78-40.32 6.25-60.55 8.83 4.73 4.92 9.59 9.72 14.45 14.52 13.53 11.43 24.95 25.1 38.37 36.63 8.69 8.31 17.07 16.93 25.63 25.37 13.85 11.77 25.61 25.77 39.37 37.62 11.69 10.97 22.36 23.02 34.53 33.46 9.87 9.48 19.29 19.42 29.18 28.87 7.95 6.03 13 16.18 11.49 26.24-10.79 64.44-21.76 128.86-32.6 193.3-3.31 20.7-7.33 41.29-10.34 62.03 3.37-1.21 6.54-2.9 9.6-4.75 69.96-37.01 139.92-74.03 209.84-111.12 5.26-2.45 10.11-5.98 15.88-7.18 4.1-.67 8.35-.63 12.43.26 6 1.75 11.13 5.48 16.69 8.22 12.25 5.96 24.07 12.75 36.31 18.73 10.47 6.01 21.55 10.88 32.03 16.88 5.95 3.12 12.02 6 17.94 9.18 9.61 5.53 19.81 9.93 29.42 15.47 7.85 4.16 15.93 7.9 23.64 12.35 8.36 4.29 16.81 8.42 24.99 13.05 10.73 5.12 20.99 11.14 31.67 16.35 7.37 3.61 14.35 7.97 21.83 11.36-.27-2.07-.59-4.13-.94-6.17-13.09-75.23-26.29-150.44-39.46-225.66-1.38-8.86-3.47-17.6-4.31-26.53-.44-7.49 2.75-14.93 8.27-19.96 13.54-13.13 26.31-27.07 40.53-39.48 15.66-15.33 30.61-31.44 47.01-45.99 10.48-10.52 20.97-21.03 31.51-31.49 6.88-7.15 14.7-13.27 21.48-20.52 14.65-14.33 28.64-29.38 43.96-43-85.59-12.33-171.21-24.49-256.81-36.74-4.78-.74-9.13-3.09-12.86-6.1-5.02-3.67-7.05-9.81-9.86-15.09-10.52-21.12-21.01-42.26-31.56-63.38-19.66-40.77-40.36-81.04-60.37-121.65-6.65-12.98-12.73-26.26-19.75-39.04-7.54 13.91-14.07 28.35-21.35 42.41z"/></svg>