<svg version="1.1" id="Layer_1" xmlns="http://www.w3.org/2000/svg" x="0" y="0" viewBox="0 0 512 423.3" xml:space="preserve"><style>.st0{display:none}.st2{fill:#bea67c}</style><path class="st0" d="M476.2 186.7l-13.3-53c3.6-.8 6.3-4 6.3-7.8v-8.6c0-18.6-15.1-33.7-33.7-33.7h-60.4V65.9c0-9.1-7.4-16.6-16.6-16.6H50.8c-9.1 0-16.6 7.4-16.6 16.6v145.4c0 4.4 3.6 8 8 8s8-3.6 8-8V65.9c0-.3.2-.5.5-.5h307.8c.3 0 .5.2.5.5v145.4c0 4.4 3.6 8 8 8s8-3.6 8-8v-9.1h94.6c11.6 0 21.5 7.6 24.9 18.2h-24.9c-4.4 0-8 3.6-8 8v17.1c0 13.9 11.3 25.1 25.1 25.1h9.1v35.3h-21c-6.9-19.9-25.8-34.2-48-34.2s-41.1 14.3-48 34.2h-3.9v-60.4c0-4.4-3.6-8-8-8s-8 3.6-8 8v60.4H192.8c-6.9-19.9-25.8-34.2-48-34.2s-41.1 14.3-48 34.2h-46c-.3 0-.5-.2-.5-.5v-17.6H85c4.4 0 8-3.6 8-8s-3.6-8-8-8H8c-4.4 0-8 3.6-8 8s3.6 8 8 8h26.2v17.6c0 9.1 7.4 16.6 16.6 16.6h43.3v.5c0 28 22.8 50.8 50.8 50.8s50.8-22.8 50.8-50.8v-.5h180.7v.5c0 28 22.8 50.8 50.8 50.8s50.8-22.8 50.8-50.8v-.5h26c4.4 0 8-3.6 8-8v-85.5c0-21.2-15.6-38.8-35.8-41.8zm-101-52.9h71.2l13.1 52.4h-84.3v-52.4zm60.4-34.2c9.7 0 17.6 7.9 17.6 17.6v.5h-78V99.6h60.4zM144.8 357.2c-19.2 0-34.7-15.6-34.7-34.7s15.6-34.7 34.7-34.7 34.7 15.6 34.7 34.7-15.5 34.7-34.7 34.7zm282.2 0c-19.2 0-34.7-15.6-34.7-34.7s15.6-34.7 34.7-34.7c19.2 0 34.7 15.6 34.7 34.7.1 19.1-15.5 34.7-34.7 34.7zm59.9-102.6c-5 0-9.1-4.1-9.1-9.1v-9.1H496v18.2h-9.1z"/><path class="st0" d="M144.8 305.9c-9.1 0-16.6 7.4-16.6 16.6s7.4 16.6 16.6 16.6c9.1 0 16.6-7.4 16.6-16.6s-7.4-16.6-16.6-16.6zm282.2 0c-9.1 0-16.6 7.4-16.6 16.6S417.9 339 427 339s16.6-7.4 16.6-16.6-7.4-16.5-16.6-16.5zm-221.8-26.2c0 4.4 3.6 8 8 8H333c4.4 0 8-3.6 8-8s-3.6-8-8-8H213.2c-4.4 0-8 3.6-8 8zM25.1 253.5h102.6c4.4 0 8-3.6 8-8s-3.6-8-8-8H25.1c-4.4 0-8 3.6-8 8s3.6 8 8 8z"/><g class="st0"><path class="st2" d="M-195.7 134.2c-.8-2.4-2.8-4.1-5.3-4.5l-33.3-4.8-14.9-30.2c-1.1-2.3-3.4-3.7-5.9-3.7-2.5 0-4.8 1.4-5.9 3.7l-14.9 30.2-33.3 4.8c-2.5.4-4.6 2.1-5.3 4.5-.8 2.4-.1 5 1.7 6.8l24.1 23.5-5.7 33.2c-.4 2.5.6 5 2.6 6.5s4.7 1.7 7 .5L-255 189l29.8 15.7c1 .5 2 .8 3.1.8 1.4 0 2.7-.4 3.9-1.3 2-1.5 3.1-4 2.6-6.5l-5.7-33.2 24.1-23.5c1.7-1.8 2.3-4.4 1.5-6.8zm-37.5 23.3c-1.6 1.5-2.3 3.7-1.9 5.9l4 23.4-21-11.1c-1.9-1-4.2-1-6.2 0l-21 11.1 4-23.4c.4-2.1-.3-4.3-1.9-5.9l-17-16.6 23.5-3.4c2.2-.3 4-1.7 5-3.6l10.5-21.3 10.5 21.3c1 2 2.8 3.3 5 3.6l23.5 3.4-17 16.6z"/><path d="M-366.3 95.9c27 0 52.3-16.8 61.8-43.6 1.2-3.4-.6-7.2-4-8.4-16.4-5.8-34.1-4.9-49.8 2.5 4-5.2 8.4-10.3 13.1-15 2.6-2.6 2.6-6.8 0-9.4a6.64 6.64 0 0 0-9.4 0c-3.4 3.4-6.6 6.9-9.7 10.6-.7-19.6-10.2-38.8-27.4-51-3-2.1-7.1-1.4-9.2 1.6C-411-2.7-415 14.7-412.1 31.9c2.7 16 11 30.1 23.5 40.1-2.2 5-4.1 10.2-5.7 15.4-1.3-2.9-2.8-5.7-4.5-8.5-9.4-14.8-23.9-25-41-28.8-1.7-.4-3.5-.1-5 .9-1.5.9-2.5 2.4-2.9 4.1-7.6 34 12.8 67.9 46 77.3-.2 7 .1 14 .9 21-1.5-1.4-3.1-2.7-4.8-3.9-14.1-10.4-31.4-14.6-48.7-12-3.6.6-6.1 3.9-5.5 7.5 2.6 17.3 11.9 32.5 25.9 42.9 11.4 8.4 24.8 12.7 38.6 12.7 2.2 0 4.4-.1 6.7-.3 2.7 6.3 5.8 12.4 9.4 18.4-20.5-6.6-43.7-3-61.6 11.6-2.8 2.3-3.2 6.5-.9 9.3 11.1 13.5 26.8 21.9 44.2 23.7 2.2.2 4.4.3 6.6.3 13.5 0 26.5-4.2 37.6-12 7.4 7.3 15.6 13.9 24.2 19.6 1.1.7 2.4 1.1 3.6 1.1 2.1 0 4.3-1 5.5-3 2-3 1.2-7.1-1.9-9.2-8.3-5.5-16.2-11.9-23.3-19-15.9-15.9-27.5-34.6-34.6-54.5 31.4-12.1 48.9-46.6 39.3-79.4-1-3.5-4.7-5.5-8.2-4.5-16.8 4.9-30.7 16.1-39.1 31.4-.3.5-.5 1-.8 1.5.1-14.1 2.1-28.1 6.1-41.7 5.4 1.3 10.8 2 16.2 2zm-35.8 22.5c-21.9-8.1-35.8-30.1-33.8-53.4 10.7 3.9 19.7 11.2 25.9 21 6.2 9.8 8.9 21 7.9 32.4zm-24 58.9c-9.3-6.8-16-16.4-19.2-27.3h.8c23 0 43.5 15.3 50.1 37.4-11.4.2-22.4-3.3-31.7-10.1zm29.8 72.8c-11.5-1.1-22.1-5.9-30.4-13.7 19.9-12.2 45.8-9.7 62.9 6.3-9.7 6-21 8.6-32.5 7.4zm20.1-109.6c5.5-10.1 14.1-18 24.5-22.6 3.5 23.1-9 45.9-30.3 55.4-1.8-11.3.2-22.7 5.8-32.8zm23.3-82.1c10.4-5 22-6.3 33.1-4-10.7 20.8-34.2 32-57 27.2 5.2-10.1 13.5-18.2 23.9-23.2zm-46.2-28.7c-1.9-11.4-.1-22.9 5.2-32.9 17 16 21.4 41.6 10.5 62.3-8.2-7.8-13.7-18-15.7-29.4zm284 171c13.8 0 27.3-4.4 38.6-12.7 14.1-10.4 23.3-25.6 25.9-42.9.6-3.6-1.9-7-5.5-7.5-20-3.1-39.4 3.4-53.5 15.9.7-7 1-14 .9-21 15.5-4.4 28.7-14.2 37.4-27.9 9.4-14.8 12.4-32.3 8.6-49.4-.8-3.6-4.3-5.8-7.9-5-17.1 3.8-31.6 14.1-41 28.8-1.7 2.7-3.2 5.6-4.5 8.5-1.6-5.2-3.5-10.3-5.7-15.4 26.8-21.5 32.5-60.6 12.3-88.9-1-1.4-2.6-2.4-4.3-2.7-1.7-.3-3.5.1-4.9 1.1C-133-8.3-142.4 6.8-145.3 24c-.5 2.8-.8 5.7-.9 8.5-3-3.6-6.2-7.1-9.6-10.5-2.6-2.6-6.8-2.6-9.4 0s-2.6 6.8 0 9.4c4.8 4.8 9.1 9.8 13.1 15-15.7-7.4-33.4-8.3-49.8-2.5-3.4 1.2-5.2 5-4 8.4 9.5 26.8 34.8 43.6 61.8 43.6 5.4 0 10.8-.7 16.2-2.1 4 13.6 6.1 27.7 6.1 41.8-7.9-15.4-21.9-27.7-39.8-32.9-3.5-1-7.2 1-8.2 4.5-4.9 16.8-3 34.5 5.4 49.8 7.5 13.7 19.4 24.1 33.8 29.6-7.2 19.9-18.7 38.6-34.6 54.5-7.1 7.1-15 13.5-23.3 19-3.1 2-3.9 6.1-1.9 9.2 1.3 1.9 3.4 3 5.5 3 1.3 0 2.5-.4 3.6-1.1 8.6-5.7 16.8-12.3 24.2-19.6 11.4 8 24.5 11.9 37.7 11.9 19 0 37.8-8.2 50.7-24 1.1-1.4 1.6-3.1 1.5-4.8-.2-1.7-1-3.3-2.4-4.5-13.5-11.1-30.6-16.2-48-14.5-4.7.5-9.2 1.4-13.6 2.8 3.5-5.9 6.6-12.1 9.3-18.3 2.4.3 4.6.5 6.8.5zM-74.5 65c1 11.3-1.8 22.6-7.9 32.4-6.2 9.8-15.2 17-25.9 21-2-23.3 11.9-45.2 33.8-53.4zm9.4 85c-6.6 22.4-27.6 37.8-50.9 37.4 6.6-22.4 27.5-37.8 50.9-37.4zm-125.5-95.6c11.1-2.3 22.7-1 33.1 4 10.4 5 18.8 13.1 23.9 23.2-22.8 4.7-46.3-6.4-57-27.2zm63.5 4.7c-5.3-10.1-7.1-21.5-5.2-32.9 1.9-11.4 7.4-21.6 15.7-29.4 10.9 20.7 6.6 46.3-10.5 62.3zm10.9 169.9c11.5-1.1 22.8 1.5 32.5 7.4-17.1 15.9-43 18.5-62.9 6.3 8.3-7.8 18.9-12.6 30.4-13.7zm-12.1-55.7c-10.4-4.6-18.9-12.5-24.5-22.6-5.6-10.1-7.6-21.6-5.9-32.8 21.4 9.5 33.9 32.3 30.4 55.4z"/></g><path d="M479.7 0h-48.1c-4.2 0-7.6 3.4-7.6 7.6 0 4.2 3.4 7.6 7.6 7.6h48.1c9.4 0 17.1 7.7 17.1 17.1v115.8c0 9.4-7.7 17.1-17.1 17.1H302.3c-2 0-3.9.8-5.4 2.2l-43.7 43.7v-38.3c0-4.2-3.4-7.6-7.6-7.6h-14.4c-9.4 0-17.1-7.7-17.1-17.1V32.3c0-9.4 7.7-17.1 17.1-17.1h175.1c4.2 0 7.6-3.4 7.6-7.6 0-4.2-3.4-7.6-7.6-7.6H231.2c-17.8 0-32.3 14.5-32.3 32.3v115.8c0 17.8 14.5 32.3 32.3 32.3h6.9v49.1c0 3.1 1.8 5.8 4.7 7 .9.4 1.9.6 2.9.6 2 0 3.9-.8 5.4-2.2l54.4-54.4h174.3c17.8 0 32.3-14.5 32.3-32.3V32.3C512 14.5 497.5 0 479.7 0z"/><path class="st2" d="M274.3 97.3c9-6.2 20.2-13.8 20.2-26.9 0-6.2-2.5-11.5-7.3-15.3-4.2-3.4-10-5.3-15.9-5.3-10.9 0-22.5 6.7-22.5 19.1 0 5.5 2.3 8.2 7.1 8.2 5.4 0 8.3-3 8.3-5.8 0-4.6 2.7-7.3 7.3-7.3 5.5 0 7.4 3.7 7.4 6.9 0 5.9-6.9 11-14.3 16.4-8.3 6.1-16.9 12.4-16.9 20.6v9.6c0 3 4.1 4.9 6.9 4.9h35.3c2.5 0 4.8-3.3 4.8-7 0-3.6-2.2-6.8-4.8-6.8h-25.8v-.8c-.2-3.3 4.6-6.6 10.2-10.5zm62.2 25.1c5.4 0 7.9-2.5 7.9-4.9v-10.4h4.1c2.5 0 4.9-3.6 4.9-7.3 0-5-2.5-7.3-4.9-7.3h-4.1v-6.8c0-2.2-2.1-4.8-7.9-4.8s-7.9 2.6-7.9 4.8v6.8h-8.2l17.4-35c.3-.6.5-1.3.5-1.9 0-1.6-1-3.2-2.9-4.4-1.5-1-3.5-1.6-4.9-1.6-2.9 0-5.2 1.4-6.6 4L301 98.5c-.7 1.3-.8 2.5-.8 3 0 3.3 2.1 5.5 5.3 5.5h23.1v10.4c0 2.5 2.5 5 7.9 5zm59.2-74.2l-34.8 71.4c-.3.6-.5 1.4-.5 1.9 0 2.6 2.3 5.4 5.7 5.4 2 0 3.9-1.1 4.6-2.5L405.5 53c.3-.7.4-1.4.4-1.9 0-3.2-3.1-5.4-6-5.4-1.9 0-3.5.9-4.2 2.5zm26.5 26.7c4.3 0 8-2.2 8-4.9v-6.5h17.5v6.8l-24.4 42.2c-.5.9-.7 1.7-.7 2.6 0 4.7 5.2 8 9.9 8 2.2 0 3.7-.7 4.5-2.1l23.2-44.4c.7-1.4 3.2-6.2 3.2-9.5V54.6c0-2.1-3.3-4.9-6.9-4.9h-35.2c-3.5 0-6.9 2.4-6.9 4.9V70c.1 2.7 3.6 4.9 7.8 4.9z"/><path d="M313.8 263.4c-3.9-3.9-9.2-6.1-14.8-6.1-5.6 0-10.8 2.2-14.8 6.1l-46.4 46.4c-18.5-9.7-34.5-18.9-52.5-34-3.2-2.7-8-2.3-10.7.9-2.7 3.2-2.3 8 .9 10.7 20.7 17.5 38.8 27.3 60.2 38.4 2.9 1.5 6.5 1 8.8-1.4l25-25 82.3 82.3c-26.6 22.8-64.2 30.8-106.9 22.4-48-9.4-98.9-39-143.2-83.3-44.3-44.3-73.9-95.1-83.3-143.2-8.3-42.7-.4-80.3 22.4-106.9l82.3 82.3-25 25c-2.3 2.3-2.9 5.9-1.4 8.9 15.1 29.2 27.3 50.7 57.8 81.2 3 3 7.8 3 10.7 0 3-3 3-7.8 0-10.7-27.4-27.4-38.9-46.3-52.5-72.5l46.4-46.4c3.9-3.9 6.1-9.2 6.1-14.8 0-5.6-2.2-10.8-6.1-14.8L84.8 34.4c-3.9-3.9-9.2-6.1-14.8-6.1s-10.8 2.2-14.8 6.1l-20 20C4.8 84.9-6.4 129.7 3.6 180.6c10 51 41.1 104.6 87.5 151 46.4 46.4 100 77.4 151 87.5 12.1 2.4 23.9 3.6 35.2 3.6 36.2 0 67.7-12 90.9-35.2l20-20c3.9-3.9 6.1-9.2 6.1-14.8s-2.2-10.8-6.1-14.8l-74.4-74.5zM66 45.2c1.1-1.1 2.5-1.7 4-1.7s3 .6 4 1.7l74.4 74.4c1.1 1.1 1.7 2.5 1.7 4s-.6 3-1.7 4l-14.6 14.6-82.5-82.4L66 45.2zm311.4 311.4l-14.6 14.6-82.5-82.5 14.6-14.6c1.1-1.1 2.5-1.7 4-1.7s3 .6 4 1.7l74.4 74.4c2.3 2.3 2.3 5.9.1 8.1z"/></svg>