<svg xmlns="http://www.w3.org/2000/svg" viewBox="0 0 60 30"><path d="M55 30H5c-2.75 0-5-2.25-5-5V3.043A3.051 3.051 0 0 1 3.043 0H55c2.75 0 5 2.25 5 5v20c0 2.75-2.25 5-5 5z" fill="#f3f3f3"/><path d="M17.296 24.903h4.651c1.635 0 3.526-1.533 3.526-3.526V5.633h-4.497c-2.095 0-3.68 1.328-3.68 3.629v15.641z" fill="#0f549d"/><path d="M26.496 24.903h4.651c1.635 0 3.527-1.533 3.527-3.526V5.633h-4.498c-2.096 0-3.68 1.328-3.68 3.629v15.641z" fill="#b41f36"/><path d="M35.822 24.903h4.651c1.635 0 3.527-1.533 3.527-3.526V5.633h-4.497c-2.095 0-3.68 1.328-3.68 3.629l-.001 15.641z" fill="#329947"/><path d="M17.277 15.826H16c.358 1.431 2.044 2.556 3.935 2.556 1.738 0 4.089-.972 4.089-2.811v-3.322h-2.913v3.322c0 .972-.767 1.738-1.84 1.738-.971 0-1.84-.614-1.994-1.483zm25.501.665c0 .766-.664 1.38-1.533 1.38h-6.439v-5.622h6.439c.766 0 1.431.665 1.431 1.431s-.665 1.431-1.431 1.431c.869 0 1.533.613 1.533 1.38zm-5.52-1.687h1.994c.511 0 .971-.46.971-.972 0-.51-.46-.971-.971-.971h-1.994v1.943zm2.045 2.453c.51 0 .971-.46.971-.971 0-.511-.46-.971-.971-.971h-2.045v1.942h2.045zm-6.038-.357v.971h-4.907c-1.533 0-2.811-1.278-2.811-2.811s1.278-2.811 2.811-2.811h4.907v1.022c-1.175-.256-2.301-.409-2.863-.409a2.181 2.181 0 0 0-2.197 2.198c0 1.227.971 2.198 2.197 2.198.562-.001 1.687-.103 2.863-.358z" fill="#f3f2f2"/></svg>