<svg xmlns="http://www.w3.org/2000/svg" viewBox="0 0 60 30"><path d="M55 30H5c-2.75 0-5-2.25-5-5V3.043A3.051 3.051 0 0 1 3.043 0H55c2.75 0 5 2.25 5 5v20c0 2.75-2.25 5-5 5z" fill="#f3f3f3"/><path fill="#3c58bf" d="M25.3 20.514l1.981-11.143h3.095l-1.919 11.143z"/><path fill="#293688" d="M25.3 20.514l2.538-11.143h2.538l-1.919 11.143z"/><path d="M39.662 9.495C39.043 9.248 38.052 9 36.814 9c-3.095 0-5.324 1.548-5.324 3.776 0 1.671 1.548 2.538 2.786 3.095 1.238.557 1.61.929 1.61 1.424 0 .743-.99 1.114-1.857 1.114-1.238 0-1.919-.186-2.971-.619l-.433-.186-.433 2.538c.743.31 2.105.619 3.529.619 3.281 0 5.448-1.548 5.448-3.9 0-1.3-.805-2.29-2.662-3.095-1.117-.556-1.797-.866-1.797-1.423 0-.495.557-.99 1.795-.99 1.052 0 1.795.186 2.352.433l.31.124.495-2.415z" fill="#3c58bf"/><path d="M39.662 9.495C39.043 9.248 38.052 9 36.814 9c-3.095 0-4.767 1.548-4.767 3.776 0 1.671.99 2.538 2.229 3.095 1.238.557 1.61.929 1.61 1.424 0 .743-.99 1.114-1.857 1.114-1.238 0-1.919-.186-2.971-.619l-.433-.186-.433 2.538c.743.31 2.105.619 3.529.619 3.281 0 5.448-1.548 5.448-3.9 0-1.3-.805-2.29-2.662-3.095-1.117-.556-1.797-.866-1.797-1.423 0-.495.557-.99 1.795-.99 1.052 0 1.795.186 2.352.433l.31.124.495-2.415z" fill="#293688"/><path d="M44.986 9.371c-.743 0-1.3.062-1.61.805l-4.643 10.338h3.343l.619-1.857h3.962l.371 1.857H50L47.4 9.371h-2.414zM43.562 16.8c.186-.557 1.238-3.281 1.238-3.281s.248-.681.433-1.114l.186 1.052s.619 2.786.743 3.405h-2.6V16.8z" fill="#3c58bf"/><path d="M45.729 9.371c-.743 0-1.3.062-1.61.805l-5.386 10.338h3.343l.619-1.857h3.962l.371 1.857H50L47.4 9.371h-1.671zM43.562 16.8c.248-.619 1.238-3.281 1.238-3.281s.248-.681.433-1.114l.186 1.052s.619 2.786.743 3.405h-2.6V16.8z" fill="#293688"/><path d="M19.605 17.171l-.31-1.61c-.557-1.857-2.352-3.9-4.333-4.89l2.786 9.905h3.343l5.014-11.143h-3.343l-3.157 7.738z" fill="#3c58bf"/><path d="M19.605 17.171l-.31-1.61c-.557-1.857-2.352-3.9-4.333-4.89l2.786 9.905h3.343l5.014-11.143h-2.724l-3.776 7.738z" fill="#293688"/><path d="M11 9.371l.557.124c3.962.929 6.686 3.281 7.738 6.067L18.181 10.3c-.186-.743-.743-.929-1.424-.929H11z" fill="#ffbc00"/><path d="M11 9.371c3.962.929 7.243 3.343 8.295 6.129l-1.052-4.395a1.511 1.511 0 0 0-1.486-1.176L11 9.371z" fill="#f7981d"/><path d="M11 9.371c3.962.929 7.243 3.343 8.295 6.129l-.743-2.414c-.186-.743-.433-1.486-1.3-1.795L11 9.371z" fill="#ed7c00"/><path d="M22.7 16.8l-2.105-2.105-.99 2.352-.248-1.547c-.557-1.857-2.352-3.9-4.333-4.89l2.786 9.905h3.343L22.7 16.8zm5.757 3.714l-2.662-2.724-.495 2.724zm7.119-3.838c.248.248.371.433.31.681 0 .743-.99 1.114-1.857 1.114-1.238 0-1.919-.186-2.971-.619l-.433-.186-.433 2.538c.743.31 2.105.619 3.529.619 1.981 0 3.59-.557 4.519-1.548l-2.664-2.599zm3.591 3.838h2.91l.619-1.857h3.962l.371 1.857H50l-1.052-4.519-3.714-3.59.186.99s.619 2.786.743 3.405h-2.6c.248-.619 1.238-3.281 1.238-3.281s.248-.681.433-1.114" fill="#051244"/></svg>