<svg xmlns="http://www.w3.org/2000/svg" viewBox="0 0 60 30"><path d="M55 30H5c-2.75 0-5-2.25-5-5V3.043A3.051 3.051 0 0 1 3.043 0H55c2.75 0 5 2.25 5 5v20c0 2.75-2.25 5-5 5z" fill="#f3f3f3"/><circle cx="31.538" cy="12.766" r="3.695" fill="#ef9122"/><path d="M27.843 12.766c0-2.061 1.635-3.695 3.695-3.695s3.695 1.635 3.695 3.695-1.635 3.695-3.695 3.695" fill="#f26e21"/><path d="M28.98 10.137c1.421-1.421 3.766-1.421 5.188 0 1.421 1.421 1.421 3.766 0 5.188" fill="#f44500"/><path d="M10.147 9.284h-1.99v6.964h1.99c1.066 0 1.848-.284 2.487-.782a3.515 3.515 0 0 0 1.279-2.701c.001-2.059-1.492-3.481-3.766-3.481zm1.635 5.259c-.426.355-.995.569-1.848.569h-.426v-4.619h.355c.853 0 1.421.142 1.848.569.497.426.782 1.066.782 1.706.07.638-.214 1.349-.711 1.775zm2.771-5.259h1.35v6.964h-1.35zm4.762 2.701c-.853-.284-1.066-.497-1.066-.853 0-.426.426-.782.995-.782.426 0 .782.142 1.137.569l.711-.924a3.1 3.1 0 0 0-2.061-.782c-1.208 0-2.203.853-2.203 1.99 0 .995.426 1.421 1.706 1.919.569.213.782.284.924.426a.781.781 0 0 1 .426.711c0 .569-.426.995-1.066.995s-1.208-.355-1.492-.924l-.853.853c.64.924 1.421 1.35 2.416 1.35 1.421 0 2.416-.924 2.416-2.274 0-1.208-.427-1.706-1.99-2.274z" fill="#595a5b"/><path d="M21.731 12.766c0 2.061 1.635 3.624 3.695 3.624.569 0 1.066-.142 1.706-.426V14.33c-.569.569-1.066.782-1.635.782-1.35 0-2.345-.995-2.345-2.416 0-1.35.995-2.416 2.274-2.416.64 0 1.137.213 1.706.782V9.426C26.563 9.142 26.066 9 25.426 9c-1.989.142-3.695 1.777-3.695 3.766z" fill="#3b3d3f"/><path d="M38.289 13.975l-1.847-4.691h-1.493l2.914 7.178h.782l3.056-7.178h-1.493zm3.98 2.274h3.909v-1.137H43.69v-1.919h2.417v-1.208H43.69v-1.493h2.488V9.284h-3.909z"/><path d="M50.015 13.335c1.066-.213 1.635-.924 1.635-1.99 0-1.279-.924-2.061-2.487-2.061h-2.061v6.964h1.35v-2.772h.213l1.919 2.772h1.635l-2.204-2.913zm-1.137-.853h-.426V10.35h.426c.853 0 1.35.355 1.35 1.066s-.497 1.066-1.35 1.066zM10.147 9.284h-1.99v6.964h1.99c1.066 0 1.848-.284 2.487-.782a3.515 3.515 0 0 0 1.279-2.701c.001-2.059-1.492-3.481-3.766-3.481zm1.635 5.259c-.426.355-.995.569-1.848.569h-.426v-4.619h.355c.853 0 1.421.142 1.848.569.497.426.782 1.066.782 1.706.07.638-.214 1.349-.711 1.775zm2.771-5.259h1.35v6.964h-1.35zm4.762 2.701c-.853-.284-1.066-.497-1.066-.853 0-.426.426-.782.995-.782.426 0 .782.142 1.137.569l.711-.924a3.1 3.1 0 0 0-2.061-.782c-1.208 0-2.203.853-2.203 1.99 0 .995.426 1.421 1.706 1.919.569.213.782.284.924.426a.781.781 0 0 1 .426.711c0 .569-.426.995-1.066.995s-1.208-.355-1.492-.924l-.853.853c.64.924 1.421 1.35 2.416 1.35 1.421 0 2.416-.924 2.416-2.274 0-1.208-.427-1.706-1.99-2.274zm6.182 4.406c.569 0 1.066-.142 1.706-.426V14.33c-.569.569-1.066.782-1.635.782-1.35 0-2.345-.995-2.345-2.416 0-.711.284-1.279.711-1.777l-.924-.924a3.698 3.698 0 0 0-1.208 2.701c-.071 2.131 1.564 3.695 3.695 3.695z" fill="#595a5b"/><path d="M50.015 13.335c1.066-.213 1.635-.924 1.635-1.99 0-1.279-.924-2.061-2.487-2.061h-2.061v6.964h1.35v-2.772h.213l1.919 2.772h1.635l-2.204-2.913zm-1.137-.853h-.426V10.35h.426c.853 0 1.35.355 1.35 1.066s-.497 1.066-1.35 1.066z"/><path d="M18.178 22.716v-3.909l2.701 2.772V19.02h.569v3.909l-2.701-2.772v2.558l-.569.001zm6.111-3.127h-1.492v.853h1.421v.569h-1.421v1.208h1.492v.497h-2.061V19.02h2.061v.569zm1.777 0v3.127h-.569v-3.127h-.853v-.497h2.274v.497h-.852zm1.706-.498l.924 2.487.995-2.629.924 2.629.995-2.487h.711L30.685 23l-.924-2.629L28.767 23l-1.563-3.909h.568zm4.619 1.777a1.945 1.945 0 0 1 1.919-1.919 1.943 1.943 0 0 1 1.919 1.919 1.943 1.943 0 0 1-1.919 1.919c-.497 0-.924-.142-1.279-.497-.427-.356-.64-.782-.64-1.422zm.568 0c0 .426.142.711.426.995s.569.426.924.426c.355 0 .711-.142.995-.426.284-.284.426-.569.426-.995 0-.426-.142-.711-.426-.995-.284-.284-.569-.426-.995-.426-.355 0-.711.142-.995.426-.212.284-.355.64-.355.995zm5.259.284l1.137 1.563h-.711l-1.066-1.492h-.071v1.492h-.569V19.02h.64c.497 0 .853.071 1.066.284.214.214.356.498.356.782s-.071.497-.213.64c-.142.284-.355.426-.569.426zm-.71-.426h.142c.497 0 .782-.213.782-.569 0-.355-.284-.569-.782-.569h-.213v1.137h.071zm2.913-.213l1.421-1.492h.711l-1.635 1.635 1.635 1.99h-.711l-1.35-1.635-.142.142v1.492h-.569V18.95h.569v1.563h.071z" fill="#f26e21"/><path d="M44.97 15.112h-1.28v-1.28l-1.421-1.421v3.838h3.838zm-5.117-5.117l-1.564 3.98-1.847-4.691h-1.493l2.914 7.178h.782l2.274-5.401z" fill="#3b3d3f"/></svg>