<svg xmlns="http://www.w3.org/2000/svg" viewBox="0 0 60 30"><path d="M55 30H5c-2.75 0-5-2.25-5-5V3.043A3.051 3.051 0 0 1 3.043 0H55c2.75 0 5 2.25 5 5v20c0 2.75-2.25 5-5 5z" fill="#f3f3f3"/><path fill="#2fabf7" d="M13.452 11.452h1.406l-.703-1.79z"/><path d="M30.904 9.918c-.128-.064-.32-.064-.511-.064h-1.279v1.023h1.279c.192 0 .384 0 .511-.064.128-.064.192-.256.192-.447.064-.256-.064-.384-.192-.448z" fill="#228fe0"/><path d="M44.584 8v.767L44.201 8h-3.005v.767L40.813 8h-4.091c-.703 0-1.279.128-1.79.384V8h-2.877v.384C31.735 8.128 31.352 8 30.84 8H20.548l-.703 1.598L19.142 8h-3.26v.767L15.498 8h-2.749l-1.279 3.005L10 14.329h3.26l.384-1.023h.895l.384 1.023h3.708v-.767l.32.767h1.854l.32-.767v.767h8.886v-1.662h.128c.128 0 .128 0 .128.192v1.406h4.603v-.384c.384.192.959.384 1.726.384h1.918l.384-1.023h.895l.384 1.023h3.708v-.959l.575.959h3.005V8h-2.881zm-21.607 5.37H21.89V9.854l-1.534 3.516h-.959l-1.534-3.516v3.516h-2.174l-.447-.959h-2.174l-.384 1.023H11.47l1.918-4.539h1.598l1.79 4.283V8.895h1.726l1.406 3.068 1.279-3.068h1.79v4.475zm4.347-3.516h-2.493v.831h2.429v.895h-2.429v.895h2.493v.959h-3.58V8.895h3.58v.959zm4.795 1.854c.128.256.192.447.192.831v.895h-1.087v-.575c0-.256 0-.639-.192-.895-.192-.192-.384-.192-.767-.192h-1.151v1.662h-1.087V8.895h2.429c.575 0 .959 0 1.279.192s.511.511.511 1.023c0 .703-.447 1.087-.767 1.215.32.063.512.255.64.383zm1.918 1.662H32.95V8.831h1.087v4.539zm12.593 0h-1.534L43.05 9.982v3.388h-2.174l-.384-.959h-2.237l-.384 1.023h-1.215c-.511 0-1.151-.128-1.534-.511-.384-.384-.575-.895-.575-1.726 0-.639.128-1.279.575-1.79.32-.384.895-.511 1.598-.511h1.023v.959H36.72c-.384 0-.575.064-.831.256-.192.192-.32.575-.32 1.023 0 .511.064.831.32 1.087.192.192.447.256.767.256h.447l1.47-3.516h1.598l1.79 4.283V8.959h1.598l1.854 3.132V8.959H46.5v4.411h.13z" fill="#0571c1"/><path d="M38.639 11.452h1.471l-.704-1.79zm-10.867 9.206v-3.644l-1.662 1.79z" fill="#228fe0"/><path fill="#2fabf7" d="M20.932 17.461v.831h2.365v.895h-2.365v.959h2.621l1.214-1.342-1.151-1.343z"/><path d="M30.201 17.461h-1.342v1.151h1.406c.384 0 .639-.192.639-.575-.064-.384-.32-.576-.703-.576z" fill="#228fe0"/><path d="M49.954 18.548v-2.877h-2.685c-.575 0-1.023.128-1.342.384v-.384h-2.941c-.447 0-1.023.128-1.279.384v-.384H36.53v.384c-.384-.32-1.087-.384-1.406-.384h-3.452v.384c-.32-.32-1.087-.384-1.47-.384h-3.836l-.896.959-.831-.959h-5.753v6.265h5.626l.895-.959.831.959h3.452v-1.47h.447c.447 0 1.023 0 1.47-.192V22h2.877v-1.662h.128c.192 0 .192 0 .192.192V22h8.694c.575 0 1.151-.128 1.47-.384V22h2.749c.575 0 1.151-.064 1.534-.32.639-.384 1.023-1.087 1.023-1.918 0-.447-.128-.894-.32-1.214zm-19.817 1.023h-1.279v1.534h-2.046l-1.279-1.47-1.342 1.47h-4.219v-4.539h4.283l1.279 1.47 1.342-1.47h3.388c.831 0 1.79.256 1.79 1.47-.063 1.279-.958 1.535-1.917 1.535zm6.393-.256c.128.192.192.447.192.831v.895h-1.087v-.575c0-.256 0-.703-.192-.895-.128-.192-.384-.192-.767-.192h-1.151v1.662h-1.087v-4.539h2.429c.511 0 .959 0 1.279.192.32.192.575.511.575 1.023 0 .703-.447 1.087-.767 1.215.32.127.512.255.576.383zm4.411-1.854h-2.493v.831h2.429v.895h-2.429v.895h2.493v.959h-3.58v-4.539h3.58v.959zm2.685 3.58H41.58v-.959h2.046c.192 0 .32 0 .447-.128a.489.489 0 0 0 .128-.32.489.489 0 0 0-.128-.32c-.064-.064-.192-.128-.384-.128-1.023-.064-2.237 0-2.237-1.406 0-.639.384-1.342 1.534-1.342h2.11v1.087h-1.982c-.192 0-.32 0-.447.064-.128.064-.128.192-.128.32 0 .192.128.256.256.32s.256.064.384.064h.575c.575 0 .959.128 1.215.384.192.192.32.511.32.959-.001.958-.577 1.405-1.663 1.405zm5.497-.447c-.256.256-.703.447-1.342.447h-2.046v-.959h2.046c.192 0 .32 0 .447-.128a.489.489 0 0 0 .128-.32.489.489 0 0 0-.128-.32c-.064-.064-.192-.128-.384-.128-1.023-.064-2.237 0-2.237-1.406 0-.639.384-1.342 1.534-1.342h2.11v1.087h-1.918c-.192 0-.32 0-.447.064-.128.064-.128.192-.128.32 0 .192.064.256.256.32.128.064.256.064.384.064h.575c.575 0 .959.128 1.215.384.064 0 .064.064.064.064.192.256.256.575.256.895a1.306 1.306 0 0 1-.385.958z" fill="#0571c1"/><path d="M35.379 17.589c-.128-.064-.32-.064-.511-.064h-1.279v1.023h1.279c.192 0 .384 0 .511-.064s.192-.256.192-.447c.064-.256-.064-.384-.192-.448zm-4.475-7.671c-.128-.064-.32-.064-.511-.064h-1.279v1.023h1.279c.192 0 .384 0 .511-.064.128-.064.192-.256.192-.447.064-.256-.064-.384-.192-.448zm7.735 1.534h1.471l-.704-1.79zm-10.867 9.206v-3.644l-1.662 1.79z" fill="#228fe0"/><path d="M30.201 17.461h-1.342v1.151h1.406c.384 0 .639-.192.639-.575-.064-.384-.32-.576-.703-.576zm5.178.128c-.128-.064-.32-.064-.511-.064h-1.279v1.023h1.279c.192 0 .384 0 .511-.064s.192-.256.192-.447c.064-.256-.064-.384-.192-.448z" fill="#228fe0"/><g fill="#2fabf7"><path d="M29.753 20.913l-.895-.959v1.087h-2.109l-1.279-1.47-1.406 1.47h-4.219v-4.475h4.283l1.342 1.471.64-.768-1.599-1.598h-5.625v6.265h5.625l.959-.959.831.959h3.452zm-6.648-6.648l-.831-.895h-.384v-.384l-.958-.959-.64 1.343h-.895l-1.534-3.516v3.516h-2.174l-.447-.959h-2.174l-.447.959H11.47l1.918-4.475h1.598l1.79 4.283V8.895h.959L16.84 8h-.959v.767L15.562 8h-2.813l-1.279 3.005-1.47 3.26h3.324l.384-.959h.895l.447.959h3.58v-.767l.32.767h1.854l.319-.767v.767z"/><path d="M20.164 11.324l-1.022-1.023.767 1.662z"/></g><g fill="#228fe0"><path d="M49.251 21.616a2.341 2.341 0 0 0 1.023-1.726l-.895-.895c.064.192.128.384.128.639a1.3 1.3 0 0 1-.384.959c-.256.256-.703.447-1.342.447h-2.046v-.959h2.046c.192 0 .32 0 .447-.128a.489.489 0 0 0 .128-.32.489.489 0 0 0-.128-.32c-.064-.064-.192-.128-.384-.128-1.023-.064-2.237 0-2.237-1.406 0-.639.384-1.215 1.342-1.342l-.703-.703c-.128.064-.192.128-.256.128v-.384h-2.94c-.447 0-1.023.128-1.279.384v-.384H36.53v.384c-.384-.32-1.087-.384-1.406-.384h-3.452v.384c-.32-.32-1.087-.384-1.47-.384h-3.836l-.895.959-.831-.959h-.703l1.918 1.918.959-1.023h3.388c.831 0 1.79.256 1.79 1.47 0 1.279-.895 1.534-1.854 1.534h-1.279v.959l.959.959v-.959h.32c.447 0 1.023 0 1.47-.192v1.726h2.877v-1.66h.128c.192 0 .192 0 .192.192v1.47h8.694c.575 0 1.151-.128 1.47-.384v.384h2.749c.51.064 1.086 0 1.533-.256zM36.53 19.315c.128.192.192.447.192.831v.895h-1.087v-.575c0-.256 0-.703-.192-.895-.128-.192-.384-.192-.767-.192h-1.151v1.662h-1.087v-4.539h2.429c.511 0 .959 0 1.279.192.32.192.575.511.575 1.023 0 .703-.447 1.087-.767 1.215.32.127.512.255.576.383zm4.411-1.854h-2.493v.831h2.429v.895h-2.429v.895h2.493v.959h-3.58v-4.539h3.58v.959zm2.685 3.58H41.58v-.959h2.046c.192 0 .32 0 .447-.128a.489.489 0 0 0 .128-.32.489.489 0 0 0-.128-.32c-.064-.064-.192-.128-.384-.128-1.023-.064-2.237 0-2.237-1.406 0-.639.384-1.342 1.534-1.342h2.11v1.087h-1.982c-.192 0-.32 0-.447.064-.128.064-.128.192-.128.32 0 .192.128.256.256.32s.256.064.384.064h.575c.575 0 .959.128 1.215.384.192.192.32.511.32.959-.001.958-.577 1.405-1.663 1.405z"/><path d="M46.694 17.909c0 .192.064.256.256.32.128.064.256.064.384.064h.575c.384 0 .639.064.895.192l-.959-.959h-.575c-.192 0-.32 0-.447.064a.48.48 0 0 0-.129.319zm-2.237-3.836l.127.192h.064zm-3.516-3.516l1.086 2.621v-1.534z"/><path d="M30.009 12.667h.128c.128 0 .128 0 .128.192v1.406h4.603v-.384c.384.192.959.384 1.726.384h1.918l.384-1.023h.895l.384 1.023h3.708v-.639l-.895-.895v.703h-2.174l-.32-1.023h-2.237l-.384 1.023h-1.215c-.511 0-1.151-.128-1.534-.511-.384-.384-.575-.895-.575-1.726 0-.639.128-1.279.575-1.79.32-.384.895-.511 1.598-.511h1.023v.959h-1.023c-.384 0-.575.064-.831.256-.192.192-.32.575-.32 1.023 0 .511.064.831.32 1.087.192.192.447.256.767.256h.447l1.47-3.516h.639l-.894-.897h-1.662c-.703 0-1.279.128-1.79.384v-.384h-2.813v.384c-.32-.256-.703-.384-1.215-.384H20.548l-.703 1.598-.703-1.598h-2.813l.895.895h1.279l1.087 2.365.384.384 1.151-2.813h1.79v4.539h-1.087V9.918l-1.087 2.557 1.854 1.854h7.352l.062-1.662zm2.941-3.772h1.087v4.539H32.95V8.895zm-5.626.959h-2.493v.831h2.429v.895h-2.429v.895h2.493v.959h-3.58V8.895h3.58v.959zm1.79 3.516h-1.087V8.831h2.429c.575 0 .959 0 1.279.192.32.192.511.511.511 1.023 0 .703-.447 1.087-.767 1.215a.835.835 0 0 1 .511.384c.128.256.192.447.192.831v.895h-1.087v-.575c0-.256 0-.639-.192-.895-.064-.128-.256-.128-.639-.128h-1.151l.001 1.597z"/></g></svg>