<svg xmlns="http://www.w3.org/2000/svg" viewBox="0 0 60 30"><path d="M55 30H5c-2.75 0-5-2.25-5-5V3.043A3.051 3.051 0 0 1 3.043 0H55c2.75 0 5 2.25 5 5v20c0 2.75-2.25 5-5 5z" fill="#f3f3f3"/><path d="M43.458 25.713v.054h.05a.052.052 0 0 0 .027-.007c.007-.005.01-.012.01-.021 0-.008-.003-.016-.01-.02a.052.052 0 0 0-.027-.007l-.05.001zm.051-.038a.09.09 0 0 1 .06.018.058.058 0 0 1 .021.048.055.055 0 0 1-.017.042.08.08 0 0 1-.048.02l.067.077h-.052l-.062-.076h-.02v.076h-.043v-.204l.094-.001zm-.014.275a.165.165 0 0 0 .12-.05.168.168 0 0 0 .037-.188.18.18 0 0 0-.091-.091.169.169 0 0 0-.066-.013.17.17 0 0 0-.158.239.15.15 0 0 0 .036.054.184.184 0 0 0 .055.037.154.154 0 0 0 .067.013m0-.391a.227.227 0 0 1 .207.135.22.22 0 0 1-.048.241.237.237 0 0 1-.071.047.228.228 0 0 1-.249-.048.23.23 0 0 1-.047-.072.22.22 0 0 1 .048-.241.204.204 0 0 1 .072-.047.225.225 0 0 1 .089-.018m-20.664-.786c0-.389.255-.709.672-.709.398 0 .667.306.667.709s-.269.709-.667.709c-.417 0-.672-.32-.672-.709m1.793 0v-1.108h-.482v.27c-.153-.199-.384-.325-.7-.325-.621 0-1.108.487-1.108 1.163s.487 1.163 1.108 1.163c.315 0 .547-.125.7-.325v.269h.481l.001-1.107zm16.274 0c0-.389.255-.709.672-.709.399 0 .667.306.667.709s-.268.709-.667.709c-.417 0-.672-.32-.672-.709m1.793 0v-1.997h-.482v1.159c-.153-.199-.384-.325-.7-.325-.621 0-1.108.487-1.108 1.163s.487 1.163 1.108 1.163c.315 0 .547-.125.7-.325v.269h.482v-1.107zm-12.089-.732c.31 0 .51.195.561.537h-1.149c.05-.319.245-.537.588-.537m.009-.432c-.649 0-1.103.472-1.103 1.163 0 .704.472 1.163 1.135 1.163.334 0 .639-.083.908-.31l-.236-.357a1.06 1.06 0 0 1-.644.232c-.31 0-.593-.144-.662-.542h1.645c.005-.06.01-.12.01-.185-.006-.691-.433-1.164-1.053-1.164m5.815 1.163c0-.389.255-.709.672-.709.398 0 .667.306.667.709s-.269.709-.667.709c-.417.001-.672-.319-.672-.709m1.793 0v-1.107h-.481v.27c-.153-.199-.384-.325-.7-.325-.621 0-1.108.487-1.108 1.163s.487 1.163 1.108 1.163c.315 0 .546-.125.7-.325v.269h.481V24.77zm-4.513 0c0 .672.468 1.163 1.182 1.163.334 0 .556-.074.796-.264l-.231-.389a.974.974 0 0 1-.58.199c-.384-.005-.667-.283-.667-.709s.283-.704.667-.709c.209 0 .399.069.58.199l.231-.389c-.241-.19-.463-.264-.796-.264-.714 0-1.182.491-1.182 1.163m6.209-1.163a.653.653 0 0 0-.584.325v-.269h-.477v2.215h.482v-1.242c0-.367.157-.57.472-.57a.777.777 0 0 1 .301.056l.148-.454a1.043 1.043 0 0 0-.342-.061m-12.91.232c-.232-.153-.551-.232-.903-.232-.561 0-.922.269-.922.709 0 .361.269.584.764.653l.228.032c.264.037.389.107.389.232 0 .171-.175.269-.505.269-.334 0-.574-.107-.737-.232l-.226.376c.264.195.598.287.959.287.64 0 1.01-.301 1.01-.723 0-.389-.292-.593-.774-.662l-.227-.033c-.208-.027-.376-.069-.376-.217 0-.162.157-.259.422-.259.283 0 .556.107.691.19l.207-.39zm6.215-.231a.65.65 0 0 0-.583.325v-.269h-.478v2.215h.482v-1.242c0-.367.157-.57.472-.57a.777.777 0 0 1 .301.056l.148-.454a.994.994 0 0 0-.342-.061m-4.11.055h-.788v-.672h-.487v.672h-.449v.44h.449v1.01c0 .514.199.82.769.82.209 0 .45-.065.603-.171l-.139-.412a.894.894 0 0 1-.426.125c-.241 0-.319-.148-.319-.371v-1.001h.788v-.44zm-7.201 2.216v-1.39c0-.523-.334-.876-.871-.88-.283-.005-.574.083-.779.394-.153-.246-.394-.394-.732-.394-.237 0-.468.069-.649.329v-.274h-.482v2.215h.486V24.65c0-.384.213-.589.542-.589.32 0 .482.208.482.584v1.233h.487V24.65c0-.384.222-.589.542-.589.329 0 .486.208.486.584v1.233l.488.001z" fill="#231f20"/><path d="M43.732 18.511v-.324h-.084l-.098.223-.097-.222h-.085v.324h.06v-.244l.091.211h.062l.091-.211v.245h.06v-.002zm-.535 0v-.268h.108v-.055h-.276v.055h.108v.268h.06z" fill="#f79410"/><path d="M34.146 19.9h-7.299V6.783h7.299V19.9z" fill="#ff5f00"/><path d="M27.31 13.342a8.326 8.326 0 0 1 3.186-6.558A8.341 8.341 0 0 0 17 13.342 8.341 8.341 0 0 0 30.496 19.9a8.326 8.326 0 0 1-3.186-6.558" fill="#eb001b"/><path d="M43.993 13.342A8.341 8.341 0 0 1 30.496 19.9c1.941-1.527 3.186-3.898 3.186-6.558s-1.246-5.031-3.186-6.558a8.342 8.342 0 0 1 13.497 6.558" fill="#f79e1b"/></svg>