<svg xmlns="http://www.w3.org/2000/svg" viewBox="0 0 511.998 511.998" width="512" height="512"><path d="M414.498 188.525h-32.234l9.712-111.509c.018-.202.021-.401.022-.6l.002-.05v-.008a7.5 7.5 0 0 0-4.522-6.873l-.068-.032c-.167-.07-.34-.13-.514-.188-.065-.021-.127-.047-.192-.067-.142-.043-.288-.077-.433-.112-.102-.024-.2-.053-.303-.073-.127-.025-.259-.041-.389-.06-.122-.018-.242-.039-.365-.05l-.061-.008c-.132-.012-.262-.01-.393-.015-.088-.003-.174-.013-.262-.013H231.01c-4.14 0-7.5 3.36-7.5 7.5 0 4.13 3.36 7.5 7.5 7.5h145.313l-14.926 171.375-.004.039-3.766 43.241H97.018l4.359-44.998h49.621a7.5 7.5 0 0 0 7.5-7.5 7.5 7.5 0 0 0-7.5-7.5h-48.167l9.204-94.995h78.975a7.5 7.5 0 0 0 7.5-7.5 7.5 7.5 0 0 0-7.5-7.5h-77.521l4.328-44.662h83.193c4.13 0 7.5-3.37 7.5-7.5 0-4.14-3.37-7.5-7.5-7.5h-90l-.011.001a7.502 7.502 0 0 0-7.318 5.917c-.005.025-.014.049-.019.074a8.15 8.15 0 0 0-.088.57c-.007.061-.02.119-.026.18l-.005.035-5.124 52.885H7.5a7.5 7.5 0 0 0-7.5 7.5 7.5 7.5 0 0 0 7.5 7.5h89.465l-9.204 94.995H61.002a7.5 7.5 0 0 0-7.5 7.5 7.5 7.5 0 0 0 7.5 7.5h25.306l-5.012 51.721-.002.023-7.749 79.979-.003.027-.003.029c-.01.104-.009.206-.015.31-.007.138-.021.273-.021.413l.001.019c0 .193.014.383.028.573.006.061.004.123.011.183.02.194.053.385.088.575.01.056.015.113.026.168.029.144.07.283.108.424.026.099.047.2.077.297.009.027.021.053.029.081a7.498 7.498 0 0 0 1.783 2.936c.015.015.027.032.042.046.08.08.167.152.251.228a7.443 7.443 0 0 0 1.74 1.191c.133.066.264.135.4.192.041.018.085.03.127.046.188.075.377.147.572.208.018.005.035.008.053.014.222.066.446.124.675.171.03.006.061.008.09.014.218.041.437.076.66.098l.014.002c.246.024.49.036.732.036l.011-.001h33.388c3.687 27.953 27.652 49.603 56.597 49.603 28.943 0 52.908-21.65 56.595-49.603H347.9c3.688 27.953 27.652 49.603 56.596 49.603 28.943 0 52.91-21.65 56.598-49.603h33.396l.016.001c.25 0 .496-.015.74-.039.044-.004.086-.013.13-.018a7.34 7.34 0 0 0 .579-.088c.082-.016.161-.038.242-.057a7.24 7.24 0 0 0 .439-.113c.098-.029.193-.063.289-.096.123-.042.246-.086.367-.135.104-.041.203-.086.304-.131a7.07 7.07 0 0 0 .931-.506c.094-.06.188-.121.278-.185.102-.071.199-.146.298-.222.082-.065.165-.129.245-.197.103-.087.2-.178.298-.271.068-.065.139-.129.205-.197.104-.106.203-.218.302-.331.053-.061.108-.12.159-.182.11-.136.21-.276.31-.417.034-.049.072-.095.105-.145.122-.183.237-.371.343-.565.008-.012.016-.023.021-.036a7.28 7.28 0 0 0 .31-.641c.026-.063.046-.128.071-.191a7.32 7.32 0 0 0 .172-.471c.033-.104.057-.211.086-.316.033-.125.068-.249.096-.376.025-.113.041-.229.06-.344.017-.101.039-.2.052-.303.318-2.548 6.191-49.667 8.814-80.135l.007-.088c.755-8.783 1.239-16.179 1.239-20.707 0-53.761-43.738-97.5-97.5-97.5zm-33.541 15.002h30.683l-3.919 44.996h-30.683l3.919-44.996zM171.008 428.129c-23.217 0-42.105-18.888-42.105-42.104s18.889-42.104 42.105-42.104 42.104 18.888 42.104 42.104-18.888 42.104-42.104 42.104zm233.488 0c-23.216 0-42.103-18.888-42.103-42.104s18.888-42.104 42.103-42.104c23.217 0 42.105 18.888 42.105 42.104s-18.888 42.104-42.105 42.104zm83.367-49.607h-26.767c-3.686-27.955-27.652-49.606-56.598-49.606-28.944 0-52.91 21.652-56.596 49.606H227.604c-3.686-27.955-27.651-49.606-56.596-49.606s-52.912 21.652-56.598 49.606H89.266l6.299-65.004H364.5v.004h.011c.251 0 .5-.014.746-.039.046-.004.091-.014.137-.02.196-.023.391-.051.583-.089.083-.017.164-.04.246-.06.15-.036.3-.071.446-.115.1-.03.195-.066.292-.1.126-.044.252-.087.374-.137.105-.043.206-.091.308-.139.111-.051.222-.102.329-.158.102-.054.202-.112.303-.17.103-.06.205-.121.305-.185.097-.063.189-.129.282-.195.099-.07.195-.142.291-.217a8.456 8.456 0 0 0 .759-.691 8.083 8.083 0 0 0 .46-.526 8.402 8.402 0 0 0 .412-.57c.073-.113.143-.229.21-.347.051-.088.103-.176.149-.266.063-.118.117-.238.174-.359.044-.097.089-.192.129-.292.049-.118.09-.239.133-.36.037-.107.076-.214.109-.324.033-.116.06-.235.09-.353.029-.119.061-.237.084-.358.023-.118.037-.238.055-.358.018-.124.039-.246.051-.372.002-.018.006-.035.007-.053l3.759-43.15h38.762c22.979 0 33.343 11.906 44.314 24.512 9.053 10.401 19.16 22.006 36.34 24.837-2.182 23.07-5.709 52.686-7.287 65.654zm8.569-80.684c-11.145-2.272-18.002-10.107-26.309-19.651-10.389-11.935-23.072-26.5-47.385-29.214l3.88-44.548c39.764 5.881 70.38 40.229 70.38 81.602 0 2.811-.21 6.895-.566 11.811z" fill="#FFF"/><path d="M171.008 358.524c-15.163 0-27.5 12.336-27.5 27.5s12.337 27.5 27.5 27.5 27.5-12.336 27.5-27.5c0-15.163-12.337-27.5-27.5-27.5zm0 40c-6.893 0-12.5-5.607-12.5-12.5s5.607-12.5 12.5-12.5 12.5 5.607 12.5 12.5-5.608 12.5-12.5 12.5zm233.488-40c-15.163 0-27.5 12.336-27.5 27.5s12.337 27.5 27.5 27.5 27.5-12.336 27.5-27.5c0-15.163-12.337-27.5-27.5-27.5zm0 40c-6.893 0-12.5-5.607-12.5-12.5s5.607-12.5 12.5-12.5 12.5 5.607 12.5 12.5-5.607 12.5-12.5 12.5zM71 188.527H34.334a7.5 7.5 0 0 0-7.5 7.5 7.5 7.5 0 0 0 7.5 7.5H71a7.5 7.5 0 0 0 7.5-7.5 7.5 7.5 0 0 0-7.5-7.5z" fill="#FFF"/></svg>