<svg width="512pt" height="512pt" viewBox="0 -20 512.004 512" xmlns="http://www.w3.org/2000/svg"><path d="M256 472c-105.91 0-198.3-71.539-224.69-173.98-1.102-4.273 1.48-8.64 5.762-9.746 4.238-1.07 8.64 1.48 9.742 5.762 24.555 95.359 110.58 161.96 209.19 161.96 119.1 0 216-96.898 216-216 0-4.426 3.574-8 8-8 4.422 0 8 3.574 8 8 0 127.92-104.08 232-232 232zM32.004 240c-4.426 0-8-3.578-8-8 0-127.92 104.08-232 232-232 105.91 0 198.3 71.535 224.69 173.97 1.102 4.273-1.48 8.64-5.762 9.746-4.215 1.113-8.633-1.48-9.742-5.762-24.555-95.359-110.58-161.96-209.18-161.96-119.11 0-216 96.895-216 216 0 4.422-3.578 8-8 8z" fill="#fff"/><path d="M32.004 240a7.964 7.964 0 0 1-5.656-2.348l-24-24a7.986 7.986 0 0 1 0-11.309 7.986 7.986 0 0 1 11.309 0l24 24a7.986 7.986 0 0 1 0 11.31A7.963 7.963 0 0 1 32.005 240z" fill="#fff"/><path d="M32.004 240a7.964 7.964 0 0 1-5.656-2.348 7.986 7.986 0 0 1 0-11.309l24-24a7.986 7.986 0 0 1 11.309 0 7.986 7.986 0 0 1 0 11.31l-24 24A7.963 7.963 0 0 1 32.005 240zM504 264a7.964 7.964 0 0 1-5.656-2.348l-24-24a7.986 7.986 0 0 1 0-11.309 7.986 7.986 0 0 1 11.309 0l24 24a7.986 7.986 0 0 1 0 11.31A7.963 7.963 0 0 1 504 264z" fill="#fff"/><path d="M456 264a7.964 7.964 0 0 1-5.656-2.348 7.986 7.986 0 0 1 0-11.309l24-24a7.986 7.986 0 0 1 11.309 0 7.986 7.986 0 0 1 0 11.31l-24 24A7.963 7.963 0 0 1 456 264zM111.98 419.56c-4.422 0-8-3.578-8-8V207.92c0-4.426 3.578-8 8-8 4.426 0 8 3.574 8 8v203.64c0 4.422-3.574 8-8 8zm288.04.02a7.99 7.99 0 0 1-8-8V207.92c0-4.426 3.574-8 8-8 4.422 0 8 3.574 8 8v203.66c0 4.426-3.578 8-8 8z" fill="#fff"/><path d="M400.02 215.92H111.98c-4.422 0-8-3.574-8-8s3.578-8 8-8h288.04c4.422 0 8 3.574 8 8s-3.578 8-8 8z" fill="#fff"/><path d="M111.98 215.92a7.928 7.928 0 0 1-4.11-1.145c-3.792-2.269-5.015-7.183-2.745-10.977l24-40.016c2.265-3.78 7.175-5.015 10.977-2.742 3.793 2.27 5.015 7.184 2.746 10.977l-24 40.016a7.977 7.977 0 0 1-6.868 3.887zm288.05 0a7.987 7.987 0 0 1-6.867-3.879l-24-40.016c-2.27-3.793-1.047-8.707 2.746-10.977a8.006 8.006 0 0 1 10.977 2.742l24 40.016c2.27 3.793 1.047 8.707-2.746 10.977a8.014 8.014 0 0 1-4.11 1.137z" fill="#fff"/><path d="M376.02 175.91H135.98c-4.422 0-8-3.578-8-8 0-4.426 3.578-8 8-8h240.04c4.422 0 8 3.574 8 8 0 4.422-3.578 8-8 8z" fill="#fff"/><path d="M223.99 215.92a7.53 7.53 0 0 1-1.574-.16 7.995 7.995 0 0 1-6.274-9.414l8-40.02c.86-4.324 5.036-7.176 9.418-6.27a7.995 7.995 0 0 1 6.274 9.414l-8 40.016c-.762 3.809-4.106 6.434-7.844 6.434zm64 0c-3.734 0-7.078-2.625-7.832-6.434l-8-40.016a8.005 8.005 0 0 1 6.273-9.414c4.391-.898 8.551 1.946 9.418 6.27l8 40.02a8.005 8.005 0 0 1-6.273 9.414c-.535.113-1.07.16-1.586.16z" fill="#fff"/><path d="M223.98 263.92c-4.422 0-8-3.574-8-8v-48c0-4.426 3.578-8 8-8 4.426 0 8 3.574 8 8v48c0 4.426-3.574 8-8 8zm64.02 0a7.99 7.99 0 0 1-8-8v-48c0-4.426 3.574-8 8-8 4.422 0 8 3.574 8 8v48c0 4.426-3.578 8-8 8z" fill="#fff"/><path d="M288.01 263.92c-.64 0-1.297-.078-1.945-.238l-32-8c-4.29-1.074-6.895-5.418-5.824-9.7 1.062-4.292 5.398-6.91 9.695-5.824l32 8c4.289 1.075 6.898 5.418 5.824 9.7a7.987 7.987 0 0 1-7.75 6.062z" fill="#fff"/><path d="M223.98 263.92a8 8 0 0 1-7.75-6.063c-1.082-4.28 1.527-8.625 5.824-9.699l32.016-8c4.274-1.093 8.625 1.532 9.695 5.825 1.082 4.28-1.527 8.625-5.824 9.699l-32.016 8a8.131 8.131 0 0 1-1.945.238zm104.06 96.02H183.97c-4.422 0-8-3.574-8-8 0-4.422 3.578-8 8-8h144.07c4.422 0 8 3.578 8 8 0 4.426-3.578 8-8 8zm0-31.94H183.97c-4.422 0-8-3.578-8-8 0-4.426 3.578-8 8-8h144.07c4.422 0 8 3.574 8 8 0 4.422-3.578 8-8 8zm-40.02 63.95h-64.035c-4.422 0-8-3.574-8-8 0-4.422 3.578-8 8-8h64.035c4.422 0 8 3.578 8 8 0 4.426-3.578 8-8 8z" fill="#fff"/></svg>