<?xml version="1.0" encoding="iso-8859-1"?>
<!-- Generator: Adobe Illustrator 22.1.0, SVG Export Plug-In . SVG Version: 6.00 Build 0)  -->
<svg version="1.1" id="&#x421;&#x43B;&#x43E;&#x439;_1"
	 xmlns="http://www.w3.org/2000/svg" xmlns:xlink="http://www.w3.org/1999/xlink" x="0px" y="0px" viewBox="0 0 60 30"
	 style="enable-background:new 0 0 60 30;" xml:space="preserve">
<path style="fill:#F3F3F3;" d="M55,30H5c-2.75,0-5-2.25-5-5V3.043C0,1.369,1.369,0,3.043,0H55c2.75,0,5,2.25,5,5v20
	C60,27.75,57.75,30,55,30z"/>
<g>
	<path style="fill:#231F20;" d="M43.458,25.713v0.054h0.05c0.009,0,0.019-0.002,0.027-0.007c0.007-0.005,0.01-0.012,0.01-0.021
		c0-0.008-0.003-0.016-0.01-0.02c-0.008-0.005-0.018-0.007-0.027-0.007L43.458,25.713L43.458,25.713z M43.509,25.675
		c0.022-0.001,0.043,0.005,0.06,0.018c0.014,0.012,0.022,0.029,0.021,0.048c0.001,0.016-0.006,0.031-0.017,0.042
		c-0.014,0.012-0.03,0.019-0.048,0.02l0.067,0.077H43.54l-0.062-0.076h-0.02v0.076h-0.043v-0.204L43.509,25.675L43.509,25.675z
		 M43.495,25.95c0.023,0,0.045-0.004,0.066-0.013c0.02-0.009,0.038-0.021,0.054-0.037c0.016-0.015,0.028-0.034,0.037-0.054
		c0.018-0.043,0.018-0.091,0-0.134c-0.009-0.02-0.021-0.038-0.037-0.054c-0.016-0.015-0.034-0.028-0.054-0.037
		c-0.021-0.009-0.044-0.013-0.066-0.013c-0.023,0-0.046,0.004-0.067,0.013c-0.021,0.009-0.039,0.021-0.055,0.037
		c-0.049,0.05-0.063,0.124-0.036,0.189c0.008,0.02,0.02,0.039,0.036,0.054c0.016,0.016,0.035,0.028,0.055,0.037
		c0.021,0.009,0.044,0.014,0.067,0.013 M43.495,25.56c0.059,0,0.116,0.023,0.159,0.065c0.02,0.02,0.037,0.044,0.048,0.07
		c0.023,0.055,0.023,0.116,0,0.171c-0.011,0.026-0.028,0.05-0.048,0.07c-0.021,0.02-0.045,0.036-0.071,0.047
		C43.555,25.994,43.525,26,43.495,26c-0.03,0-0.061-0.006-0.089-0.018c-0.027-0.011-0.051-0.027-0.072-0.047
		c-0.02-0.021-0.036-0.045-0.047-0.072c-0.023-0.055-0.023-0.116,0-0.171c0.011-0.026,0.027-0.05,0.048-0.07
		c0.02-0.02,0.045-0.037,0.072-0.047c0.028-0.012,0.058-0.018,0.089-0.018 M22.832,24.771c0-0.389,0.255-0.709,0.672-0.709
		c0.398,0,0.667,0.306,0.667,0.709s-0.269,0.709-0.667,0.709C23.087,25.48,22.832,25.16,22.832,24.771 M24.625,24.771v-1.108h-0.482
		v0.27c-0.153-0.199-0.384-0.325-0.7-0.325c-0.621,0-1.108,0.487-1.108,1.163s0.487,1.163,1.108,1.163
		c0.315,0,0.547-0.125,0.7-0.325v0.269h0.481L24.625,24.771L24.625,24.771z M40.899,24.771c0-0.389,0.255-0.709,0.672-0.709
		c0.399,0,0.667,0.306,0.667,0.709s-0.268,0.709-0.667,0.709C41.154,25.48,40.899,25.16,40.899,24.771 M42.692,24.771v-1.997H42.21
		v1.159c-0.153-0.199-0.384-0.325-0.7-0.325c-0.621,0-1.108,0.487-1.108,1.163s0.487,1.163,1.108,1.163
		c0.315,0,0.547-0.125,0.7-0.325v0.269h0.482V24.771z M30.603,24.039c0.31,0,0.51,0.195,0.561,0.537h-1.149
		C30.065,24.257,30.26,24.039,30.603,24.039 M30.612,23.607c-0.649,0-1.103,0.472-1.103,1.163c0,0.704,0.472,1.163,1.135,1.163
		c0.334,0,0.639-0.083,0.908-0.31l-0.236-0.357c-0.186,0.148-0.422,0.232-0.644,0.232c-0.31,0-0.593-0.144-0.662-0.542h1.645
		c0.005-0.06,0.01-0.12,0.01-0.185C31.659,24.08,31.232,23.607,30.612,23.607 M36.427,24.77c0-0.389,0.255-0.709,0.672-0.709
		c0.398,0,0.667,0.306,0.667,0.709s-0.269,0.709-0.667,0.709C36.682,25.48,36.427,25.16,36.427,24.77 M38.22,24.77v-1.107h-0.481
		v0.27c-0.153-0.199-0.384-0.325-0.7-0.325c-0.621,0-1.108,0.487-1.108,1.163s0.487,1.163,1.108,1.163
		c0.315,0,0.546-0.125,0.7-0.325v0.269h0.481L38.22,24.77L38.22,24.77z M33.707,24.77c0,0.672,0.468,1.163,1.182,1.163
		c0.334,0,0.556-0.074,0.796-0.264l-0.231-0.389c-0.181,0.13-0.371,0.199-0.58,0.199c-0.384-0.005-0.667-0.283-0.667-0.709
		s0.283-0.704,0.667-0.709c0.209,0,0.399,0.069,0.58,0.199l0.231-0.389c-0.241-0.19-0.463-0.264-0.796-0.264
		C34.175,23.607,33.707,24.098,33.707,24.77 M39.916,23.607c-0.278,0-0.459,0.13-0.584,0.325v-0.269h-0.477v2.215h0.482v-1.242
		c0-0.367,0.157-0.57,0.472-0.57c0.103-0.001,0.205,0.017,0.301,0.056l0.148-0.454C40.152,23.626,40.013,23.608,39.916,23.607
		 M27.006,23.839c-0.232-0.153-0.551-0.232-0.903-0.232c-0.561,0-0.922,0.269-0.922,0.709c0,0.361,0.269,0.584,0.764,0.653
		l0.228,0.032c0.264,0.037,0.389,0.107,0.389,0.232c0,0.171-0.175,0.269-0.505,0.269c-0.334,0-0.574-0.107-0.737-0.232l-0.226,0.376
		c0.264,0.195,0.598,0.287,0.959,0.287c0.64,0,1.01-0.301,1.01-0.723c0-0.389-0.292-0.593-0.774-0.662l-0.227-0.033
		c-0.208-0.027-0.376-0.069-0.376-0.217c0-0.162,0.157-0.259,0.422-0.259c0.283,0,0.556,0.107,0.691,0.19L27.006,23.839
		L27.006,23.839z M33.221,23.608c-0.278,0-0.459,0.13-0.583,0.325v-0.269H32.16v2.215h0.482v-1.242c0-0.367,0.157-0.57,0.472-0.57
		c0.103-0.001,0.205,0.017,0.301,0.056l0.148-0.454C33.457,23.626,33.318,23.608,33.221,23.608 M29.111,23.663h-0.788v-0.672h-0.487
		v0.672h-0.449v0.44h0.449v1.01c0,0.514,0.199,0.82,0.769,0.82c0.209,0,0.45-0.065,0.603-0.171l-0.139-0.412
		c-0.144,0.083-0.301,0.125-0.426,0.125c-0.241,0-0.319-0.148-0.319-0.371v-1.001h0.788V23.663z M21.91,25.879v-1.39
		c0-0.523-0.334-0.876-0.871-0.88c-0.283-0.005-0.574,0.083-0.779,0.394c-0.153-0.246-0.394-0.394-0.732-0.394
		c-0.237,0-0.468,0.069-0.649,0.329v-0.274h-0.482v2.215h0.486V24.65c0-0.384,0.213-0.589,0.542-0.589
		c0.32,0,0.482,0.208,0.482,0.584v1.233h0.487V24.65c0-0.384,0.222-0.589,0.542-0.589c0.329,0,0.486,0.208,0.486,0.584v1.233
		L21.91,25.879z"/>
	<path style="fill:#F79410;" d="M43.732,18.511v-0.324h-0.084L43.55,18.41l-0.097-0.222h-0.085v0.324h0.06v-0.244l0.091,0.211h0.062
		l0.091-0.211v0.245H43.732L43.732,18.511z M43.197,18.511v-0.268h0.108v-0.055h-0.276v0.055h0.108v0.268H43.197L43.197,18.511z"/>
	<path style="fill:#FF5F00;" d="M34.146,19.9h-7.299V6.783h7.299L34.146,19.9z"/>
	<path style="fill:#EB001B;" d="M27.31,13.342c0-2.661,1.246-5.031,3.186-6.558C29.027,5.626,27.211,4.997,25.341,5
		C20.734,5,17,8.735,17,13.342s3.734,8.342,8.341,8.342c1.87,0.003,3.686-0.626,5.155-1.784
		C28.556,18.373,27.31,16.003,27.31,13.342"/>
	<path style="fill:#F79E1B;" d="M43.993,13.342c0,4.607-3.734,8.342-8.341,8.342c-1.87,0.003-3.687-0.626-5.156-1.784
		c1.941-1.527,3.186-3.898,3.186-6.558s-1.246-5.031-3.186-6.558C31.965,5.626,33.781,4.997,35.652,5
		C40.258,5,43.993,8.735,43.993,13.342"/>
</g>
<g>
</g>
<g>
</g>
<g>
</g>
<g>
</g>
<g>
</g>
<g>
</g>
<g>
</g>
<g>
</g>
<g>
</g>
<g>
</g>
<g>
</g>
</svg>
