<?xml version="1.0" encoding="utf-8"?>
<!-- Generator: Adobe Illustrator 22.1.0, SVG Export Plug-In . SVG Version: 6.00 Build 0)  -->
<svg version="1.1" id="Layer_1" xmlns="http://www.w3.org/2000/svg" xmlns:xlink="http://www.w3.org/1999/xlink" x="0px" y="0px"
	 viewBox="0 0 512 323.9" style="enable-background:new 0 0 512 323.9;" xml:space="preserve">
<style type="text/css">
	.st0{fill:#BEA67C;}
	.st1{display:none;}
	.st2{display:inline;}
</style>
<path d="M476.2,137.3l-13.3-53c3.6-0.8,6.3-4,6.3-7.8v-8.6c0-18.6-15.1-33.7-33.7-33.7h-60.4V16.6c0-9.1-7.4-16.6-16.6-16.6H50.8
	c-9.1,0-16.6,7.4-16.6,16.6v145.4c0,4.4,3.6,8,8,8s8-3.6,8-8V16.6c0-0.3,0.2-0.5,0.5-0.5h307.8c0.3,0,0.5,0.2,0.5,0.5v145.4
	c0,4.4,3.6,8,8,8c4.4,0,8-3.6,8-8v-9.1h94.6c0,0,0,0,0,0s0,0,0,0c11.6,0,21.5,7.6,24.9,18.2h-24.9c-4.4,0-8,3.6-8,8v17.1
	c0,13.9,11.3,25.1,25.1,25.1h9.1v35.3h-21c-6.9-19.9-25.8-34.2-48-34.2s-41.1,14.3-48,34.2h-3.9v-60.4c0-4.4-3.6-8-8-8
	c-4.4,0-8,3.6-8,8v60.4H192.8c-6.9-19.9-25.8-34.2-48-34.2s-41.1,14.3-48,34.2H50.8c-0.3,0-0.5-0.2-0.5-0.5v-17.6H85
	c4.4,0,8-3.6,8-8c0-4.4-3.6-8-8-8H8c-4.4,0-8,3.6-8,8c0,4.4,3.6,8,8,8h26.2V256c0,9.1,7.4,16.6,16.6,16.6h43.3c0,0.2,0,0.4,0,0.5
	c0,28,22.8,50.8,50.8,50.8s50.8-22.8,50.8-50.8c0-0.2,0-0.4,0-0.5h180.7c0,0.2,0,0.4,0,0.5c0,28,22.8,50.8,50.8,50.8
	s50.8-22.8,50.8-50.8c0-0.2,0-0.4,0-0.5H504c4.4,0,8-3.6,8-8V179C512,157.9,496.4,140.4,476.2,137.3z M375.2,84.4h71.2l13.1,52.4
	h-84.3L375.2,84.4L375.2,84.4z M435.6,50.2c9.7,0,17.6,7.9,17.6,17.6v0.5h-78V50.2H435.6z M144.8,307.8c-19.2,0-34.7-15.6-34.7-34.7
	s15.6-34.7,34.7-34.7s34.7,15.6,34.7,34.7S164,307.8,144.8,307.8z M427,307.8c-19.2,0-34.7-15.6-34.7-34.7s15.6-34.7,34.7-34.7
	c19.2,0,34.7,15.6,34.7,34.7C461.8,292.3,446.2,307.8,427,307.8z M486.9,205.2c-5,0-9.1-4.1-9.1-9.1v-9.1H496v18.2L486.9,205.2
	L486.9,205.2z"/>
<path d="M144.8,256.5c-9.1,0-16.6,7.4-16.6,16.6s7.4,16.6,16.6,16.6c9.1,0,16.6-7.4,16.6-16.6S154,256.5,144.8,256.5z"/>
<path d="M427,256.5c-9.1,0-16.6,7.4-16.6,16.6s7.4,16.6,16.6,16.6s16.6-7.4,16.6-16.6S436.2,256.5,427,256.5z"/>
<path d="M205.2,230.3c0,4.4,3.6,8,8,8H333c4.4,0,8-3.6,8-8c0-4.4-3.6-8-8-8H213.2C208.8,222.3,205.2,225.9,205.2,230.3z"/>
<path d="M25.1,204.2h102.6c4.4,0,8-3.6,8-8c0-4.4-3.6-8-8-8H25.1c-4.4,0-8,3.6-8,8C17.1,200.6,20.7,204.2,25.1,204.2z"/>
<path class="st0" d="M267.4,79.3l-71.3,71.3l-37.1-37.1c-3.1-3.1-8.2-3.1-11.3,0c-3.1,3.1-3.1,8.2,0,11.3l42.8,42.8
	c1.6,1.6,3.6,2.3,5.7,2.3s4.1-0.8,5.7-2.3l77-77c3.1-3.1,3.1-8.2,0-11.3C275.6,76.2,270.6,76.2,267.4,79.3z"/>
<g class="st1">
	<g class="st2">
		<path class="st0" d="M-195.7,84.9c-0.8-2.4-2.8-4.1-5.3-4.5l-33.3-4.8l-14.9-30.2c-1.1-2.3-3.4-3.7-5.9-3.7
			c-2.5,0-4.8,1.4-5.9,3.7L-276,75.5l-33.3,4.8c-2.5,0.4-4.6,2.1-5.3,4.5c-0.8,2.4-0.1,5,1.7,6.8l24.1,23.5l-5.7,33.2
			c-0.4,2.5,0.6,5,2.6,6.5c2,1.5,4.7,1.7,7,0.5l29.8-15.7l29.8,15.7c1,0.5,2,0.8,3.1,0.8c1.4,0,2.7-0.4,3.9-1.3c2-1.5,3.1-4,2.6-6.5
			l-5.7-33.2l24.1-23.5C-195.5,89.9-194.9,87.3-195.7,84.9L-195.7,84.9z M-233.2,108.1c-1.6,1.5-2.3,3.7-1.9,5.9l4,23.4l-21-11.1
			c-1.9-1-4.2-1-6.2,0l-21,11.1l4-23.4c0.4-2.1-0.3-4.3-1.9-5.9l-17-16.6l23.5-3.4c2.2-0.3,4-1.7,5-3.6l10.5-21.3l10.5,21.3
			c1,2,2.8,3.3,5,3.6l23.5,3.4L-233.2,108.1z"/>
		<path d="M-366.3,46.6c27,0,52.3-16.8,61.8-43.6c1.2-3.4-0.6-7.2-4-8.4c-16.4-5.8-34.1-4.9-49.8,2.5c4-5.2,8.4-10.3,13.1-15
			c2.6-2.6,2.6-6.8,0-9.4c-2.6-2.6-6.8-2.6-9.4,0c-3.4,3.4-6.6,6.9-9.7,10.6c-0.7-19.6-10.2-38.8-27.4-51c-3-2.1-7.1-1.4-9.2,1.6
			C-411-52-415-34.7-412.1-17.4c2.7,16,11,30.1,23.5,40.1c-2.2,5-4.1,10.2-5.7,15.4c-1.3-2.9-2.8-5.7-4.5-8.5
			c-9.4-14.8-23.9-25-41-28.8c-1.7-0.4-3.5-0.1-5,0.9c-1.5,0.9-2.5,2.4-2.9,4.1c-7.6,34,12.8,67.9,46,77.3c-0.2,7,0.1,14,0.9,21
			c-1.5-1.4-3.1-2.7-4.8-3.9c-14.1-10.4-31.4-14.6-48.7-12c-3.6,0.6-6.1,3.9-5.5,7.5c2.6,17.3,11.9,32.5,25.9,42.9
			c11.4,8.4,24.8,12.7,38.6,12.7c2.2,0,4.4-0.1,6.7-0.3c2.7,6.3,5.8,12.4,9.4,18.4c-20.5-6.6-43.7-3-61.6,11.6
			c-2.8,2.3-3.2,6.5-0.9,9.3c11.1,13.5,26.8,21.9,44.2,23.7c2.2,0.2,4.4,0.3,6.6,0.3c13.5,0,26.5-4.2,37.6-12
			c7.4,7.3,15.6,13.9,24.2,19.6c1.1,0.7,2.4,1.1,3.6,1.1c2.1,0,4.3-1,5.5-3c2-3,1.2-7.1-1.9-9.2c-8.3-5.5-16.2-11.9-23.3-19
			c-15.9-15.9-27.5-34.6-34.6-54.5c31.4-12.1,48.9-46.6,39.3-79.4c-1-3.5-4.7-5.5-8.2-4.5c-16.8,4.9-30.7,16.1-39.1,31.4
			c-0.3,0.5-0.5,1-0.8,1.5c0.1-14.1,2.1-28.1,6.1-41.7C-377.1,45.9-371.7,46.6-366.3,46.6L-366.3,46.6z M-402.1,69
			c-21.9-8.1-35.8-30.1-33.8-53.4c10.7,3.9,19.7,11.2,25.9,21C-403.8,46.4-401.1,57.7-402.1,69L-402.1,69z M-426.1,127.9
			c-9.3-6.8-16-16.4-19.2-27.3c0.3,0,0.6,0,0.8,0c23,0,43.5,15.3,50.1,37.4C-405.8,138.3-416.8,134.8-426.1,127.9L-426.1,127.9z
			 M-396.3,200.8c-11.5-1.1-22.1-5.9-30.4-13.7c19.9-12.2,45.8-9.7,62.9,6.3C-373.5,199.3-384.8,201.9-396.3,200.8L-396.3,200.8z
			 M-376.2,91.1c5.5-10.1,14.1-18,24.5-22.6c3.5,23.1-9,45.9-30.3,55.4C-383.8,112.7-381.8,101.2-376.2,91.1L-376.2,91.1z M-352.9,9
			c10.4-5,22-6.3,33.1-4c-10.7,20.8-34.2,32-57,27.2C-371.6,22.1-363.3,14-352.9,9L-352.9,9z M-399.1-19.6
			c-1.9-11.4-0.1-22.9,5.2-32.9c17,16,21.4,41.6,10.5,62.3C-391.6,2-397.1-8.2-399.1-19.6L-399.1-19.6z"/>
		<path d="M-115.1,151.3c13.8,0,27.3-4.4,38.6-12.7c14.1-10.4,23.3-25.6,25.9-42.9c0.6-3.6-1.9-7-5.5-7.5
			c-20-3.1-39.4,3.4-53.5,15.9c0.7-7,1-14,0.9-21c15.5-4.4,28.7-14.2,37.4-27.9c9.4-14.8,12.4-32.3,8.6-49.4c-0.8-3.6-4.3-5.8-7.9-5
			c-17.1,3.8-31.6,14.1-41,28.8c-1.7,2.7-3.2,5.6-4.5,8.5c-1.6-5.2-3.5-10.3-5.7-15.4C-95,1.1-89.3-37.9-109.5-66.3
			c-1-1.4-2.6-2.4-4.3-2.7c-1.7-0.3-3.5,0.1-4.9,1.1c-14.3,10.1-23.7,25.2-26.6,42.5c-0.5,2.8-0.8,5.7-0.9,8.5
			c-3-3.6-6.2-7.1-9.6-10.5c-2.6-2.6-6.8-2.6-9.4,0s-2.6,6.8,0,9.4c4.8,4.8,9.1,9.8,13.1,15c-15.7-7.4-33.4-8.3-49.8-2.5
			c-3.4,1.2-5.2,5-4,8.4c9.5,26.8,34.8,43.6,61.8,43.6c5.4,0,10.8-0.7,16.2-2.1c4,13.6,6.1,27.7,6.1,41.8
			c-7.9-15.4-21.9-27.7-39.8-32.9c-3.5-1-7.2,1-8.2,4.5c-4.9,16.8-3,34.5,5.4,49.8c7.5,13.7,19.4,24.1,33.8,29.6
			c-7.2,19.9-18.7,38.6-34.6,54.5c-7.1,7.1-15,13.5-23.3,19c-3.1,2-3.9,6.1-1.9,9.2c1.3,1.9,3.4,3,5.5,3c1.3,0,2.5-0.4,3.6-1.1
			c8.6-5.7,16.8-12.3,24.2-19.6c11.4,8,24.5,11.9,37.7,11.9c19,0,37.8-8.2,50.7-24c1.1-1.4,1.6-3.1,1.5-4.8c-0.2-1.7-1-3.3-2.4-4.5
			c-13.5-11.1-30.6-16.2-48-14.5c-4.7,0.5-9.2,1.4-13.6,2.8c3.5-5.9,6.6-12.1,9.3-18.3C-119.5,151.2-117.3,151.3-115.1,151.3
			L-115.1,151.3z M-74.5,15.7c1,11.3-1.8,22.6-7.9,32.4c-6.2,9.8-15.2,17-25.9,21C-110.3,45.7-96.4,23.8-74.5,15.7L-74.5,15.7z
			 M-65.1,100.6c-6.6,22.4-27.6,37.8-50.9,37.4C-109.4,115.6-88.5,100.3-65.1,100.6L-65.1,100.6z M-190.6,5c11.1-2.3,22.7-1,33.1,4
			c10.4,5,18.8,13.1,23.9,23.2C-156.4,37-179.9,25.8-190.6,5L-190.6,5z M-127.1,9.8c-5.3-10.1-7.1-21.5-5.2-32.9
			c1.9-11.4,7.4-21.6,15.7-29.4C-105.7-31.9-110-6.2-127.1,9.8L-127.1,9.8z M-116.2,179.6c11.5-1.1,22.8,1.5,32.5,7.4
			c-17.1,15.9-43,18.5-62.9,6.3C-138.3,185.6-127.7,180.8-116.2,179.6L-116.2,179.6z M-128.3,123.9c-10.4-4.6-18.9-12.5-24.5-22.6
			c-5.6-10.1-7.6-21.6-5.9-32.8C-137.3,78-124.8,100.8-128.3,123.9L-128.3,123.9z"/>
	</g>
</g>
<g class="st1">
	<path class="st2" d="M460.7-58.1h-48.1c-4.2,0-7.6,3.4-7.6,7.6c0,4.2,3.4,7.6,7.6,7.6h48.1c9.4,0,17.1,7.7,17.1,17.1V90
		c0,9.4-7.7,17.1-17.1,17.1H283.3c-2,0-3.9,0.8-5.4,2.2L234.2,153v-38.3c0-4.2-3.4-7.6-7.6-7.6h-14.4c-9.4,0-17.1-7.7-17.1-17.1
		V-25.8c0-9.4,7.7-17.1,17.1-17.1h175.1c4.2,0,7.6-3.4,7.6-7.6c0-4.2-3.4-7.6-7.6-7.6H212.2c-17.8,0-32.3,14.5-32.3,32.3V90
		c0,17.8,14.5,32.3,32.3,32.3h6.9v49.1c0,3.1,1.8,5.8,4.7,7c0.9,0.4,1.9,0.6,2.9,0.6c2,0,3.9-0.8,5.4-2.2l54.4-54.4h174.3
		c17.8,0,32.3-14.5,32.3-32.3V-25.8C493-43.6,478.5-58.1,460.7-58.1L460.7-58.1z"/>
	<path class="st2" d="M255.3,39.3c9-6.2,20.2-13.8,20.2-26.9c0-6.2-2.5-11.5-7.3-15.3c-4.2-3.4-10-5.3-15.9-5.3
		c-10.9,0-22.5,6.7-22.5,19.1c0,5.5,2.3,8.2,7.1,8.2c5.4,0,8.3-3,8.3-5.8c0-4.6,2.7-7.3,7.3-7.3c5.5,0,7.4,3.7,7.4,6.9
		c0,5.9-6.9,11-14.3,16.4c-8.3,6.1-16.9,12.4-16.9,20.6v9.6c0,3,4.1,4.9,6.9,4.9h35.3c2.5,0,4.8-3.3,4.8-7c0-3.6-2.2-6.8-4.8-6.8
		h-25.8v-0.8C244.9,46.4,249.7,43.1,255.3,39.3L255.3,39.3z"/>
	<path class="st2" d="M317.5,64.4c5.4,0,7.9-2.5,7.9-4.9V49.1h4.1c2.5,0,4.9-3.6,4.9-7.3c0-5-2.5-7.3-4.9-7.3h-4.1v-6.8
		c0-2.2-2.1-4.8-7.9-4.8s-7.9,2.6-7.9,4.8v6.8h-8.2l17.4-35c0.3-0.6,0.5-1.3,0.5-1.9c0-1.6-1-3.2-2.9-4.4c-1.5-1-3.5-1.6-4.9-1.6
		c-2.9,0-5.2,1.4-6.6,4l-22.9,44.9c-0.7,1.3-0.8,2.5-0.8,3c0,3.3,2.1,5.5,5.3,5.5h23.1v10.4C309.6,61.8,312.1,64.4,317.5,64.4
		L317.5,64.4z"/>
	<path class="st2" d="M376.7-9.8l-34.8,71.4c-0.3,0.6-0.5,1.4-0.5,1.9c0,2.6,2.3,5.4,5.7,5.4c2,0,3.9-1.1,4.6-2.5l34.9-71.4
		c0.3-0.7,0.4-1.4,0.4-1.9c0-3.2-3.1-5.4-6-5.4C379-12.4,377.4-11.4,376.7-9.8L376.7-9.8z"/>
	<g class="st2">
		<path d="M403.2,16.8c4.3,0,8-2.2,8-4.9V5.4h17.5v6.8l-24.4,42.2c-0.5,0.9-0.7,1.7-0.7,2.6c0,4.7,5.2,8,9.9,8
			c2.2,0,3.7-0.7,4.5-2.1l23.2-44.4c0.7-1.4,3.2-6.2,3.2-9.5V-3.4c0-2.1-3.3-4.9-6.9-4.9h-35.2c-3.5,0-6.9,2.4-6.9,4.9v15.4
			C395.5,14.6,399,16.8,403.2,16.8L403.2,16.8z"/>
		<path d="M294.8,205.4c-3.9-3.9-9.2-6.1-14.8-6.1c-5.6,0-10.8,2.2-14.8,6.1l-46.4,46.4c-18.5-9.7-34.5-18.9-52.5-34
			c-3.2-2.7-8-2.3-10.7,0.9c-2.7,3.2-2.3,8,0.9,10.7c20.7,17.5,38.8,27.3,60.2,38.4c2.9,1.5,6.5,1,8.8-1.4l25-25l82.3,82.3
			c-26.6,22.8-64.2,30.8-106.9,22.4c-48-9.4-98.9-39-143.2-83.3C38.5,218.5,8.9,167.6-0.5,119.6C-8.9,76.9-1,39.2,21.8,12.7
			l82.3,82.3l-25,25c-2.3,2.3-2.9,5.9-1.4,8.9C92.9,158,105,179.4,135.6,210c3,3,7.8,3,10.7,0c3-3,3-7.8,0-10.7
			c-27.4-27.4-38.9-46.3-52.5-72.5l46.4-46.4c3.9-3.9,6.1-9.2,6.1-14.8c0-5.6-2.2-10.8-6.1-14.8L65.8-23.6
			c-3.9-3.9-9.2-6.1-14.8-6.1s-10.8,2.2-14.8,6.1l-20,20c-30.4,30.4-41.7,75.2-31.7,126.2c10,51,41.1,104.6,87.5,151
			c46.4,46.4,100,77.4,151,87.5c12.1,2.4,23.9,3.6,35.2,3.6c36.2,0,67.7-12,90.9-35.2l20-20c3.9-3.9,6.1-9.2,6.1-14.8
			s-2.2-10.8-6.1-14.8L294.8,205.4z M47-12.9c1.1-1.1,2.5-1.7,4-1.7c1.5,0,3,0.6,4,1.7l74.4,74.4c1.1,1.1,1.7,2.5,1.7,4
			c0,1.5-0.6,3-1.7,4l-14.6,14.6L32.3,1.7L47-12.9z M358.4,298.6l-14.6,14.6l-82.5-82.5l14.6-14.6c1.1-1.1,2.5-1.7,4-1.7
			c1.5,0,3,0.6,4,1.7l74.4,74.4C360.6,292.7,360.6,296.3,358.4,298.6L358.4,298.6z"/>
	</g>
</g>
</svg>
