<?xml version="1.0" encoding="UTF-8" ?>
<!DOCTYPE svg PUBLIC "-//W3C//DTD SVG 1.1//EN" "http://www.w3.org/Graphics/SVG/1.1/DTD/svg11.dtd">
<svg width="943pt" height="901pt" viewBox="0 0 943 901" version="1.1" xmlns="http://www.w3.org/2000/svg">
<g id="#ffffffff">
</g>
<g id="#efce4aff">
<path fill="#efce4a" opacity="1.00" d=" M 465.61 0.00 L 475.38 0.00 C 480.75 2.03 486.49 4.18 490.15 8.84 C 495.63 15.90 498.71 24.39 502.67 32.32 C 539.53 106.11 576.46 179.87 613.18 253.73 C 617.22 262.92 622.00 271.76 626.34 280.81 C 724.25 294.99 822.21 308.80 920.14 322.84 C 925.71 323.58 931.17 325.82 935.29 329.70 C 938.83 332.98 940.81 337.48 943.00 341.68 L 943.00 355.48 C 941.12 360.08 938.43 364.38 934.78 367.78 C 919.07 383.07 904.11 399.15 887.74 413.75 C 874.57 426.91 861.46 440.13 848.15 453.15 C 831.68 467.98 816.64 484.32 800.65 499.65 C 782.64 515.92 766.27 533.91 748.55 550.50 C 740.66 557.26 733.76 565.07 726.20 572.19 C 724.79 573.79 722.43 575.40 723.10 577.86 C 739.93 673.46 756.51 769.11 773.28 864.72 C 774.55 871.80 775.23 879.77 771.10 886.10 C 764.44 898.90 746.62 903.09 734.59 895.42 C 652.43 852.56 570.31 809.63 488.13 766.83 C 483.56 764.33 479.03 761.77 474.28 759.65 C 471.89 758.27 469.67 760.59 467.58 761.51 C 380.89 807.52 294.06 853.30 207.34 899.26 C 206.05 899.87 204.74 900.44 203.43 901.00 L 192.54 901.00 C 185.13 898.52 177.57 894.12 174.45 886.58 C 171.51 881.25 171.58 875.00 172.24 869.13 C 184.58 796.44 196.68 723.71 209.04 651.02 C 212.76 629.06 216.25 607.07 220.23 585.16 C 220.67 582.54 221.25 579.89 220.99 577.22 C 219.90 574.76 217.62 573.09 215.74 571.25 C 201.89 559.49 190.11 545.53 176.39 533.64 C 167.30 525.06 158.68 515.99 149.71 507.28 C 138.53 497.84 128.80 486.85 118.18 476.80 C 109.49 469.54 101.82 461.17 93.76 453.24 C 88.42 447.55 82.12 442.90 76.75 437.24 C 68.46 429.21 60.74 420.57 51.87 413.16 C 43.24 405.11 35.25 396.39 26.65 388.31 C 20.13 382.88 14.27 376.72 8.23 370.78 C 4.42 367.08 1.95 362.29 0.00 357.41 L 0.00 345.56 C 1.18 342.66 2.48 339.80 4.19 337.17 C 8.02 330.98 14.89 327.08 21.98 325.99 C 120.19 311.13 218.49 296.86 316.67 281.83 C 321.21 272.38 326.06 263.08 330.64 253.65 C 339.03 234.97 348.99 217.04 357.44 198.39 C 363.88 185.23 370.44 172.12 376.99 159.01 C 384.74 142.00 393.42 125.43 401.64 108.65 C 405.27 100.42 409.39 92.42 413.35 84.34 C 423.27 64.80 432.34 44.84 442.34 25.34 C 445.64 19.38 447.51 12.40 452.68 7.67 C 456.20 3.96 460.95 1.87 465.61 0.00 M 449.65 127.66 C 441.73 144.85 433.08 161.70 424.66 178.66 C 416.18 196.97 406.96 214.92 397.99 232.99 C 388.30 254.36 376.99 274.94 367.24 296.28 C 363.26 304.01 359.71 311.95 355.58 319.60 C 351.89 326.57 344.05 330.14 336.60 331.48 C 271.84 341.02 207.09 350.66 142.36 360.38 C 122.15 363.16 102.04 366.63 81.81 369.21 C 86.54 374.13 91.40 378.93 96.26 383.73 C 109.79 395.16 121.21 408.83 134.63 420.36 C 143.32 428.67 151.70 437.29 160.26 445.73 C 174.11 457.50 185.87 471.50 199.63 483.35 C 211.32 494.32 221.99 506.37 234.16 516.81 C 244.03 526.29 253.45 536.23 263.34 545.68 C 271.29 551.71 276.34 561.86 274.83 571.92 C 264.04 636.36 253.07 700.78 242.23 765.22 C 238.92 785.92 234.90 806.51 231.89 827.25 C 235.26 826.04 238.43 824.35 241.49 822.50 C 311.45 785.49 381.41 748.47 451.33 711.38 C 456.59 708.93 461.44 705.40 467.21 704.20 C 471.31 703.53 475.56 703.57 479.64 704.46 C 485.64 706.21 490.77 709.94 496.33 712.68 C 508.58 718.64 520.40 725.43 532.64 731.41 C 543.11 737.42 554.19 742.29 564.67 748.29 C 570.62 751.41 576.69 754.29 582.61 757.47 C 592.22 763.00 602.42 767.40 612.03 772.94 C 619.88 777.10 627.96 780.84 635.67 785.29 C 644.03 789.58 652.48 793.71 660.66 798.34 C 671.39 803.46 681.65 809.48 692.33 814.69 C 699.70 818.30 706.68 822.66 714.16 826.05 C 713.89 823.98 713.57 821.92 713.22 819.88 C 700.13 744.65 686.93 669.44 673.76 594.22 C 672.38 585.36 670.29 576.62 669.45 567.69 C 669.01 560.20 672.20 552.76 677.72 547.73 C 691.26 534.60 704.03 520.66 718.25 508.25 C 733.91 492.92 748.86 476.81 765.26 462.26 C 775.74 451.74 786.23 441.23 796.77 430.77 C 803.65 423.62 811.47 417.50 818.25 410.25 C 832.90 395.92 846.89 380.87 862.21 367.25 C 776.62 354.92 691.00 342.76 605.40 330.51 C 600.62 329.77 596.27 327.42 592.54 324.41 C 587.52 320.74 585.49 314.60 582.68 309.32 C 572.16 288.20 561.67 267.06 551.12 245.94 C 531.46 205.17 510.76 164.90 490.75 124.29 C 484.10 111.31 478.02 98.03 471.00 85.25 C 463.46 99.16 456.93 113.60 449.65 127.66 Z" />
</g>
</svg>
