<svg xmlns="http://www.w3.org/2000/svg" viewBox="-57 318.104 496 157.696"><circle cx="206.2" cy="360.6" r="41.6" fill="#fff"/><path d="M164.6 360.6c0-23.2 18.4-41.6 41.6-41.6s41.6 18.4 41.6 41.6-18.4 41.6-41.6 41.6" fill="#fff"/><path d="M177.4 331c16-16 42.4-16 58.4 0s16 42.4 0 58.4m-270.4-68H-57v78.4h22.4c12 0 20.8-3.2 28-8.8 8.8-7.2 14.4-18.4 14.4-30.4 0-23.2-16.8-39.2-42.4-39.2zm18.4 59.2c-4.8 4-11.2 6.4-20.8 6.4h-4.8v-52h4c9.6 0 16 1.6 20.8 6.4 5.6 4.8 8.8 12 8.8 19.2.8 7.2-2.4 15.2-8 20zM15 321.4h15.2v78.4H15zm53.6 30.4c-9.6-3.2-12-5.6-12-9.6 0-4.8 4.8-8.8 11.2-8.8 4.8 0 8.8 1.6 12.8 6.4l8-10.4c-6.4-5.6-14.4-8.8-23.2-8.8-13.6 0-24.8 9.6-24.8 22.4 0 11.2 4.8 16 19.2 21.6 6.4 2.4 8.8 3.2 10.4 4.8 3.2 1.6 4.8 4.8 4.8 8 0 6.4-4.8 11.2-12 11.2s-13.6-4-16.8-10.4l-9.6 9.6c7.2 10.4 16 15.2 27.2 15.2 16 0 27.2-10.4 27.2-25.6 0-13.6-4.8-19.2-22.4-25.6zm27.2 8.8c0 23.2 18.4 40.8 41.6 40.8 6.4 0 12-1.6 19.2-4.8v-18.4c-6.4 6.4-12 8.8-18.4 8.8-15.2 0-26.4-11.2-26.4-27.2 0-15.2 11.2-27.2 25.6-27.2 7.2 0 12.8 2.4 19.2 8.8V323c-6.4-3.2-12-4.8-19.2-4.8-22.4 1.6-41.6 20-41.6 42.4zm186.4 13.6l-20.8-52.8h-16.8l32.8 80.8h8.8l34.4-80.8h-16.8zm44.8 25.6h44V387h-28v-21.6h27.2v-13.6H343V335h28v-13.6h-44z" fill="#fff"/><path d="M414.2 367c12-2.4 18.4-10.4 18.4-22.4 0-14.4-10.4-23.2-28-23.2h-23.2v78.4h15.2v-31.2h2.4l21.6 31.2H439L414.2 367zm-12.8-9.6h-4.8v-24h4.8c9.6 0 15.2 4 15.2 12s-5.6 12-15.2 12zm-436-36H-57v78.4h22.4c12 0 20.8-3.2 28-8.8 8.8-7.2 14.4-18.4 14.4-30.4 0-23.2-16.8-39.2-42.4-39.2zm18.4 59.2c-4.8 4-11.2 6.4-20.8 6.4h-4.8v-52h4c9.6 0 16 1.6 20.8 6.4 5.6 4.8 8.8 12 8.8 19.2.8 7.2-2.4 15.2-8 20zM15 321.4h15.2v78.4H15zm53.6 30.4c-9.6-3.2-12-5.6-12-9.6 0-4.8 4.8-8.8 11.2-8.8 4.8 0 8.8 1.6 12.8 6.4l8-10.4c-6.4-5.6-14.4-8.8-23.2-8.8-13.6 0-24.8 9.6-24.8 22.4 0 11.2 4.8 16 19.2 21.6 6.4 2.4 8.8 3.2 10.4 4.8 3.2 1.6 4.8 4.8 4.8 8 0 6.4-4.8 11.2-12 11.2s-13.6-4-16.8-10.4l-9.6 9.6c7.2 10.4 16 15.2 27.2 15.2 16 0 27.2-10.4 27.2-25.6 0-13.6-4.8-19.2-22.4-25.6zm69.6 49.6c6.4 0 12-1.6 19.2-4.8v-18.4c-6.4 6.4-12 8.8-18.4 8.8-15.2 0-26.4-11.2-26.4-27.2 0-8 3.2-14.4 8-20l-10.4-10.4c-8 7.2-13.6 18.4-13.6 30.4-.8 24 17.6 41.6 41.6 41.6z" fill="#fff"/><path d="M414.2 367c12-2.4 18.4-10.4 18.4-22.4 0-14.4-10.4-23.2-28-23.2h-23.2v78.4h15.2v-31.2h2.4l21.6 31.2H439L414.2 367zm-12.8-9.6h-4.8v-24h4.8c9.6 0 15.2 4 15.2 12s-5.6 12-15.2 12zM55.8 472.6v-44l30.4 31.2V431h6.4v44l-30.4-31.2v28.8h-6.4zm68.8-35.2h-16.8v9.6h16v6.4h-16V467h16.8v5.6h-23.2V431h23.2v6.4zm20 0v35.2h-6.4v-35.2h-9.6v-5.6h25.6v5.6h-9.6zm19.2-5.6l10.4 28 11.2-29.6 10.4 29.6 11.2-28h8l-18.4 44-10.4-29.6-11.2 29.6-17.6-44h6.4zm52 20c0-5.6 2.4-11.2 6.4-15.2s9.6-6.4 15.2-6.4 11.2 2.4 15.2 6.4 6.4 9.6 6.4 15.2-2.4 11.2-6.4 15.2-9.6 6.4-15.2 6.4-10.4-1.6-14.4-5.6c-4.8-4-7.2-8.8-7.2-16zm6.4 0c0 4.8 1.6 8 4.8 11.2 3.2 3.2 6.4 4.8 10.4 4.8s8-1.6 11.2-4.8c3.2-3.2 4.8-6.4 4.8-11.2 0-4.8-1.6-8-4.8-11.2-3.2-3.2-6.4-4.8-11.2-4.8-4 0-8 1.6-11.2 4.8-2.4 3.2-4 7.2-4 11.2zm59.2 3.2l12.8 17.6h-8l-12-16.8h-.8v16.8H267V431h7.2c5.6 0 9.6.8 12 3.2 2.4 2.4 4 5.6 4 8.8 0 3.2-.8 5.6-2.4 7.2-1.6 3.2-4 4.8-6.4 4.8zm-8-4.8h1.6c5.6 0 8.8-2.4 8.8-6.4s-3.2-6.4-8.8-6.4h-2.4v12.8h.8zm32.8-2.4l16-16.8h8l-18.4 18.4 18.4 22.4h-8L307 453.4l-1.6 1.6v16.8H299v-41.6h6.4v17.6h.8zm51.2-60.8H343v-14.4l-16-16v43.2h43.2zm-57.6-57.6l-17.6 44.8-20.8-52.8h-16.8l32.8 80.8h8.8l25.6-60.8z" fill="#fff"/></svg>