<svg xmlns="http://www.w3.org/2000/svg" viewBox="0 0 234.479 73.043"><g fill="#fff"><path d="M95.218 0L83.503 72.898h18.727L113.937 0H95.218zm56.481 29.695c-6.543-3.23-10.555-5.414-10.555-8.718.078-3.004 3.391-6.082 10.789-6.082 6.082-.153 10.551 1.277 13.945 2.699l1.7.758 2.543-15.25c-3.696-1.43-9.563-3.008-16.805-3.008-18.488 0-31.508 9.613-31.59 23.363-.152 10.148 9.32 15.777 16.41 19.156 7.246 3.465 9.711 5.711 9.711 8.789-.082 4.727-5.859 6.907-11.246 6.907-7.469 0-11.484-1.121-17.574-3.754l-2.465-1.125-2.617 15.851c4.398 1.953 12.488 3.676 20.883 3.762 19.648 0 32.437-9.469 32.597-24.121.063-8.039-4.933-14.195-15.726-19.227zM218.124.227H203.64c-4.465 0-7.859 1.281-9.789 5.863l-27.812 66.808h19.648l5.414-14.464h21.984l2.805 14.523h17.332L218.124.227zM196.55 43.836c.379.039 7.539-23.609 7.539-23.609l5.707 23.609H196.55zM67.859 0L49.516 49.527l-2-9.765c-3.391-11.27-14.027-23.52-25.894-29.602l16.8 62.664H58.23L87.671.008H67.859V0zm0 0"/><path d="M41.343 9.402C39.914 3.844 35.355.094 29.164.016H.113l-.301 1.347C22.477 6.949 41.5 24.141 47.668 40.313L41.343 9.402zm0 0"/></g></svg>