<?xml version="1.0" encoding="iso-8859-1"?>
<!-- Generator: Adobe Illustrator 22.1.0, SVG Export Plug-In . SVG Version: 6.00 Build 0)  -->
<svg version="1.1" id="&#x421;&#x43B;&#x43E;&#x439;_1"
	 xmlns="http://www.w3.org/2000/svg" xmlns:xlink="http://www.w3.org/1999/xlink" x="0px" y="0px" viewBox="0 0 60 30"
	 style="enable-background:new 0 0 60 30;" xml:space="preserve">
<path style="fill:#F3F3F3;" d="M55,30H5c-2.75,0-5-2.25-5-5V3.043C0,1.369,1.369,0,3.043,0H55c2.75,0,5,2.25,5,5v20
	C60,27.75,57.75,30,55,30z"/>
<g>
	<circle style="fill:#EF9122;" cx="31.538" cy="12.766" r="3.695"/>
	<path style="fill:#F26E21;" d="M27.843,12.766c0-2.061,1.635-3.695,3.695-3.695s3.695,1.635,3.695,3.695s-1.635,3.695-3.695,3.695"
		/>
	<path style="fill:#F44500;" d="M28.98,10.137c1.421-1.421,3.766-1.421,5.188,0c1.421,1.421,1.421,3.766,0,5.188"/>
	<path style="fill:#595A5B;" d="M10.147,9.284h-1.99v6.964h1.99c1.066,0,1.848-0.284,2.487-0.782
		c0.782-0.64,1.279-1.635,1.279-2.701C13.914,10.706,12.421,9.284,10.147,9.284z M11.782,14.543
		c-0.426,0.355-0.995,0.569-1.848,0.569H9.508v-4.619h0.355c0.853,0,1.421,0.142,1.848,0.569c0.497,0.426,0.782,1.066,0.782,1.706
		C12.563,13.406,12.279,14.117,11.782,14.543z"/>
	<rect id="SVGCleanerId_0" x="14.553" y="9.284" style="fill:#595A5B;" width="1.35" height="6.964"/>
	<path style="fill:#595A5B;" d="M19.315,11.985c-0.853-0.284-1.066-0.497-1.066-0.853c0-0.426,0.426-0.782,0.995-0.782
		c0.426,0,0.782,0.142,1.137,0.569l0.711-0.924c-0.569-0.497-1.279-0.782-2.061-0.782c-1.208,0-2.203,0.853-2.203,1.99
		c0,0.995,0.426,1.421,1.706,1.919c0.569,0.213,0.782,0.284,0.924,0.426c0.284,0.142,0.426,0.426,0.426,0.711
		c0,0.569-0.426,0.995-1.066,0.995s-1.208-0.355-1.492-0.924l-0.853,0.853c0.64,0.924,1.421,1.35,2.416,1.35
		c1.421,0,2.416-0.924,2.416-2.274C21.305,13.051,20.878,12.553,19.315,11.985z"/>
	<path style="fill:#3B3D3F;" d="M21.731,12.766c0,2.061,1.635,3.624,3.695,3.624c0.569,0,1.066-0.142,1.706-0.426V14.33
		c-0.569,0.569-1.066,0.782-1.635,0.782c-1.35,0-2.345-0.995-2.345-2.416c0-1.35,0.995-2.416,2.274-2.416
		c0.64,0,1.137,0.213,1.706,0.782V9.426C26.563,9.142,26.066,9,25.426,9C23.437,9.142,21.731,10.777,21.731,12.766z"/>
	<polygon points="38.289,13.975 36.442,9.284 34.949,9.284 37.863,16.462 38.645,16.462 41.701,9.284 40.208,9.284 	"/>
	<polygon points="42.269,16.249 46.178,16.249 46.178,15.112 43.69,15.112 43.69,13.193 46.107,13.193 46.107,11.985 43.69,11.985 
		43.69,10.492 46.178,10.492 46.178,9.284 42.269,9.284 	"/>
	<g>
		<path style="fill:#595A5B;" d="M50.015,13.335c1.066-0.213,1.635-0.924,1.635-1.99c0-1.279-0.924-2.061-2.487-2.061h-2.061v6.964
			h1.35v-2.772h0.213l1.919,2.772h1.635L50.015,13.335z M48.878,12.482h-0.426V10.35h0.426c0.853,0,1.35,0.355,1.35,1.066
			S49.731,12.482,48.878,12.482z"/>
		<path style="fill:#595A5B;" d="M10.147,9.284h-1.99v6.964h1.99c1.066,0,1.848-0.284,2.487-0.782
			c0.782-0.64,1.279-1.635,1.279-2.701C13.914,10.706,12.421,9.284,10.147,9.284z M11.782,14.543
			c-0.426,0.355-0.995,0.569-1.848,0.569H9.508v-4.619h0.355c0.853,0,1.421,0.142,1.848,0.569c0.497,0.426,0.782,1.066,0.782,1.706
			C12.563,13.406,12.279,14.117,11.782,14.543z"/>
	</g>
	<g>
		<rect id="SVGCleanerId_0_1_" x="14.553" y="9.284" style="fill:#595A5B;" width="1.35" height="6.964"/>
	</g>
	<g>
		<path style="fill:#595A5B;" d="M19.315,11.985c-0.853-0.284-1.066-0.497-1.066-0.853c0-0.426,0.426-0.782,0.995-0.782
			c0.426,0,0.782,0.142,1.137,0.569l0.711-0.924c-0.569-0.497-1.279-0.782-2.061-0.782c-1.208,0-2.203,0.853-2.203,1.99
			c0,0.995,0.426,1.421,1.706,1.919c0.569,0.213,0.782,0.284,0.924,0.426c0.284,0.142,0.426,0.426,0.426,0.711
			c0,0.569-0.426,0.995-1.066,0.995s-1.208-0.355-1.492-0.924l-0.853,0.853c0.64,0.924,1.421,1.35,2.416,1.35
			c1.421,0,2.416-0.924,2.416-2.274C21.305,13.051,20.878,12.553,19.315,11.985z"/>
		<path style="fill:#595A5B;" d="M25.497,16.391c0.569,0,1.066-0.142,1.706-0.426V14.33c-0.569,0.569-1.066,0.782-1.635,0.782
			c-1.35,0-2.345-0.995-2.345-2.416c0-0.711,0.284-1.279,0.711-1.777L23.01,9.995c-0.711,0.64-1.208,1.635-1.208,2.701
			C21.731,14.827,23.366,16.391,25.497,16.391z"/>
	</g>
	<path d="M50.015,13.335c1.066-0.213,1.635-0.924,1.635-1.99c0-1.279-0.924-2.061-2.487-2.061h-2.061v6.964h1.35v-2.772h0.213
		l1.919,2.772h1.635L50.015,13.335z M48.878,12.482h-0.426V10.35h0.426c0.853,0,1.35,0.355,1.35,1.066S49.731,12.482,48.878,12.482z
		"/>
	<g>
		<path style="fill:#F26E21;" d="M18.178,22.716v-3.909l2.701,2.772V19.02h0.569v3.909l-2.701-2.772v2.558L18.178,22.716
			L18.178,22.716z"/>
		<path style="fill:#F26E21;" d="M24.289,19.589h-1.492v0.853h1.421v0.569h-1.421v1.208h1.492v0.497h-2.061V19.02h2.061V19.589z"/>
		<path style="fill:#F26E21;" d="M26.066,19.589v3.127h-0.569v-3.127h-0.853v-0.497h2.274v0.497H26.066z"/>
		<path style="fill:#F26E21;" d="M27.772,19.091l0.924,2.487l0.995-2.629l0.924,2.629l0.995-2.487h0.711L30.685,23l-0.924-2.629
			L28.767,23l-1.563-3.909H27.772z"/>
		<path style="fill:#F26E21;" d="M32.391,20.868c0-0.497,0.213-0.995,0.569-1.35s0.853-0.569,1.35-0.569
			c0.497,0,0.995,0.213,1.35,0.569c0.355,0.355,0.569,0.853,0.569,1.35c0,0.497-0.213,0.995-0.569,1.35
			c-0.355,0.355-0.853,0.569-1.35,0.569c-0.497,0-0.924-0.142-1.279-0.497C32.604,21.934,32.391,21.508,32.391,20.868z
			 M32.959,20.868c0,0.426,0.142,0.711,0.426,0.995s0.569,0.426,0.924,0.426c0.355,0,0.711-0.142,0.995-0.426
			c0.284-0.284,0.426-0.569,0.426-0.995c0-0.426-0.142-0.711-0.426-0.995c-0.284-0.284-0.569-0.426-0.995-0.426
			c-0.355,0-0.711,0.142-0.995,0.426C33.102,20.157,32.959,20.513,32.959,20.868z"/>
		<path style="fill:#F26E21;" d="M38.218,21.152l1.137,1.563h-0.711l-1.066-1.492h-0.071v1.492h-0.569V19.02h0.64
			c0.497,0,0.853,0.071,1.066,0.284C38.858,19.518,39,19.802,39,20.086s-0.071,0.497-0.213,0.64
			C38.645,21.01,38.432,21.152,38.218,21.152z M37.508,20.726h0.142c0.497,0,0.782-0.213,0.782-0.569
			c0-0.355-0.284-0.569-0.782-0.569h-0.213v1.137H37.508z"/>
		<path style="fill:#F26E21;" d="M40.421,20.513l1.421-1.492h0.711l-1.635,1.635l1.635,1.99h-0.711l-1.35-1.635l-0.142,0.142v1.492
			h-0.569v-3.695h0.569v1.563H40.421z"/>
	</g>
	<g>
		<polygon style="fill:#3B3D3F;" points="44.97,15.112 43.69,15.112 43.69,13.832 42.269,12.411 42.269,16.249 46.107,16.249 		"/>
		<polygon style="fill:#3B3D3F;" points="39.853,9.995 38.289,13.975 36.442,9.284 34.949,9.284 37.863,16.462 38.645,16.462 
			40.919,11.061 		"/>
	</g>
</g>
<g>
</g>
<g>
</g>
<g>
</g>
<g>
</g>
<g>
</g>
<g>
</g>
<g>
</g>
<g>
</g>
<g>
</g>
<g>
</g>
<g>
</g>
</svg>
