<?xml version="1.0" encoding="iso-8859-1"?>
<!-- Generator: Adobe Illustrator 22.1.0, SVG Export Plug-In . SVG Version: 6.00 Build 0)  -->
<svg version="1.1" id="&#x421;&#x43B;&#x43E;&#x439;_1"
	 xmlns="http://www.w3.org/2000/svg" xmlns:xlink="http://www.w3.org/1999/xlink" x="0px" y="0px" viewBox="0 0 60 30"
	 style="enable-background:new 0 0 60 30;" xml:space="preserve">
<path style="fill:#F3F3F3;" d="M55,30H5c-2.75,0-5-2.25-5-5V3.043C0,1.369,1.369,0,3.043,0H55c2.75,0,5,2.25,5,5v20
	C60,27.75,57.75,30,55,30z"/>
<g style="display:none;">
	<polygon style="display:inline;fill:#3C58BF;" points="25.3,20.514 27.281,9.371 30.376,9.371 28.457,20.514 	"/>
	<polygon style="display:inline;fill:#293688;" points="25.3,20.514 27.838,9.371 30.376,9.371 28.457,20.514 	"/>
	<path style="display:inline;fill:#3C58BF;" d="M39.662,9.495C39.043,9.248,38.052,9,36.814,9c-3.095,0-5.324,1.548-5.324,3.776
		c0,1.671,1.548,2.538,2.786,3.095c1.238,0.557,1.61,0.929,1.61,1.424c0,0.743-0.99,1.114-1.857,1.114
		c-1.238,0-1.919-0.186-2.971-0.619l-0.433-0.186l-0.433,2.538c0.743,0.31,2.105,0.619,3.529,0.619c3.281,0,5.448-1.548,5.448-3.9
		c0-1.3-0.805-2.29-2.662-3.095C35.39,13.21,34.71,12.9,34.71,12.343c0-0.495,0.557-0.99,1.795-0.99
		c1.052,0,1.795,0.186,2.352,0.433l0.31,0.124L39.662,9.495L39.662,9.495z"/>
	<path style="display:inline;fill:#293688;" d="M39.662,9.495C39.043,9.248,38.052,9,36.814,9c-3.095,0-4.767,1.548-4.767,3.776
		c0,1.671,0.99,2.538,2.229,3.095c1.238,0.557,1.61,0.929,1.61,1.424c0,0.743-0.99,1.114-1.857,1.114
		c-1.238,0-1.919-0.186-2.971-0.619l-0.433-0.186l-0.433,2.538c0.743,0.31,2.105,0.619,3.529,0.619c3.281,0,5.448-1.548,5.448-3.9
		c0-1.3-0.805-2.29-2.662-3.095C35.39,13.21,34.71,12.9,34.71,12.343c0-0.495,0.557-0.99,1.795-0.99
		c1.052,0,1.795,0.186,2.352,0.433l0.31,0.124L39.662,9.495L39.662,9.495z"/>
	<path style="display:inline;fill:#3C58BF;" d="M44.986,9.371c-0.743,0-1.3,0.062-1.61,0.805l-4.643,10.338h3.343l0.619-1.857h3.962
		l0.371,1.857H50L47.4,9.371H44.986z M43.562,16.8c0.186-0.557,1.238-3.281,1.238-3.281s0.248-0.681,0.433-1.114l0.186,1.052
		c0,0,0.619,2.786,0.743,3.405h-2.6V16.8z"/>
	<path style="display:inline;fill:#293688;" d="M45.729,9.371c-0.743,0-1.3,0.062-1.61,0.805l-5.386,10.338h3.343l0.619-1.857h3.962
		l0.371,1.857H50L47.4,9.371H45.729z M43.562,16.8c0.248-0.619,1.238-3.281,1.238-3.281s0.248-0.681,0.433-1.114l0.186,1.052
		c0,0,0.619,2.786,0.743,3.405h-2.6V16.8z"/>
	<path style="display:inline;fill:#3C58BF;" d="M19.605,17.171l-0.31-1.61c-0.557-1.857-2.352-3.9-4.333-4.89l2.786,9.905h3.343
		l5.014-11.143h-3.343L19.605,17.171z"/>
	<path style="display:inline;fill:#293688;" d="M19.605,17.171l-0.31-1.61c-0.557-1.857-2.352-3.9-4.333-4.89l2.786,9.905h3.343
		l5.014-11.143h-2.724L19.605,17.171z"/>
	<path style="display:inline;fill:#FFBC00;" d="M11,9.371l0.557,0.124c3.962,0.929,6.686,3.281,7.738,6.067L18.181,10.3
		c-0.186-0.743-0.743-0.929-1.424-0.929H11z"/>
	<path style="display:inline;fill:#F7981D;" d="M11,9.371L11,9.371c3.962,0.929,7.243,3.343,8.295,6.129l-1.052-4.395
		c-0.186-0.743-0.805-1.176-1.486-1.176L11,9.371z"/>
	<path style="display:inline;fill:#ED7C00;" d="M11,9.371L11,9.371c3.962,0.929,7.243,3.343,8.295,6.129l-0.743-2.414
		c-0.186-0.743-0.433-1.486-1.3-1.795L11,9.371z"/>
	<g style="display:inline;">
		<path style="fill:#051244;" d="M22.7,16.8l-2.105-2.105l-0.99,2.352L19.357,15.5c-0.557-1.857-2.352-3.9-4.333-4.89l2.786,9.905
			h3.343L22.7,16.8z"/>
		<polygon style="fill:#051244;" points="28.457,20.514 25.795,17.79 25.3,20.514 		"/>
		<path style="fill:#051244;" d="M35.576,16.676L35.576,16.676c0.248,0.248,0.371,0.433,0.31,0.681c0,0.743-0.99,1.114-1.857,1.114
			c-1.238,0-1.919-0.186-2.971-0.619l-0.433-0.186l-0.433,2.538c0.743,0.31,2.105,0.619,3.529,0.619c1.981,0,3.59-0.557,4.519-1.548
			L35.576,16.676z"/>
		<path style="fill:#051244;" d="M39.167,20.514h2.91l0.619-1.857h3.962l0.371,1.857H50l-1.052-4.519l-3.714-3.59l0.186,0.99
			c0,0,0.619,2.786,0.743,3.405h-2.6c0.248-0.619,1.238-3.281,1.238-3.281s0.248-0.681,0.433-1.114"/>
	</g>
</g>
<g>
	<path style="fill:#0F549D;" d="M17.296,24.903h4.651c1.635,0,3.526-1.533,3.526-3.526V5.633h-4.497c-2.095,0-3.68,1.328-3.68,3.629
		V24.903z"/>
	<path style="fill:#B41F36;" d="M26.496,24.903h4.651c1.635,0,3.527-1.533,3.527-3.526V5.633h-4.498c-2.096,0-3.68,1.328-3.68,3.629
		L26.496,24.903L26.496,24.903z"/>
	<path style="fill:#329947;" d="M35.822,24.903h4.651c1.635,0,3.527-1.533,3.527-3.526V5.633h-4.497c-2.095,0-3.68,1.328-3.68,3.629
		L35.822,24.903L35.822,24.903L35.822,24.903z"/>
	<g>
		<path style="fill:#F3F2F2;" d="M17.277,15.826H16c0.358,1.431,2.044,2.556,3.935,2.556c1.738,0,4.089-0.972,4.089-2.811v-3.322
			h-2.913v3.322c0,0.972-0.767,1.738-1.84,1.738C18.3,17.309,17.431,16.695,17.277,15.826z"/>
		<path style="fill:#F3F2F2;" d="M42.778,16.491c0,0.766-0.664,1.38-1.533,1.38h-6.439v-5.622h6.439
			c0.766,0,1.431,0.665,1.431,1.431c0,0.766-0.665,1.431-1.431,1.431C42.114,15.111,42.778,15.724,42.778,16.491z M37.258,14.804
			h1.994c0.511,0,0.971-0.46,0.971-0.972c0-0.51-0.46-0.971-0.971-0.971h-1.994V14.804z M39.303,17.257
			c0.51,0,0.971-0.46,0.971-0.971c0-0.511-0.46-0.971-0.971-0.971h-2.045v1.942L39.303,17.257L39.303,17.257z"/>
		<path style="fill:#F3F2F2;" d="M33.265,16.9v0.971h-4.907c-1.533,0-2.811-1.278-2.811-2.811c0-1.533,1.278-2.811,2.811-2.811
			h4.907v1.022c-1.175-0.256-2.301-0.409-2.863-0.409c-1.226,0-2.197,0.971-2.197,2.198c0,1.227,0.971,2.198,2.197,2.198
			C30.964,17.257,32.089,17.155,33.265,16.9z"/>
	</g>
</g>
<g>
</g>
<g>
</g>
<g>
</g>
<g>
</g>
<g>
</g>
<g>
</g>
<g>
</g>
<g>
</g>
<g>
</g>
<g>
</g>
<g>
</g>
</svg>
