<?xml version="1.0" encoding="UTF-8" ?>
<!DOCTYPE svg PUBLIC "-//W3C//DTD SVG 1.1//EN" "http://www.w3.org/Graphics/SVG/1.1/DTD/svg11.dtd">
<svg width="327pt" height="64pt" viewBox="0 0 327 64" version="1.1" xmlns="http://www.w3.org/2000/svg">
<g id="#000000ff">
</g>
<g id="#ffffffff">
<path fill="#292929" opacity="1.00" d=" M 0.00 1.50 C 4.61 1.25 9.22 1.40 13.83 1.36 C 13.85 17.97 13.83 34.57 13.84 51.18 C 22.47 51.19 31.10 51.17 39.74 51.19 C 39.74 55.12 39.74 59.05 39.74 62.99 C 26.50 62.88 13.23 63.27 0.00 62.79 L 0.00 1.50 Z" />
<path fill="#292929" opacity="1.00" d=" M 79.97 8.96 C 89.40 -0.09 104.26 -1.74 116.15 2.94 C 125.89 6.94 133.45 16.28 134.65 26.83 C 135.07 33.09 135.21 39.64 132.64 45.51 C 128.44 55.55 118.53 62.84 107.71 64.00 L 97.35 64.00 C 90.99 63.10 84.87 60.38 80.17 55.98 C 67.03 44.12 66.91 20.92 79.97 8.96 M 97.16 13.10 C 86.47 16.12 82.28 29.01 85.21 38.91 C 86.73 44.69 91.14 49.86 96.97 51.56 C 103.50 53.38 111.21 52.05 115.88 46.86 C 122.85 38.75 122.89 25.26 115.41 17.47 C 110.81 12.64 103.44 11.41 97.16 13.10 Z" />
<path fill="#292929" opacity="1.00" d=" M 173.74 13.62 C 182.90 0.87 201.53 -3.09 215.47 3.61 C 220.29 5.94 223.92 10.00 226.99 14.29 C 223.28 16.36 219.51 18.34 215.78 20.38 C 213.97 18.44 212.28 16.31 209.97 14.93 C 202.69 10.31 192.13 12.15 186.81 18.93 C 182.34 23.80 181.65 30.90 182.65 37.17 C 184.09 45.36 191.58 52.27 200.03 52.27 C 204.95 52.66 209.79 50.93 213.75 48.07 C 213.73 45.58 213.74 43.09 213.75 40.60 C 208.38 40.65 203.00 40.67 197.63 40.59 C 197.64 36.74 197.64 32.89 197.62 29.05 C 207.62 28.95 217.62 29.01 227.62 29.02 C 227.61 36.89 227.60 44.77 227.63 52.65 C 222.36 58.55 215.20 62.63 207.40 64.00 L 195.30 64.00 C 183.11 62.31 171.91 53.19 169.11 40.99 C 167.20 31.78 167.99 21.38 173.74 13.62 Z" />
<path fill="#292929" opacity="1.00" d=" M 270.69 9.73 C 283.34 -3.22 307.09 -2.70 318.99 11.03 C 329.88 23.45 329.17 44.68 316.84 55.89 C 312.11 60.33 305.96 63.05 299.58 64.00 L 288.63 64.00 C 282.47 62.98 276.41 60.50 271.88 56.10 C 258.74 44.61 258.36 21.94 270.69 9.73 M 288.24 13.23 C 275.77 17.27 272.43 34.35 279.25 44.56 C 284.29 52.92 296.62 54.65 304.45 49.35 C 315.31 41.67 315.31 23.05 304.41 15.39 C 299.76 12.16 293.59 11.70 288.24 13.23 Z" />
</g>
</svg>
