<?xml version="1.0" encoding="utf-8"?>
<!-- Generator: Adobe Illustrator 22.1.0, SVG Export Plug-In . SVG Version: 6.00 Build 0)  -->
<svg version="1.1" id="Слой_1" xmlns="http://www.w3.org/2000/svg" xmlns:xlink="http://www.w3.org/1999/xlink" x="0px" y="0px"
	 viewBox="0 0 60 60" style="enable-background:new 0 0 60 60;" xml:space="preserve">
<style type="text/css">
	.st0{fill:#BEA67C;}
</style>
<g>
	<g>
		<path class="st0" d="M38.7,30.8c-0.1-0.4-0.4-0.6-0.8-0.7l-4.9-0.7L30.9,25c-0.2-0.3-0.5-0.5-0.9-0.5c-0.4,0-0.7,0.2-0.9,0.5
			l-2.2,4.4l-4.9,0.7c-0.4,0.1-0.7,0.3-0.8,0.7c-0.1,0.4,0,0.7,0.2,1l3.5,3.4l-0.8,4.9c-0.1,0.4,0.1,0.7,0.4,0.9
			c0.3,0.2,0.7,0.2,1,0.1l4.4-2.3l4.4,2.3c0.1,0.1,0.3,0.1,0.5,0.1c0.2,0,0.4-0.1,0.6-0.2c0.3-0.2,0.4-0.6,0.4-0.9l-0.8-4.9l3.5-3.4
			C38.7,31.5,38.8,31.1,38.7,30.8L38.7,30.8z M33.2,34.2c-0.2,0.2-0.3,0.5-0.3,0.9l0.6,3.4l-3.1-1.6c-0.3-0.1-0.6-0.1-0.9,0
			l-3.1,1.6l0.6-3.4c0.1-0.3-0.1-0.6-0.3-0.9l-2.5-2.4l3.4-0.5c0.3,0,0.6-0.2,0.7-0.5l1.5-3.1l1.5,3.1c0.1,0.3,0.4,0.5,0.7,0.5
			l3.4,0.5L33.2,34.2z M33.2,34.2"/>
		<path d="M13.7,25.1c3.9,0,7.7-2.5,9.1-6.4c0.2-0.5-0.1-1.1-0.6-1.2c-2.4-0.9-5-0.7-7.3,0.4c0.6-0.8,1.2-1.5,1.9-2.2
			c0.4-0.4,0.4-1,0-1.4c-0.4-0.4-1-0.4-1.4,0c-0.5,0.5-1,1-1.4,1.5c-0.1-2.9-1.5-5.7-4-7.5C9.6,8.1,9,8.2,8.7,8.6
			c-1.5,2.1-2.1,4.6-1.6,7.2c0.4,2.3,1.6,4.4,3.4,5.9c-0.3,0.7-0.6,1.5-0.8,2.2c-0.2-0.4-0.4-0.8-0.7-1.2c-1.4-2.2-3.5-3.7-6-4.2
			c-0.3-0.1-0.5,0-0.7,0.1c-0.2,0.1-0.4,0.4-0.4,0.6c-1.1,5,1.9,9.9,6.7,11.3c0,1,0,2.1,0.1,3.1C8.4,33.4,8.2,33.2,8,33
			c-2.1-1.5-4.6-2.1-7.1-1.8c-0.5,0.1-0.9,0.6-0.8,1.1c0.4,2.5,1.7,4.8,3.8,6.3c1.7,1.2,3.6,1.9,5.7,1.9c0.3,0,0.7,0,1-0.1
			c0.4,0.9,0.9,1.8,1.4,2.7c-3-1-6.4-0.4-9,1.7c-0.4,0.3-0.5,0.9-0.1,1.4c1.6,2,3.9,3.2,6.5,3.5c0.3,0,0.6,0,1,0
			c2,0,3.9-0.6,5.5-1.8c1.1,1.1,2.3,2,3.5,2.9c0.2,0.1,0.3,0.2,0.5,0.2c0.3,0,0.6-0.2,0.8-0.4c0.3-0.4,0.2-1-0.3-1.3
			c-1.2-0.8-2.4-1.7-3.4-2.8c-2.3-2.3-4-5.1-5.1-8c4.6-1.8,7.2-6.8,5.8-11.6c-0.2-0.5-0.7-0.8-1.2-0.7c-2.5,0.7-4.5,2.4-5.7,4.6
			c0,0.1-0.1,0.1-0.1,0.2c0-2.1,0.3-4.1,0.9-6.1C12.1,25.1,12.9,25.1,13.7,25.1L13.7,25.1z M8.5,28.4c-3.2-1.2-5.2-4.4-5-7.8
			c1.6,0.6,2.9,1.6,3.8,3.1C8.2,25.1,8.6,26.8,8.5,28.4L8.5,28.4z M5,37.1c-1.4-1-2.3-2.4-2.8-4c0,0,0.1,0,0.1,0
			c3.4,0,6.4,2.2,7.3,5.5C7.9,38.6,6.3,38.1,5,37.1L5,37.1z M9.3,47.7c-1.7-0.2-3.2-0.9-4.5-2c2.9-1.8,6.7-1.4,9.2,0.9
			C12.7,47.5,11,47.9,9.3,47.7L9.3,47.7z M12.3,31.7c0.8-1.5,2.1-2.6,3.6-3.3c0.5,3.4-1.3,6.7-4.4,8.1
			C11.2,34.8,11.5,33.2,12.3,31.7L12.3,31.7z M15.7,19.7c1.5-0.7,3.2-0.9,4.8-0.6c-1.6,3-5,4.7-8.4,4C12.9,21.6,14.2,20.4,15.7,19.7
			L15.7,19.7z M8.9,15.5c-0.3-1.7,0-3.3,0.8-4.8c2.5,2.3,3.1,6.1,1.5,9.1C10,18.6,9.2,17.1,8.9,15.5L8.9,15.5z M8.9,15.5"/>
		<path d="M50.5,40.5c2,0,4-0.6,5.7-1.9c2.1-1.5,3.4-3.7,3.8-6.3c0.1-0.5-0.3-1-0.8-1.1c-2.9-0.4-5.8,0.5-7.8,2.3
			c0.1-1,0.2-2.1,0.1-3.1c2.3-0.6,4.2-2.1,5.5-4.1c1.4-2.2,1.8-4.7,1.3-7.2c-0.1-0.5-0.6-0.9-1.2-0.7c-2.5,0.6-4.6,2.1-6,4.2
			c-0.3,0.4-0.5,0.8-0.7,1.2c-0.2-0.8-0.5-1.5-0.8-2.2c3.9-3.2,4.8-8.9,1.8-13c-0.1-0.2-0.4-0.4-0.6-0.4c-0.3,0-0.5,0-0.7,0.2
			c-2.1,1.5-3.5,3.7-3.9,6.2C46,15,46,15.4,46,15.9c-0.4-0.5-0.9-1-1.4-1.5c-0.4-0.4-1-0.4-1.4,0c-0.4,0.4-0.4,1,0,1.4
			c0.7,0.7,1.3,1.4,1.9,2.2c-2.3-1.1-4.9-1.2-7.3-0.4c-0.5,0.2-0.8,0.7-0.6,1.2c1.4,3.9,5.1,6.4,9,6.4c0.8,0,1.6-0.1,2.4-0.3
			c0.6,2,0.9,4.1,0.9,6.1c-1.2-2.3-3.2-4.1-5.8-4.8c-0.5-0.2-1.1,0.1-1.2,0.7c-0.7,2.5-0.4,5.1,0.8,7.3c1.1,2,2.8,3.5,5,4.3
			c-1,2.9-2.7,5.7-5.1,8c-1,1-2.2,2-3.4,2.8c-0.4,0.3-0.6,0.9-0.3,1.3c0.2,0.3,0.5,0.4,0.8,0.4c0.2,0,0.4-0.1,0.5-0.2
			c1.3-0.8,2.5-1.8,3.5-2.9c1.7,1.2,3.6,1.8,5.5,1.8c2.8,0,5.5-1.2,7.4-3.5c0.2-0.2,0.2-0.5,0.2-0.7c0-0.3-0.2-0.5-0.4-0.7
			c-2-1.6-4.5-2.4-7-2.1c-0.7,0.1-1.3,0.2-2,0.4c0.5-0.9,1-1.8,1.4-2.7C49.9,40.5,50.2,40.5,50.5,40.5L50.5,40.5z M56.5,20.6
			c0.1,1.7-0.3,3.3-1.2,4.7c-0.9,1.4-2.2,2.5-3.8,3.1C51.2,25,53.3,21.8,56.5,20.6L56.5,20.6z M57.8,33.1c-1,3.3-4,5.5-7.5,5.5
			C51.4,35.3,54.4,33,57.8,33.1L57.8,33.1z M39.5,19.1c1.6-0.3,3.3-0.1,4.8,0.6c1.5,0.7,2.7,1.9,3.5,3.4
			C44.5,23.7,41,22.1,39.5,19.1L39.5,19.1z M48.8,19.8c-0.8-1.5-1-3.2-0.8-4.8c0.3-1.7,1.1-3.2,2.3-4.3
			C51.9,13.7,51.3,17.4,48.8,19.8L48.8,19.8z M50.4,44.6c1.7-0.2,3.3,0.2,4.8,1.1c-2.5,2.3-6.3,2.7-9.2,0.9
			C47.1,45.5,48.7,44.8,50.4,44.6L50.4,44.6z M48.6,36.5c-1.5-0.7-2.8-1.8-3.6-3.3c-0.8-1.5-1.1-3.2-0.9-4.8
			C47.3,29.8,49.1,33.1,48.6,36.5L48.6,36.5z M48.6,36.5"/>
	</g>
</g>
</svg>
