<?xml version="1.0" encoding="iso-8859-1"?>
<!-- Generator: Adobe Illustrator 22.1.0, SVG Export Plug-In . SVG Version: 6.00 Build 0)  -->
<svg version="1.1" id="Layer_1" xmlns="http://www.w3.org/2000/svg" xmlns:xlink="http://www.w3.org/1999/xlink" x="0px" y="0px"
	 viewBox="-49 141 512 512" style="enable-background:new -49 141 512 512;" xml:space="preserve">
<path style="display:none;" d="M427.158,372.363l-13.259-53.035c3.625-0.77,6.345-3.986,6.345-7.839v-8.551
	c0-18.566-15.105-33.67-33.67-33.67h-60.392V251.63c0-9.136-7.432-16.568-16.568-16.568H1.772c-9.136,0-16.568,7.432-16.568,16.568
	V397c0,4.427,3.589,8.017,8.017,8.017s8.017-3.589,8.017-8.017V251.63c0-0.295,0.239-0.534,0.534-0.534h307.841
	c0.295,0,0.534,0.239,0.534,0.534v145.372c0,4.427,3.589,8.017,8.017,8.017c4.427,0,8.017-3.589,8.017-8.017v-9.088h94.569
	c0.007,0,0.014,0.002,0.021,0.002c0.007,0,0.015-0.001,0.022-0.001c11.637,0.007,21.518,7.646,24.912,18.171h-24.928
	c-4.427,0-8.017,3.589-8.017,8.017v17.102c0,13.851,11.268,25.119,25.119,25.119h9.086v35.273h-20.962
	c-6.886-19.882-25.787-34.205-47.982-34.205s-41.097,14.322-47.982,34.205h-3.86v-60.392c0-4.427-3.589-8.017-8.017-8.017
	c-4.427,0-8.017,3.589-8.017,8.017v60.391H143.817c-6.886-19.883-25.787-34.205-47.982-34.205s-41.097,14.322-47.982,34.205H1.772
	c-0.295,0-0.534-0.239-0.534-0.534v-17.637h34.739c4.427,0,8.017-3.589,8.017-8.017c0-4.427-3.589-8.017-8.017-8.017h-76.96
	c-4.427,0-8.017,3.589-8.017,8.017c0,4.427,3.589,8.017,8.017,8.017h26.188v17.637c0,9.136,7.432,16.568,16.568,16.568h43.304
	c-0.002,0.178-0.014,0.355-0.014,0.534c0,27.996,22.777,50.772,50.772,50.772s50.772-22.776,50.772-50.772
	c0-0.18-0.012-0.356-0.014-0.534h180.67c-0.002,0.178-0.014,0.355-0.014,0.534c0,27.996,22.777,50.772,50.772,50.772
	c27.995,0,50.772-22.776,50.772-50.772c0-0.18-0.012-0.356-0.014-0.534h26.203c4.427,0,8.017-3.589,8.017-8.017v-85.512
	C463,392.99,447.423,375.448,427.158,372.363z M326.182,319.505h71.235l13.094,52.376h-84.329V319.505z M386.574,285.301
	c9.725,0,17.637,7.912,17.637,17.637v0.534h-78.029v-18.171H386.574z M95.835,542.904c-19.155,0-34.739-15.583-34.739-34.739
	c0-19.156,15.584-34.739,34.739-34.739s34.739,15.583,34.739,34.739C130.574,527.321,114.99,542.904,95.835,542.904z
	 M378.023,542.904c-19.155,0-34.739-15.583-34.739-34.739c0-19.156,15.584-34.739,34.739-34.739
	c19.155,0,34.739,15.583,34.739,34.739C412.762,527.321,397.178,542.904,378.023,542.904z M437.881,440.29
	c-5.01,0-9.086-4.076-9.086-9.086v-9.086h18.171v18.171H437.881z"/>
<path style="display:none;" d="M95.835,491.597c-9.136,0-16.568,7.432-16.568,16.568s7.432,16.568,16.568,16.568
	s16.568-7.432,16.568-16.568S104.971,491.597,95.835,491.597z"/>
<path style="display:none;" d="M378.023,491.597c-9.136,0-16.568,7.432-16.568,16.568s7.432,16.568,16.568,16.568
	s16.568-7.432,16.568-16.568S387.159,491.597,378.023,491.597z"/>
<path style="display:none;" d="M156.228,465.409c0,4.427,3.589,8.017,8.017,8.017H283.96c4.427,0,8.017-3.589,8.017-8.017
	c0-4.427-3.589-8.017-8.017-8.017H164.244C159.817,457.392,156.228,460.982,156.228,465.409z"/>
<path style="display:none;" d="M-23.881,439.221H78.733c4.427,0,8.017-3.589,8.017-8.017c0-4.427-3.589-8.017-8.017-8.017H-23.881
	c-4.427,0-8.017,3.589-8.017,8.017C-31.898,435.632-28.308,439.221-23.881,439.221z"/>
<g style="display:none;">
	<g style="display:inline;">
		<path style="fill:#BEA67C;" d="M-244.677,319.933c-0.773-2.391-2.844-4.137-5.336-4.5l-33.343-4.844l-14.915-30.218
			c-1.113-2.258-3.414-3.684-5.929-3.684c-2.516,0-4.817,1.43-5.93,3.684l-14.914,30.218l-33.344,4.844
			c-2.492,0.363-4.562,2.106-5.34,4.5c-0.777,2.395-0.128,5.023,1.672,6.781l24.129,23.52l-5.695,33.211
			c-0.422,2.48,0.598,4.988,2.633,6.469c2.035,1.476,4.734,1.675,6.965,0.503l29.824-15.683l29.824,15.683
			c0.969,0.508,2.023,0.758,3.078,0.758c1.371,0,2.735-0.426,3.887-1.261c2.035-1.481,3.055-3.989,2.629-6.469l-5.696-33.211
			l24.129-23.52C-244.548,324.956-243.899,322.328-244.677,319.933L-244.677,319.933z M-282.2,343.191
			c-1.559,1.519-2.27,3.707-1.899,5.855l4.02,23.43l-21.043-11.062c-1.926-1.012-4.227-1.012-6.152,0l-21.043,11.062l4.019-23.434
			c0.367-2.144-0.344-4.332-1.902-5.851l-17.024-16.594l23.528-3.418c2.152-0.312,4.015-1.664,4.976-3.617l10.524-21.316
			l10.519,21.316c0.965,1.953,2.824,3.305,4.981,3.617l23.523,3.418L-282.2,343.191z M-282.2,343.191"/>
		<path d="M-415.306,281.613c26.965,0,52.282-16.797,61.782-43.629c1.218-3.442-0.582-7.223-4.028-8.438
			c-16.398-5.808-34.07-4.91-49.797,2.512c3.989-5.227,8.36-10.25,13.129-15.023c2.586-2.582,2.586-6.77,0-9.352
			c-2.582-2.582-6.769-2.582-9.351,0c-3.407,3.41-6.621,6.941-9.66,10.566c-0.723-19.644-10.211-38.757-27.43-51.011
			c-2.977-2.117-7.106-1.422-9.223,1.554c-10.14,14.25-14.125,31.594-11.219,48.84c2.692,15.961,10.993,30.059,23.504,40.11
			c-2.172,5.035-4.074,10.16-5.711,15.351c-1.296-2.898-2.812-5.726-4.543-8.461c-9.367-14.769-23.921-25.008-40.988-28.828
			c-1.711-0.383-3.508-0.07-4.988,0.867c-1.481,0.942-2.527,2.43-2.91,4.141c-7.617,34.004,12.847,67.859,45.957,77.269
			c-0.168,7.008,0.129,14.024,0.867,21.004c-1.535-1.363-3.133-2.668-4.809-3.898c-14.089-10.356-31.367-14.606-48.66-11.969
			c-3.613,0.551-6.09,3.926-5.539,7.535c2.637,17.289,11.852,32.516,25.945,42.871c11.36,8.356,24.797,12.735,38.637,12.735
			c2.215,0,4.442-0.125,6.672-0.348c2.703,6.281,5.824,12.43,9.359,18.395c-20.457-6.559-43.734-2.973-61.562,11.625
			c-2.824,2.316-3.238,6.48-0.926,9.308c11.082,13.528,26.766,21.934,44.172,23.668c2.211,0.223,4.414,0.328,6.605,0.328
			c13.508,0,26.54-4.152,37.606-11.976c7.441,7.297,15.57,13.887,24.191,19.578c1.121,0.742,2.387,1.098,3.637,1.098
			c2.148,0,4.254-1.047,5.527-2.973c2.012-3.047,1.172-7.148-1.875-9.16c-8.324-5.5-16.16-11.899-23.285-19.02
			c-15.929-15.933-27.465-34.621-34.621-54.539c31.402-12.105,48.875-46.562,39.262-79.437c-1.024-3.504-4.695-5.516-8.203-4.492
			c-16.785,4.906-30.657,16.058-39.055,31.398c-0.269,0.488-0.512,0.984-0.762,1.477c0.063-14.067,2.102-28.129,6.133-41.727
			C-426.091,280.945-420.665,281.613-415.306,281.613L-415.306,281.613z M-451.075,304.085
			c-21.903-8.136-35.821-30.086-33.84-53.363c10.664,3.942,19.699,11.227,25.891,20.992
			C-452.833,281.48-450.095,292.757-451.075,304.085L-451.075,304.085z M-475.146,362.968c-9.316-6.847-15.96-16.363-19.164-27.269
			c0.282-0.004,0.559-0.008,0.84-0.008c23.02,0,43.543,15.293,50.074,37.43C-454.763,373.312-465.829,369.82-475.146,362.968
			L-475.146,362.968z M-445.317,435.847c-11.504-1.148-22.071-5.949-30.387-13.703c19.91-12.227,45.769-9.652,62.879,6.262
			C-422.505,434.367-433.81,436.992-445.317,435.847L-445.317,435.847z M-425.235,326.164c5.55-10.141,14.101-17.989,24.488-22.61
			c3.473,23.106-9.008,45.902-30.344,55.426C-432.794,347.738-430.79,336.308-425.235,326.164L-425.235,326.164z M-401.899,244.105
			c10.437-4.977,21.964-6.34,33.089-4.012c-10.699,20.77-34.152,31.961-57.031,27.207
			C-420.649,257.183-412.337,249.085-401.899,244.105L-401.899,244.105z M-448.06,215.433c-1.921-11.402-0.07-22.859,5.227-32.918
			c17.031,15.988,21.352,41.617,10.5,62.309C-440.634,237.054-446.138,226.835-448.06,215.433L-448.06,215.433z M-448.06,215.433"/>
		<path d="M-164.063,386.359c13.839,0,27.277-4.383,38.64-12.735c14.09-10.355,23.305-25.582,25.945-42.871
			c0.551-3.609-1.929-6.984-5.539-7.535c-20.05-3.062-39.398,3.363-53.476,15.91c0.742-6.992,1.039-14.027,0.875-21.05
			c15.492-4.391,28.664-14.188,37.359-27.899c9.367-14.769,12.418-32.305,8.598-49.367c-0.797-3.566-4.332-5.809-7.899-5.012
			c-17.066,3.821-31.621,14.063-40.988,28.832c-1.73,2.731-3.246,5.559-4.543,8.461c-1.637-5.191-3.539-10.316-5.711-15.355
			c26.77-21.532,32.461-60.598,12.285-88.946c-1.015-1.429-2.558-2.398-4.289-2.687c-1.73-0.293-3.504,0.113-4.933,1.133
			c-14.25,10.14-23.696,25.222-26.602,42.468c-0.48,2.836-0.754,5.676-0.863,8.504c-3.027-3.613-6.231-7.129-9.629-10.527
			c-2.582-2.582-6.77-2.582-9.352,0c-2.582,2.582-2.582,6.77,0,9.352c4.774,4.773,9.145,9.796,13.129,15.023
			c-15.722-7.422-33.394-8.324-49.797-2.516c-3.441,1.219-5.242,5-4.023,8.442c9.5,26.832,34.813,43.629,61.777,43.629
			c5.36,0,10.786-0.668,16.164-2.051c4.036,13.617,6.075,27.703,6.133,41.793c-7.929-15.422-21.898-27.703-39.816-32.941
			c-3.508-1.028-7.176,0.984-8.203,4.492c-4.91,16.785-2.989,34.48,5.414,49.82c7.511,13.719,19.406,24.074,33.844,29.621
			c-7.157,19.918-18.692,38.602-34.622,54.535c-7.121,7.121-14.957,13.52-23.281,19.02c-3.051,2.012-3.89,6.113-1.875,9.164
			c1.27,1.926,3.379,2.969,5.524,2.969c1.25,0,2.515-0.356,3.64-1.098c8.625-5.691,16.75-12.281,24.196-19.582
			c11.355,8.019,24.542,11.949,37.66,11.949c18.968,0,37.789-8.18,50.718-23.965c1.11-1.355,1.637-3.101,1.465-4.847
			c-0.175-1.743-1.035-3.348-2.39-4.461c-13.532-11.078-30.571-16.227-47.969-14.496c-4.664,0.464-9.199,1.425-13.563,2.816
			c3.524-5.949,6.633-12.074,9.329-18.34C-168.505,386.238-166.278,386.359-164.063,386.359L-164.063,386.359z M-123.481,250.726
			c0.98,11.324-1.754,22.605-7.946,32.371c-6.195,9.766-15.23,17.047-25.894,20.992
			C-159.302,280.808-145.384,258.859-123.481,250.726L-123.481,250.726z M-114.099,335.695
			c-6.613,22.41-27.554,37.777-50.906,37.422C-158.392,350.71-137.462,335.312-114.099,335.695L-114.099,335.695z M-239.591,240.093
			c11.125-2.332,22.652-0.965,33.086,4.012c10.438,4.98,18.75,13.078,23.945,23.191
			C-205.446,272.05-228.892,260.863-239.591,240.093L-239.591,240.093z M-176.071,244.824c-5.297-10.063-7.149-21.52-5.227-32.922
			c1.922-11.403,7.426-21.617,15.727-29.391C-154.72,203.203-159.04,228.831-176.071,244.824L-176.071,244.824z M-165.192,414.695
			c11.511-1.145,22.812,1.48,32.492,7.441c-17.106,15.914-42.969,18.488-62.875,6.262
			C-187.263,420.644-176.696,415.843-165.192,414.695L-165.192,414.695z M-177.317,358.984
			c-10.387-4.621-18.938-12.469-24.489-22.613c-5.554-10.141-7.558-21.575-5.855-32.813
			C-186.325,313.081-173.845,335.878-177.317,358.984L-177.317,358.984z M-177.317,358.984"/>
	</g>
</g>
<g>
	<path d="M430.731,185.707h-48.14c-4.188,0-7.586,3.398-7.586,7.586c0,4.191,3.398,7.59,7.586,7.59h48.14
		c9.426,0,17.094,7.668,17.094,17.094v115.804c0,9.426-7.668,17.094-17.094,17.094H253.313c-2.011,0-3.941,0.801-5.367,2.223
		l-43.699,43.699v-38.332c0-4.192-3.394-7.59-7.586-7.59h-14.449c-9.426,0-17.094-7.668-17.094-17.094V217.977
		c0-9.426,7.668-17.094,17.094-17.094h175.086c4.191,0,7.59-3.399,7.59-7.59c0-4.188-3.399-7.586-7.59-7.586H182.212
		c-17.793,0-32.27,14.477-32.27,32.27v115.804c0,17.793,14.477,32.27,32.27,32.27h6.863v49.062c0,3.071,1.848,5.836,4.684,7.012
		c0.937,0.387,1.922,0.578,2.902,0.578c1.973,0,3.914-0.773,5.367-2.223l54.426-54.429h174.277c17.793,0,32.27-14.477,32.27-32.27
		V217.977C463.001,200.184,448.524,185.707,430.731,185.707L430.731,185.707z M430.731,185.707"/>
	<path style="fill:#BEA67C;" d="M225.286,283.031c8.996-6.156,20.195-13.824,20.195-26.933c0-6.219-2.519-11.52-7.281-15.329
		c-4.211-3.371-10.015-5.304-15.926-5.304c-10.914,0-22.511,6.711-22.511,19.144c0,5.485,2.308,8.153,7.058,8.153
		c5.36,0,8.25-2.977,8.25-5.774c0-4.64,2.66-7.304,7.301-7.304c5.465,0,7.402,3.722,7.402,6.906c0,5.894-6.949,10.996-14.308,16.398
		c-8.305,6.094-16.891,12.399-16.891,20.649v9.609c0,2.981,4.063,4.883,6.86,4.883H240.7c2.547,0,4.781-3.254,4.781-6.965
		c0-3.602-2.234-6.762-4.781-6.762h-25.828v-0.765C214.872,290.16,219.7,286.859,225.286,283.031L225.286,283.031z M225.286,283.031
		"/>
	<path style="fill:#BEA67C;" d="M287.454,308.125c5.395,0,7.852-2.527,7.852-4.879v-10.375h4.133c2.464,0,4.882-3.594,4.882-7.258
		c0-4.988-2.531-7.258-4.882-7.258h-4.133v-6.808c0-2.203-2.055-4.781-7.852-4.781c-5.797,0-7.851,2.574-7.851,4.781v6.808h-8.188
		l17.441-34.988c0.266-0.613,0.508-1.269,0.508-1.933c0-1.618-1.035-3.168-2.918-4.368c-1.535-0.972-3.468-1.601-4.933-1.601
		c-2.883,0-5.207,1.43-6.551,4.031l-22.883,44.867c-0.703,1.289-0.808,2.453-0.808,3.032c0,3.277,2.125,5.476,5.281,5.476h23.051
		v10.371C279.603,305.598,282.06,308.125,287.454,308.125L287.454,308.125z M287.454,308.125"/>
	<path style="fill:#BEA67C;" d="M346.673,233.953l-34.766,71.414c-0.324,0.649-0.511,1.352-0.511,1.938
		c0,2.597,2.281,5.379,5.675,5.379c1.992,0,3.871-1.051,4.571-2.547l34.867-71.418c0.34-0.68,0.41-1.43,0.41-1.938
		c0-3.219-3.086-5.379-5.973-5.379C348.993,231.402,347.435,232.332,346.673,233.953L346.673,233.953z M346.673,233.953"/>
	<g>
		<path style="fill:#BEA67C;" d="M373.235,260.582c4.313,0,7.954-2.234,7.954-4.883v-6.512h17.476v6.774l-24.352,42.172
			c-0.488,0.883-0.707,1.695-0.707,2.636c0,4.684,5.235,7.95,9.934,7.95c2.234,0,3.699-0.7,4.469-2.149l23.18-44.375
			c0.746-1.398,3.183-6.222,3.183-9.468v-12.383c0-2.129-3.328-4.879-6.863-4.879h-35.164c-3.461,0-6.864,2.418-6.864,4.879v15.355
			C365.481,258.391,368.962,260.582,373.235,260.582L373.235,260.582z M373.235,260.582"/>
		<path d="M264.771,449.141c-3.946-3.946-9.196-6.118-14.778-6.118c-5.582,0-10.832,2.172-14.777,6.118l-46.379,46.378
			c-18.469-9.652-34.535-18.855-52.488-33.996c-3.203-2.699-7.989-2.293-10.692,0.911c-2.699,3.203-2.293,7.988,0.91,10.691
			c20.735,17.48,38.782,27.348,60.219,38.43c2.934,1.515,6.512,0.961,8.848-1.375l24.953-24.95l82.262,82.262
			c-26.571,22.809-64.2,30.75-106.922,22.352c-48.047-9.449-98.891-39.032-143.164-83.305
			c-44.274-44.273-73.86-95.121-83.309-143.168c-8.398-42.726-0.457-80.355,22.348-106.922l82.273,82.27l-24.961,24.957
			c-2.336,2.336-2.89,5.918-1.371,8.851c15.11,29.215,27.301,50.653,57.84,81.196c2.965,2.961,7.77,2.961,10.73,0
			c2.965-2.965,2.965-7.77,0-10.731c-27.378-27.379-38.851-46.34-52.535-72.515l46.383-46.387c3.949-3.945,6.121-9.195,6.121-14.778
			c0-5.582-2.172-10.832-6.121-14.777l-74.383-74.383c-3.945-3.949-9.195-6.125-14.777-6.125s-10.832,2.176-14.777,6.121
			l-19.996,19.997c-30.43,30.429-41.676,75.234-31.665,126.152c10.024,50.972,41.086,104.59,87.469,150.972
			c46.379,46.379,99.996,77.442,150.969,87.461c12.133,2.387,23.914,3.567,35.242,3.563c36.207,0,67.731-12.047,90.91-35.227
			l19.993-19.992c3.949-3.949,6.121-9.195,6.121-14.777s-2.172-10.832-6.121-14.778L264.771,449.141z M16.954,230.879
			c1.078-1.078,2.516-1.676,4.047-1.676c1.531,0,2.969,0.594,4.047,1.676l74.387,74.387c1.078,1.078,1.675,2.515,1.675,4.046
			c0,1.532-0.597,2.969-1.675,4.047l-14.629,14.629l-82.481-82.48L16.954,230.879z M328.419,542.344l-14.633,14.629L231.317,474.5
			l14.629-14.629c1.078-1.082,2.52-1.676,4.047-1.676c1.528,0,2.965,0.594,4.047,1.676l74.379,74.375
			C330.649,536.48,330.649,540.113,328.419,542.344L328.419,542.344z M328.419,542.344"/>
	</g>
</g>
</svg>
